%
M48
M72
T01C0.02362
T02C0.03543
T03C0.04000
T04C0.12598
%
T01
X79725Y45670
X89725Y45670
X99725Y45670
X109725Y45670
X119725Y45670
T02
X119725Y64725
X109725Y64725
X99725Y64725
X89725Y64725
X79725Y64725
T03
X80040Y99725
X89883Y99725
X99725Y99725
X119410Y99725
X109568Y99725
T04
X52481Y52481
X17048Y99725
X52481Y146969
X99725Y182402
X146969Y146969
X99725Y17048
X146969Y52481
X182402Y99725
M30
