G75*
%MOIN*%
%OFA0B0*%
%FSLAX25Y25*%
%IPPOS*%
%LPD*%
%AMOC8*
5,1,8,0,0,1.08239X$1,22.5*
%
%ADD10C,0.00600*%
%ADD11C,0.00000*%
%ADD12C,0.00500*%
D10*
X0070394Y0090473D02*
X0070394Y0093623D01*
X0079174Y0093623D01*
X0079174Y0090473D01*
X0070394Y0090473D01*
X0070394Y0093623D02*
X0070394Y0098741D01*
X0072461Y0098741D01*
X0072461Y0111044D01*
X0126989Y0111044D01*
X0126989Y0098741D01*
X0129056Y0098741D01*
X0129056Y0113111D01*
X0070394Y0113111D01*
X0070394Y0098741D01*
X0079174Y0090473D02*
X0120276Y0090473D01*
X0120276Y0093623D01*
X0129056Y0093623D01*
X0129056Y0098741D01*
X0129056Y0093623D02*
X0129056Y0090473D01*
X0120276Y0090473D01*
X0001300Y0099725D02*
X0001330Y0102140D01*
X0001419Y0104554D01*
X0001567Y0106966D01*
X0001774Y0109372D01*
X0002040Y0111773D01*
X0002365Y0114167D01*
X0002749Y0116552D01*
X0003191Y0118927D01*
X0003692Y0121290D01*
X0004250Y0123640D01*
X0004865Y0125976D01*
X0005538Y0128296D01*
X0006268Y0130599D01*
X0007054Y0132883D01*
X0007895Y0135148D01*
X0008792Y0137391D01*
X0009744Y0139611D01*
X0010750Y0141807D01*
X0011809Y0143978D01*
X0012922Y0146122D01*
X0014087Y0148239D01*
X0015303Y0150326D01*
X0016570Y0152382D01*
X0017888Y0154407D01*
X0019254Y0156399D01*
X0020669Y0158357D01*
X0022132Y0160279D01*
X0023641Y0162165D01*
X0025197Y0164014D01*
X0026797Y0165823D01*
X0028441Y0167593D01*
X0030128Y0169322D01*
X0031857Y0171009D01*
X0033627Y0172653D01*
X0035436Y0174253D01*
X0037285Y0175809D01*
X0039171Y0177318D01*
X0041093Y0178781D01*
X0043051Y0180196D01*
X0045043Y0181562D01*
X0047068Y0182880D01*
X0049124Y0184147D01*
X0051211Y0185363D01*
X0053328Y0186528D01*
X0055472Y0187641D01*
X0057643Y0188700D01*
X0059839Y0189706D01*
X0062059Y0190658D01*
X0064302Y0191555D01*
X0066567Y0192396D01*
X0068851Y0193182D01*
X0071154Y0193912D01*
X0073474Y0194585D01*
X0075810Y0195200D01*
X0078160Y0195758D01*
X0080523Y0196259D01*
X0082898Y0196701D01*
X0085283Y0197085D01*
X0087677Y0197410D01*
X0090078Y0197676D01*
X0092484Y0197883D01*
X0094896Y0198031D01*
X0097310Y0198120D01*
X0099725Y0198150D01*
X0102140Y0198120D01*
X0104554Y0198031D01*
X0106966Y0197883D01*
X0109372Y0197676D01*
X0111773Y0197410D01*
X0114167Y0197085D01*
X0116552Y0196701D01*
X0118927Y0196259D01*
X0121290Y0195758D01*
X0123640Y0195200D01*
X0125976Y0194585D01*
X0128296Y0193912D01*
X0130599Y0193182D01*
X0132883Y0192396D01*
X0135148Y0191555D01*
X0137391Y0190658D01*
X0139611Y0189706D01*
X0141807Y0188700D01*
X0143978Y0187641D01*
X0146122Y0186528D01*
X0148239Y0185363D01*
X0150326Y0184147D01*
X0152382Y0182880D01*
X0154407Y0181562D01*
X0156399Y0180196D01*
X0158357Y0178781D01*
X0160279Y0177318D01*
X0162165Y0175809D01*
X0164014Y0174253D01*
X0165823Y0172653D01*
X0167593Y0171009D01*
X0169322Y0169322D01*
X0171009Y0167593D01*
X0172653Y0165823D01*
X0174253Y0164014D01*
X0175809Y0162165D01*
X0177318Y0160279D01*
X0178781Y0158357D01*
X0180196Y0156399D01*
X0181562Y0154407D01*
X0182880Y0152382D01*
X0184147Y0150326D01*
X0185363Y0148239D01*
X0186528Y0146122D01*
X0187641Y0143978D01*
X0188700Y0141807D01*
X0189706Y0139611D01*
X0190658Y0137391D01*
X0191555Y0135148D01*
X0192396Y0132883D01*
X0193182Y0130599D01*
X0193912Y0128296D01*
X0194585Y0125976D01*
X0195200Y0123640D01*
X0195758Y0121290D01*
X0196259Y0118927D01*
X0196701Y0116552D01*
X0197085Y0114167D01*
X0197410Y0111773D01*
X0197676Y0109372D01*
X0197883Y0106966D01*
X0198031Y0104554D01*
X0198120Y0102140D01*
X0198150Y0099725D01*
X0198120Y0097310D01*
X0198031Y0094896D01*
X0197883Y0092484D01*
X0197676Y0090078D01*
X0197410Y0087677D01*
X0197085Y0085283D01*
X0196701Y0082898D01*
X0196259Y0080523D01*
X0195758Y0078160D01*
X0195200Y0075810D01*
X0194585Y0073474D01*
X0193912Y0071154D01*
X0193182Y0068851D01*
X0192396Y0066567D01*
X0191555Y0064302D01*
X0190658Y0062059D01*
X0189706Y0059839D01*
X0188700Y0057643D01*
X0187641Y0055472D01*
X0186528Y0053328D01*
X0185363Y0051211D01*
X0184147Y0049124D01*
X0182880Y0047068D01*
X0181562Y0045043D01*
X0180196Y0043051D01*
X0178781Y0041093D01*
X0177318Y0039171D01*
X0175809Y0037285D01*
X0174253Y0035436D01*
X0172653Y0033627D01*
X0171009Y0031857D01*
X0169322Y0030128D01*
X0167593Y0028441D01*
X0165823Y0026797D01*
X0164014Y0025197D01*
X0162165Y0023641D01*
X0160279Y0022132D01*
X0158357Y0020669D01*
X0156399Y0019254D01*
X0154407Y0017888D01*
X0152382Y0016570D01*
X0150326Y0015303D01*
X0148239Y0014087D01*
X0146122Y0012922D01*
X0143978Y0011809D01*
X0141807Y0010750D01*
X0139611Y0009744D01*
X0137391Y0008792D01*
X0135148Y0007895D01*
X0132883Y0007054D01*
X0130599Y0006268D01*
X0128296Y0005538D01*
X0125976Y0004865D01*
X0123640Y0004250D01*
X0121290Y0003692D01*
X0118927Y0003191D01*
X0116552Y0002749D01*
X0114167Y0002365D01*
X0111773Y0002040D01*
X0109372Y0001774D01*
X0106966Y0001567D01*
X0104554Y0001419D01*
X0102140Y0001330D01*
X0099725Y0001300D01*
X0097310Y0001330D01*
X0094896Y0001419D01*
X0092484Y0001567D01*
X0090078Y0001774D01*
X0087677Y0002040D01*
X0085283Y0002365D01*
X0082898Y0002749D01*
X0080523Y0003191D01*
X0078160Y0003692D01*
X0075810Y0004250D01*
X0073474Y0004865D01*
X0071154Y0005538D01*
X0068851Y0006268D01*
X0066567Y0007054D01*
X0064302Y0007895D01*
X0062059Y0008792D01*
X0059839Y0009744D01*
X0057643Y0010750D01*
X0055472Y0011809D01*
X0053328Y0012922D01*
X0051211Y0014087D01*
X0049124Y0015303D01*
X0047068Y0016570D01*
X0045043Y0017888D01*
X0043051Y0019254D01*
X0041093Y0020669D01*
X0039171Y0022132D01*
X0037285Y0023641D01*
X0035436Y0025197D01*
X0033627Y0026797D01*
X0031857Y0028441D01*
X0030128Y0030128D01*
X0028441Y0031857D01*
X0026797Y0033627D01*
X0025197Y0035436D01*
X0023641Y0037285D01*
X0022132Y0039171D01*
X0020669Y0041093D01*
X0019254Y0043051D01*
X0017888Y0045043D01*
X0016570Y0047068D01*
X0015303Y0049124D01*
X0014087Y0051211D01*
X0012922Y0053328D01*
X0011809Y0055472D01*
X0010750Y0057643D01*
X0009744Y0059839D01*
X0008792Y0062059D01*
X0007895Y0064302D01*
X0007054Y0066567D01*
X0006268Y0068851D01*
X0005538Y0071154D01*
X0004865Y0073474D01*
X0004250Y0075810D01*
X0003692Y0078160D01*
X0003191Y0080523D01*
X0002749Y0082898D01*
X0002365Y0085283D01*
X0002040Y0087677D01*
X0001774Y0090078D01*
X0001567Y0092484D01*
X0001419Y0094896D01*
X0001330Y0097310D01*
X0001300Y0099725D01*
D11*
X0010749Y0099725D02*
X0010751Y0099883D01*
X0010757Y0100041D01*
X0010767Y0100199D01*
X0010781Y0100357D01*
X0010799Y0100514D01*
X0010820Y0100671D01*
X0010846Y0100827D01*
X0010876Y0100983D01*
X0010909Y0101138D01*
X0010947Y0101291D01*
X0010988Y0101444D01*
X0011033Y0101596D01*
X0011082Y0101747D01*
X0011135Y0101896D01*
X0011191Y0102044D01*
X0011251Y0102190D01*
X0011315Y0102335D01*
X0011383Y0102478D01*
X0011454Y0102620D01*
X0011528Y0102760D01*
X0011606Y0102897D01*
X0011688Y0103033D01*
X0011772Y0103167D01*
X0011861Y0103298D01*
X0011952Y0103427D01*
X0012047Y0103554D01*
X0012144Y0103679D01*
X0012245Y0103801D01*
X0012349Y0103920D01*
X0012456Y0104037D01*
X0012566Y0104151D01*
X0012679Y0104262D01*
X0012794Y0104371D01*
X0012912Y0104476D01*
X0013033Y0104578D01*
X0013156Y0104678D01*
X0013282Y0104774D01*
X0013410Y0104867D01*
X0013540Y0104957D01*
X0013673Y0105043D01*
X0013808Y0105127D01*
X0013944Y0105206D01*
X0014083Y0105283D01*
X0014224Y0105355D01*
X0014366Y0105425D01*
X0014510Y0105490D01*
X0014656Y0105552D01*
X0014803Y0105610D01*
X0014952Y0105665D01*
X0015102Y0105716D01*
X0015253Y0105763D01*
X0015405Y0105806D01*
X0015558Y0105845D01*
X0015713Y0105881D01*
X0015868Y0105912D01*
X0016024Y0105940D01*
X0016180Y0105964D01*
X0016337Y0105984D01*
X0016495Y0106000D01*
X0016652Y0106012D01*
X0016811Y0106020D01*
X0016969Y0106024D01*
X0017127Y0106024D01*
X0017285Y0106020D01*
X0017444Y0106012D01*
X0017601Y0106000D01*
X0017759Y0105984D01*
X0017916Y0105964D01*
X0018072Y0105940D01*
X0018228Y0105912D01*
X0018383Y0105881D01*
X0018538Y0105845D01*
X0018691Y0105806D01*
X0018843Y0105763D01*
X0018994Y0105716D01*
X0019144Y0105665D01*
X0019293Y0105610D01*
X0019440Y0105552D01*
X0019586Y0105490D01*
X0019730Y0105425D01*
X0019872Y0105355D01*
X0020013Y0105283D01*
X0020152Y0105206D01*
X0020288Y0105127D01*
X0020423Y0105043D01*
X0020556Y0104957D01*
X0020686Y0104867D01*
X0020814Y0104774D01*
X0020940Y0104678D01*
X0021063Y0104578D01*
X0021184Y0104476D01*
X0021302Y0104371D01*
X0021417Y0104262D01*
X0021530Y0104151D01*
X0021640Y0104037D01*
X0021747Y0103920D01*
X0021851Y0103801D01*
X0021952Y0103679D01*
X0022049Y0103554D01*
X0022144Y0103427D01*
X0022235Y0103298D01*
X0022324Y0103167D01*
X0022408Y0103033D01*
X0022490Y0102897D01*
X0022568Y0102760D01*
X0022642Y0102620D01*
X0022713Y0102478D01*
X0022781Y0102335D01*
X0022845Y0102190D01*
X0022905Y0102044D01*
X0022961Y0101896D01*
X0023014Y0101747D01*
X0023063Y0101596D01*
X0023108Y0101444D01*
X0023149Y0101291D01*
X0023187Y0101138D01*
X0023220Y0100983D01*
X0023250Y0100827D01*
X0023276Y0100671D01*
X0023297Y0100514D01*
X0023315Y0100357D01*
X0023329Y0100199D01*
X0023339Y0100041D01*
X0023345Y0099883D01*
X0023347Y0099725D01*
X0023345Y0099567D01*
X0023339Y0099409D01*
X0023329Y0099251D01*
X0023315Y0099093D01*
X0023297Y0098936D01*
X0023276Y0098779D01*
X0023250Y0098623D01*
X0023220Y0098467D01*
X0023187Y0098312D01*
X0023149Y0098159D01*
X0023108Y0098006D01*
X0023063Y0097854D01*
X0023014Y0097703D01*
X0022961Y0097554D01*
X0022905Y0097406D01*
X0022845Y0097260D01*
X0022781Y0097115D01*
X0022713Y0096972D01*
X0022642Y0096830D01*
X0022568Y0096690D01*
X0022490Y0096553D01*
X0022408Y0096417D01*
X0022324Y0096283D01*
X0022235Y0096152D01*
X0022144Y0096023D01*
X0022049Y0095896D01*
X0021952Y0095771D01*
X0021851Y0095649D01*
X0021747Y0095530D01*
X0021640Y0095413D01*
X0021530Y0095299D01*
X0021417Y0095188D01*
X0021302Y0095079D01*
X0021184Y0094974D01*
X0021063Y0094872D01*
X0020940Y0094772D01*
X0020814Y0094676D01*
X0020686Y0094583D01*
X0020556Y0094493D01*
X0020423Y0094407D01*
X0020288Y0094323D01*
X0020152Y0094244D01*
X0020013Y0094167D01*
X0019872Y0094095D01*
X0019730Y0094025D01*
X0019586Y0093960D01*
X0019440Y0093898D01*
X0019293Y0093840D01*
X0019144Y0093785D01*
X0018994Y0093734D01*
X0018843Y0093687D01*
X0018691Y0093644D01*
X0018538Y0093605D01*
X0018383Y0093569D01*
X0018228Y0093538D01*
X0018072Y0093510D01*
X0017916Y0093486D01*
X0017759Y0093466D01*
X0017601Y0093450D01*
X0017444Y0093438D01*
X0017285Y0093430D01*
X0017127Y0093426D01*
X0016969Y0093426D01*
X0016811Y0093430D01*
X0016652Y0093438D01*
X0016495Y0093450D01*
X0016337Y0093466D01*
X0016180Y0093486D01*
X0016024Y0093510D01*
X0015868Y0093538D01*
X0015713Y0093569D01*
X0015558Y0093605D01*
X0015405Y0093644D01*
X0015253Y0093687D01*
X0015102Y0093734D01*
X0014952Y0093785D01*
X0014803Y0093840D01*
X0014656Y0093898D01*
X0014510Y0093960D01*
X0014366Y0094025D01*
X0014224Y0094095D01*
X0014083Y0094167D01*
X0013944Y0094244D01*
X0013808Y0094323D01*
X0013673Y0094407D01*
X0013540Y0094493D01*
X0013410Y0094583D01*
X0013282Y0094676D01*
X0013156Y0094772D01*
X0013033Y0094872D01*
X0012912Y0094974D01*
X0012794Y0095079D01*
X0012679Y0095188D01*
X0012566Y0095299D01*
X0012456Y0095413D01*
X0012349Y0095530D01*
X0012245Y0095649D01*
X0012144Y0095771D01*
X0012047Y0095896D01*
X0011952Y0096023D01*
X0011861Y0096152D01*
X0011772Y0096283D01*
X0011688Y0096417D01*
X0011606Y0096553D01*
X0011528Y0096690D01*
X0011454Y0096830D01*
X0011383Y0096972D01*
X0011315Y0097115D01*
X0011251Y0097260D01*
X0011191Y0097406D01*
X0011135Y0097554D01*
X0011082Y0097703D01*
X0011033Y0097854D01*
X0010988Y0098006D01*
X0010947Y0098159D01*
X0010909Y0098312D01*
X0010876Y0098467D01*
X0010846Y0098623D01*
X0010820Y0098779D01*
X0010799Y0098936D01*
X0010781Y0099093D01*
X0010767Y0099251D01*
X0010757Y0099409D01*
X0010751Y0099567D01*
X0010749Y0099725D01*
X0046182Y0052481D02*
X0046184Y0052639D01*
X0046190Y0052797D01*
X0046200Y0052955D01*
X0046214Y0053113D01*
X0046232Y0053270D01*
X0046253Y0053427D01*
X0046279Y0053583D01*
X0046309Y0053739D01*
X0046342Y0053894D01*
X0046380Y0054047D01*
X0046421Y0054200D01*
X0046466Y0054352D01*
X0046515Y0054503D01*
X0046568Y0054652D01*
X0046624Y0054800D01*
X0046684Y0054946D01*
X0046748Y0055091D01*
X0046816Y0055234D01*
X0046887Y0055376D01*
X0046961Y0055516D01*
X0047039Y0055653D01*
X0047121Y0055789D01*
X0047205Y0055923D01*
X0047294Y0056054D01*
X0047385Y0056183D01*
X0047480Y0056310D01*
X0047577Y0056435D01*
X0047678Y0056557D01*
X0047782Y0056676D01*
X0047889Y0056793D01*
X0047999Y0056907D01*
X0048112Y0057018D01*
X0048227Y0057127D01*
X0048345Y0057232D01*
X0048466Y0057334D01*
X0048589Y0057434D01*
X0048715Y0057530D01*
X0048843Y0057623D01*
X0048973Y0057713D01*
X0049106Y0057799D01*
X0049241Y0057883D01*
X0049377Y0057962D01*
X0049516Y0058039D01*
X0049657Y0058111D01*
X0049799Y0058181D01*
X0049943Y0058246D01*
X0050089Y0058308D01*
X0050236Y0058366D01*
X0050385Y0058421D01*
X0050535Y0058472D01*
X0050686Y0058519D01*
X0050838Y0058562D01*
X0050991Y0058601D01*
X0051146Y0058637D01*
X0051301Y0058668D01*
X0051457Y0058696D01*
X0051613Y0058720D01*
X0051770Y0058740D01*
X0051928Y0058756D01*
X0052085Y0058768D01*
X0052244Y0058776D01*
X0052402Y0058780D01*
X0052560Y0058780D01*
X0052718Y0058776D01*
X0052877Y0058768D01*
X0053034Y0058756D01*
X0053192Y0058740D01*
X0053349Y0058720D01*
X0053505Y0058696D01*
X0053661Y0058668D01*
X0053816Y0058637D01*
X0053971Y0058601D01*
X0054124Y0058562D01*
X0054276Y0058519D01*
X0054427Y0058472D01*
X0054577Y0058421D01*
X0054726Y0058366D01*
X0054873Y0058308D01*
X0055019Y0058246D01*
X0055163Y0058181D01*
X0055305Y0058111D01*
X0055446Y0058039D01*
X0055585Y0057962D01*
X0055721Y0057883D01*
X0055856Y0057799D01*
X0055989Y0057713D01*
X0056119Y0057623D01*
X0056247Y0057530D01*
X0056373Y0057434D01*
X0056496Y0057334D01*
X0056617Y0057232D01*
X0056735Y0057127D01*
X0056850Y0057018D01*
X0056963Y0056907D01*
X0057073Y0056793D01*
X0057180Y0056676D01*
X0057284Y0056557D01*
X0057385Y0056435D01*
X0057482Y0056310D01*
X0057577Y0056183D01*
X0057668Y0056054D01*
X0057757Y0055923D01*
X0057841Y0055789D01*
X0057923Y0055653D01*
X0058001Y0055516D01*
X0058075Y0055376D01*
X0058146Y0055234D01*
X0058214Y0055091D01*
X0058278Y0054946D01*
X0058338Y0054800D01*
X0058394Y0054652D01*
X0058447Y0054503D01*
X0058496Y0054352D01*
X0058541Y0054200D01*
X0058582Y0054047D01*
X0058620Y0053894D01*
X0058653Y0053739D01*
X0058683Y0053583D01*
X0058709Y0053427D01*
X0058730Y0053270D01*
X0058748Y0053113D01*
X0058762Y0052955D01*
X0058772Y0052797D01*
X0058778Y0052639D01*
X0058780Y0052481D01*
X0058778Y0052323D01*
X0058772Y0052165D01*
X0058762Y0052007D01*
X0058748Y0051849D01*
X0058730Y0051692D01*
X0058709Y0051535D01*
X0058683Y0051379D01*
X0058653Y0051223D01*
X0058620Y0051068D01*
X0058582Y0050915D01*
X0058541Y0050762D01*
X0058496Y0050610D01*
X0058447Y0050459D01*
X0058394Y0050310D01*
X0058338Y0050162D01*
X0058278Y0050016D01*
X0058214Y0049871D01*
X0058146Y0049728D01*
X0058075Y0049586D01*
X0058001Y0049446D01*
X0057923Y0049309D01*
X0057841Y0049173D01*
X0057757Y0049039D01*
X0057668Y0048908D01*
X0057577Y0048779D01*
X0057482Y0048652D01*
X0057385Y0048527D01*
X0057284Y0048405D01*
X0057180Y0048286D01*
X0057073Y0048169D01*
X0056963Y0048055D01*
X0056850Y0047944D01*
X0056735Y0047835D01*
X0056617Y0047730D01*
X0056496Y0047628D01*
X0056373Y0047528D01*
X0056247Y0047432D01*
X0056119Y0047339D01*
X0055989Y0047249D01*
X0055856Y0047163D01*
X0055721Y0047079D01*
X0055585Y0047000D01*
X0055446Y0046923D01*
X0055305Y0046851D01*
X0055163Y0046781D01*
X0055019Y0046716D01*
X0054873Y0046654D01*
X0054726Y0046596D01*
X0054577Y0046541D01*
X0054427Y0046490D01*
X0054276Y0046443D01*
X0054124Y0046400D01*
X0053971Y0046361D01*
X0053816Y0046325D01*
X0053661Y0046294D01*
X0053505Y0046266D01*
X0053349Y0046242D01*
X0053192Y0046222D01*
X0053034Y0046206D01*
X0052877Y0046194D01*
X0052718Y0046186D01*
X0052560Y0046182D01*
X0052402Y0046182D01*
X0052244Y0046186D01*
X0052085Y0046194D01*
X0051928Y0046206D01*
X0051770Y0046222D01*
X0051613Y0046242D01*
X0051457Y0046266D01*
X0051301Y0046294D01*
X0051146Y0046325D01*
X0050991Y0046361D01*
X0050838Y0046400D01*
X0050686Y0046443D01*
X0050535Y0046490D01*
X0050385Y0046541D01*
X0050236Y0046596D01*
X0050089Y0046654D01*
X0049943Y0046716D01*
X0049799Y0046781D01*
X0049657Y0046851D01*
X0049516Y0046923D01*
X0049377Y0047000D01*
X0049241Y0047079D01*
X0049106Y0047163D01*
X0048973Y0047249D01*
X0048843Y0047339D01*
X0048715Y0047432D01*
X0048589Y0047528D01*
X0048466Y0047628D01*
X0048345Y0047730D01*
X0048227Y0047835D01*
X0048112Y0047944D01*
X0047999Y0048055D01*
X0047889Y0048169D01*
X0047782Y0048286D01*
X0047678Y0048405D01*
X0047577Y0048527D01*
X0047480Y0048652D01*
X0047385Y0048779D01*
X0047294Y0048908D01*
X0047205Y0049039D01*
X0047121Y0049173D01*
X0047039Y0049309D01*
X0046961Y0049446D01*
X0046887Y0049586D01*
X0046816Y0049728D01*
X0046748Y0049871D01*
X0046684Y0050016D01*
X0046624Y0050162D01*
X0046568Y0050310D01*
X0046515Y0050459D01*
X0046466Y0050610D01*
X0046421Y0050762D01*
X0046380Y0050915D01*
X0046342Y0051068D01*
X0046309Y0051223D01*
X0046279Y0051379D01*
X0046253Y0051535D01*
X0046232Y0051692D01*
X0046214Y0051849D01*
X0046200Y0052007D01*
X0046190Y0052165D01*
X0046184Y0052323D01*
X0046182Y0052481D01*
X0093426Y0017048D02*
X0093428Y0017206D01*
X0093434Y0017364D01*
X0093444Y0017522D01*
X0093458Y0017680D01*
X0093476Y0017837D01*
X0093497Y0017994D01*
X0093523Y0018150D01*
X0093553Y0018306D01*
X0093586Y0018461D01*
X0093624Y0018614D01*
X0093665Y0018767D01*
X0093710Y0018919D01*
X0093759Y0019070D01*
X0093812Y0019219D01*
X0093868Y0019367D01*
X0093928Y0019513D01*
X0093992Y0019658D01*
X0094060Y0019801D01*
X0094131Y0019943D01*
X0094205Y0020083D01*
X0094283Y0020220D01*
X0094365Y0020356D01*
X0094449Y0020490D01*
X0094538Y0020621D01*
X0094629Y0020750D01*
X0094724Y0020877D01*
X0094821Y0021002D01*
X0094922Y0021124D01*
X0095026Y0021243D01*
X0095133Y0021360D01*
X0095243Y0021474D01*
X0095356Y0021585D01*
X0095471Y0021694D01*
X0095589Y0021799D01*
X0095710Y0021901D01*
X0095833Y0022001D01*
X0095959Y0022097D01*
X0096087Y0022190D01*
X0096217Y0022280D01*
X0096350Y0022366D01*
X0096485Y0022450D01*
X0096621Y0022529D01*
X0096760Y0022606D01*
X0096901Y0022678D01*
X0097043Y0022748D01*
X0097187Y0022813D01*
X0097333Y0022875D01*
X0097480Y0022933D01*
X0097629Y0022988D01*
X0097779Y0023039D01*
X0097930Y0023086D01*
X0098082Y0023129D01*
X0098235Y0023168D01*
X0098390Y0023204D01*
X0098545Y0023235D01*
X0098701Y0023263D01*
X0098857Y0023287D01*
X0099014Y0023307D01*
X0099172Y0023323D01*
X0099329Y0023335D01*
X0099488Y0023343D01*
X0099646Y0023347D01*
X0099804Y0023347D01*
X0099962Y0023343D01*
X0100121Y0023335D01*
X0100278Y0023323D01*
X0100436Y0023307D01*
X0100593Y0023287D01*
X0100749Y0023263D01*
X0100905Y0023235D01*
X0101060Y0023204D01*
X0101215Y0023168D01*
X0101368Y0023129D01*
X0101520Y0023086D01*
X0101671Y0023039D01*
X0101821Y0022988D01*
X0101970Y0022933D01*
X0102117Y0022875D01*
X0102263Y0022813D01*
X0102407Y0022748D01*
X0102549Y0022678D01*
X0102690Y0022606D01*
X0102829Y0022529D01*
X0102965Y0022450D01*
X0103100Y0022366D01*
X0103233Y0022280D01*
X0103363Y0022190D01*
X0103491Y0022097D01*
X0103617Y0022001D01*
X0103740Y0021901D01*
X0103861Y0021799D01*
X0103979Y0021694D01*
X0104094Y0021585D01*
X0104207Y0021474D01*
X0104317Y0021360D01*
X0104424Y0021243D01*
X0104528Y0021124D01*
X0104629Y0021002D01*
X0104726Y0020877D01*
X0104821Y0020750D01*
X0104912Y0020621D01*
X0105001Y0020490D01*
X0105085Y0020356D01*
X0105167Y0020220D01*
X0105245Y0020083D01*
X0105319Y0019943D01*
X0105390Y0019801D01*
X0105458Y0019658D01*
X0105522Y0019513D01*
X0105582Y0019367D01*
X0105638Y0019219D01*
X0105691Y0019070D01*
X0105740Y0018919D01*
X0105785Y0018767D01*
X0105826Y0018614D01*
X0105864Y0018461D01*
X0105897Y0018306D01*
X0105927Y0018150D01*
X0105953Y0017994D01*
X0105974Y0017837D01*
X0105992Y0017680D01*
X0106006Y0017522D01*
X0106016Y0017364D01*
X0106022Y0017206D01*
X0106024Y0017048D01*
X0106022Y0016890D01*
X0106016Y0016732D01*
X0106006Y0016574D01*
X0105992Y0016416D01*
X0105974Y0016259D01*
X0105953Y0016102D01*
X0105927Y0015946D01*
X0105897Y0015790D01*
X0105864Y0015635D01*
X0105826Y0015482D01*
X0105785Y0015329D01*
X0105740Y0015177D01*
X0105691Y0015026D01*
X0105638Y0014877D01*
X0105582Y0014729D01*
X0105522Y0014583D01*
X0105458Y0014438D01*
X0105390Y0014295D01*
X0105319Y0014153D01*
X0105245Y0014013D01*
X0105167Y0013876D01*
X0105085Y0013740D01*
X0105001Y0013606D01*
X0104912Y0013475D01*
X0104821Y0013346D01*
X0104726Y0013219D01*
X0104629Y0013094D01*
X0104528Y0012972D01*
X0104424Y0012853D01*
X0104317Y0012736D01*
X0104207Y0012622D01*
X0104094Y0012511D01*
X0103979Y0012402D01*
X0103861Y0012297D01*
X0103740Y0012195D01*
X0103617Y0012095D01*
X0103491Y0011999D01*
X0103363Y0011906D01*
X0103233Y0011816D01*
X0103100Y0011730D01*
X0102965Y0011646D01*
X0102829Y0011567D01*
X0102690Y0011490D01*
X0102549Y0011418D01*
X0102407Y0011348D01*
X0102263Y0011283D01*
X0102117Y0011221D01*
X0101970Y0011163D01*
X0101821Y0011108D01*
X0101671Y0011057D01*
X0101520Y0011010D01*
X0101368Y0010967D01*
X0101215Y0010928D01*
X0101060Y0010892D01*
X0100905Y0010861D01*
X0100749Y0010833D01*
X0100593Y0010809D01*
X0100436Y0010789D01*
X0100278Y0010773D01*
X0100121Y0010761D01*
X0099962Y0010753D01*
X0099804Y0010749D01*
X0099646Y0010749D01*
X0099488Y0010753D01*
X0099329Y0010761D01*
X0099172Y0010773D01*
X0099014Y0010789D01*
X0098857Y0010809D01*
X0098701Y0010833D01*
X0098545Y0010861D01*
X0098390Y0010892D01*
X0098235Y0010928D01*
X0098082Y0010967D01*
X0097930Y0011010D01*
X0097779Y0011057D01*
X0097629Y0011108D01*
X0097480Y0011163D01*
X0097333Y0011221D01*
X0097187Y0011283D01*
X0097043Y0011348D01*
X0096901Y0011418D01*
X0096760Y0011490D01*
X0096621Y0011567D01*
X0096485Y0011646D01*
X0096350Y0011730D01*
X0096217Y0011816D01*
X0096087Y0011906D01*
X0095959Y0011999D01*
X0095833Y0012095D01*
X0095710Y0012195D01*
X0095589Y0012297D01*
X0095471Y0012402D01*
X0095356Y0012511D01*
X0095243Y0012622D01*
X0095133Y0012736D01*
X0095026Y0012853D01*
X0094922Y0012972D01*
X0094821Y0013094D01*
X0094724Y0013219D01*
X0094629Y0013346D01*
X0094538Y0013475D01*
X0094449Y0013606D01*
X0094365Y0013740D01*
X0094283Y0013876D01*
X0094205Y0014013D01*
X0094131Y0014153D01*
X0094060Y0014295D01*
X0093992Y0014438D01*
X0093928Y0014583D01*
X0093868Y0014729D01*
X0093812Y0014877D01*
X0093759Y0015026D01*
X0093710Y0015177D01*
X0093665Y0015329D01*
X0093624Y0015482D01*
X0093586Y0015635D01*
X0093553Y0015790D01*
X0093523Y0015946D01*
X0093497Y0016102D01*
X0093476Y0016259D01*
X0093458Y0016416D01*
X0093444Y0016574D01*
X0093434Y0016732D01*
X0093428Y0016890D01*
X0093426Y0017048D01*
X0140670Y0052481D02*
X0140672Y0052639D01*
X0140678Y0052797D01*
X0140688Y0052955D01*
X0140702Y0053113D01*
X0140720Y0053270D01*
X0140741Y0053427D01*
X0140767Y0053583D01*
X0140797Y0053739D01*
X0140830Y0053894D01*
X0140868Y0054047D01*
X0140909Y0054200D01*
X0140954Y0054352D01*
X0141003Y0054503D01*
X0141056Y0054652D01*
X0141112Y0054800D01*
X0141172Y0054946D01*
X0141236Y0055091D01*
X0141304Y0055234D01*
X0141375Y0055376D01*
X0141449Y0055516D01*
X0141527Y0055653D01*
X0141609Y0055789D01*
X0141693Y0055923D01*
X0141782Y0056054D01*
X0141873Y0056183D01*
X0141968Y0056310D01*
X0142065Y0056435D01*
X0142166Y0056557D01*
X0142270Y0056676D01*
X0142377Y0056793D01*
X0142487Y0056907D01*
X0142600Y0057018D01*
X0142715Y0057127D01*
X0142833Y0057232D01*
X0142954Y0057334D01*
X0143077Y0057434D01*
X0143203Y0057530D01*
X0143331Y0057623D01*
X0143461Y0057713D01*
X0143594Y0057799D01*
X0143729Y0057883D01*
X0143865Y0057962D01*
X0144004Y0058039D01*
X0144145Y0058111D01*
X0144287Y0058181D01*
X0144431Y0058246D01*
X0144577Y0058308D01*
X0144724Y0058366D01*
X0144873Y0058421D01*
X0145023Y0058472D01*
X0145174Y0058519D01*
X0145326Y0058562D01*
X0145479Y0058601D01*
X0145634Y0058637D01*
X0145789Y0058668D01*
X0145945Y0058696D01*
X0146101Y0058720D01*
X0146258Y0058740D01*
X0146416Y0058756D01*
X0146573Y0058768D01*
X0146732Y0058776D01*
X0146890Y0058780D01*
X0147048Y0058780D01*
X0147206Y0058776D01*
X0147365Y0058768D01*
X0147522Y0058756D01*
X0147680Y0058740D01*
X0147837Y0058720D01*
X0147993Y0058696D01*
X0148149Y0058668D01*
X0148304Y0058637D01*
X0148459Y0058601D01*
X0148612Y0058562D01*
X0148764Y0058519D01*
X0148915Y0058472D01*
X0149065Y0058421D01*
X0149214Y0058366D01*
X0149361Y0058308D01*
X0149507Y0058246D01*
X0149651Y0058181D01*
X0149793Y0058111D01*
X0149934Y0058039D01*
X0150073Y0057962D01*
X0150209Y0057883D01*
X0150344Y0057799D01*
X0150477Y0057713D01*
X0150607Y0057623D01*
X0150735Y0057530D01*
X0150861Y0057434D01*
X0150984Y0057334D01*
X0151105Y0057232D01*
X0151223Y0057127D01*
X0151338Y0057018D01*
X0151451Y0056907D01*
X0151561Y0056793D01*
X0151668Y0056676D01*
X0151772Y0056557D01*
X0151873Y0056435D01*
X0151970Y0056310D01*
X0152065Y0056183D01*
X0152156Y0056054D01*
X0152245Y0055923D01*
X0152329Y0055789D01*
X0152411Y0055653D01*
X0152489Y0055516D01*
X0152563Y0055376D01*
X0152634Y0055234D01*
X0152702Y0055091D01*
X0152766Y0054946D01*
X0152826Y0054800D01*
X0152882Y0054652D01*
X0152935Y0054503D01*
X0152984Y0054352D01*
X0153029Y0054200D01*
X0153070Y0054047D01*
X0153108Y0053894D01*
X0153141Y0053739D01*
X0153171Y0053583D01*
X0153197Y0053427D01*
X0153218Y0053270D01*
X0153236Y0053113D01*
X0153250Y0052955D01*
X0153260Y0052797D01*
X0153266Y0052639D01*
X0153268Y0052481D01*
X0153266Y0052323D01*
X0153260Y0052165D01*
X0153250Y0052007D01*
X0153236Y0051849D01*
X0153218Y0051692D01*
X0153197Y0051535D01*
X0153171Y0051379D01*
X0153141Y0051223D01*
X0153108Y0051068D01*
X0153070Y0050915D01*
X0153029Y0050762D01*
X0152984Y0050610D01*
X0152935Y0050459D01*
X0152882Y0050310D01*
X0152826Y0050162D01*
X0152766Y0050016D01*
X0152702Y0049871D01*
X0152634Y0049728D01*
X0152563Y0049586D01*
X0152489Y0049446D01*
X0152411Y0049309D01*
X0152329Y0049173D01*
X0152245Y0049039D01*
X0152156Y0048908D01*
X0152065Y0048779D01*
X0151970Y0048652D01*
X0151873Y0048527D01*
X0151772Y0048405D01*
X0151668Y0048286D01*
X0151561Y0048169D01*
X0151451Y0048055D01*
X0151338Y0047944D01*
X0151223Y0047835D01*
X0151105Y0047730D01*
X0150984Y0047628D01*
X0150861Y0047528D01*
X0150735Y0047432D01*
X0150607Y0047339D01*
X0150477Y0047249D01*
X0150344Y0047163D01*
X0150209Y0047079D01*
X0150073Y0047000D01*
X0149934Y0046923D01*
X0149793Y0046851D01*
X0149651Y0046781D01*
X0149507Y0046716D01*
X0149361Y0046654D01*
X0149214Y0046596D01*
X0149065Y0046541D01*
X0148915Y0046490D01*
X0148764Y0046443D01*
X0148612Y0046400D01*
X0148459Y0046361D01*
X0148304Y0046325D01*
X0148149Y0046294D01*
X0147993Y0046266D01*
X0147837Y0046242D01*
X0147680Y0046222D01*
X0147522Y0046206D01*
X0147365Y0046194D01*
X0147206Y0046186D01*
X0147048Y0046182D01*
X0146890Y0046182D01*
X0146732Y0046186D01*
X0146573Y0046194D01*
X0146416Y0046206D01*
X0146258Y0046222D01*
X0146101Y0046242D01*
X0145945Y0046266D01*
X0145789Y0046294D01*
X0145634Y0046325D01*
X0145479Y0046361D01*
X0145326Y0046400D01*
X0145174Y0046443D01*
X0145023Y0046490D01*
X0144873Y0046541D01*
X0144724Y0046596D01*
X0144577Y0046654D01*
X0144431Y0046716D01*
X0144287Y0046781D01*
X0144145Y0046851D01*
X0144004Y0046923D01*
X0143865Y0047000D01*
X0143729Y0047079D01*
X0143594Y0047163D01*
X0143461Y0047249D01*
X0143331Y0047339D01*
X0143203Y0047432D01*
X0143077Y0047528D01*
X0142954Y0047628D01*
X0142833Y0047730D01*
X0142715Y0047835D01*
X0142600Y0047944D01*
X0142487Y0048055D01*
X0142377Y0048169D01*
X0142270Y0048286D01*
X0142166Y0048405D01*
X0142065Y0048527D01*
X0141968Y0048652D01*
X0141873Y0048779D01*
X0141782Y0048908D01*
X0141693Y0049039D01*
X0141609Y0049173D01*
X0141527Y0049309D01*
X0141449Y0049446D01*
X0141375Y0049586D01*
X0141304Y0049728D01*
X0141236Y0049871D01*
X0141172Y0050016D01*
X0141112Y0050162D01*
X0141056Y0050310D01*
X0141003Y0050459D01*
X0140954Y0050610D01*
X0140909Y0050762D01*
X0140868Y0050915D01*
X0140830Y0051068D01*
X0140797Y0051223D01*
X0140767Y0051379D01*
X0140741Y0051535D01*
X0140720Y0051692D01*
X0140702Y0051849D01*
X0140688Y0052007D01*
X0140678Y0052165D01*
X0140672Y0052323D01*
X0140670Y0052481D01*
X0176103Y0099725D02*
X0176105Y0099883D01*
X0176111Y0100041D01*
X0176121Y0100199D01*
X0176135Y0100357D01*
X0176153Y0100514D01*
X0176174Y0100671D01*
X0176200Y0100827D01*
X0176230Y0100983D01*
X0176263Y0101138D01*
X0176301Y0101291D01*
X0176342Y0101444D01*
X0176387Y0101596D01*
X0176436Y0101747D01*
X0176489Y0101896D01*
X0176545Y0102044D01*
X0176605Y0102190D01*
X0176669Y0102335D01*
X0176737Y0102478D01*
X0176808Y0102620D01*
X0176882Y0102760D01*
X0176960Y0102897D01*
X0177042Y0103033D01*
X0177126Y0103167D01*
X0177215Y0103298D01*
X0177306Y0103427D01*
X0177401Y0103554D01*
X0177498Y0103679D01*
X0177599Y0103801D01*
X0177703Y0103920D01*
X0177810Y0104037D01*
X0177920Y0104151D01*
X0178033Y0104262D01*
X0178148Y0104371D01*
X0178266Y0104476D01*
X0178387Y0104578D01*
X0178510Y0104678D01*
X0178636Y0104774D01*
X0178764Y0104867D01*
X0178894Y0104957D01*
X0179027Y0105043D01*
X0179162Y0105127D01*
X0179298Y0105206D01*
X0179437Y0105283D01*
X0179578Y0105355D01*
X0179720Y0105425D01*
X0179864Y0105490D01*
X0180010Y0105552D01*
X0180157Y0105610D01*
X0180306Y0105665D01*
X0180456Y0105716D01*
X0180607Y0105763D01*
X0180759Y0105806D01*
X0180912Y0105845D01*
X0181067Y0105881D01*
X0181222Y0105912D01*
X0181378Y0105940D01*
X0181534Y0105964D01*
X0181691Y0105984D01*
X0181849Y0106000D01*
X0182006Y0106012D01*
X0182165Y0106020D01*
X0182323Y0106024D01*
X0182481Y0106024D01*
X0182639Y0106020D01*
X0182798Y0106012D01*
X0182955Y0106000D01*
X0183113Y0105984D01*
X0183270Y0105964D01*
X0183426Y0105940D01*
X0183582Y0105912D01*
X0183737Y0105881D01*
X0183892Y0105845D01*
X0184045Y0105806D01*
X0184197Y0105763D01*
X0184348Y0105716D01*
X0184498Y0105665D01*
X0184647Y0105610D01*
X0184794Y0105552D01*
X0184940Y0105490D01*
X0185084Y0105425D01*
X0185226Y0105355D01*
X0185367Y0105283D01*
X0185506Y0105206D01*
X0185642Y0105127D01*
X0185777Y0105043D01*
X0185910Y0104957D01*
X0186040Y0104867D01*
X0186168Y0104774D01*
X0186294Y0104678D01*
X0186417Y0104578D01*
X0186538Y0104476D01*
X0186656Y0104371D01*
X0186771Y0104262D01*
X0186884Y0104151D01*
X0186994Y0104037D01*
X0187101Y0103920D01*
X0187205Y0103801D01*
X0187306Y0103679D01*
X0187403Y0103554D01*
X0187498Y0103427D01*
X0187589Y0103298D01*
X0187678Y0103167D01*
X0187762Y0103033D01*
X0187844Y0102897D01*
X0187922Y0102760D01*
X0187996Y0102620D01*
X0188067Y0102478D01*
X0188135Y0102335D01*
X0188199Y0102190D01*
X0188259Y0102044D01*
X0188315Y0101896D01*
X0188368Y0101747D01*
X0188417Y0101596D01*
X0188462Y0101444D01*
X0188503Y0101291D01*
X0188541Y0101138D01*
X0188574Y0100983D01*
X0188604Y0100827D01*
X0188630Y0100671D01*
X0188651Y0100514D01*
X0188669Y0100357D01*
X0188683Y0100199D01*
X0188693Y0100041D01*
X0188699Y0099883D01*
X0188701Y0099725D01*
X0188699Y0099567D01*
X0188693Y0099409D01*
X0188683Y0099251D01*
X0188669Y0099093D01*
X0188651Y0098936D01*
X0188630Y0098779D01*
X0188604Y0098623D01*
X0188574Y0098467D01*
X0188541Y0098312D01*
X0188503Y0098159D01*
X0188462Y0098006D01*
X0188417Y0097854D01*
X0188368Y0097703D01*
X0188315Y0097554D01*
X0188259Y0097406D01*
X0188199Y0097260D01*
X0188135Y0097115D01*
X0188067Y0096972D01*
X0187996Y0096830D01*
X0187922Y0096690D01*
X0187844Y0096553D01*
X0187762Y0096417D01*
X0187678Y0096283D01*
X0187589Y0096152D01*
X0187498Y0096023D01*
X0187403Y0095896D01*
X0187306Y0095771D01*
X0187205Y0095649D01*
X0187101Y0095530D01*
X0186994Y0095413D01*
X0186884Y0095299D01*
X0186771Y0095188D01*
X0186656Y0095079D01*
X0186538Y0094974D01*
X0186417Y0094872D01*
X0186294Y0094772D01*
X0186168Y0094676D01*
X0186040Y0094583D01*
X0185910Y0094493D01*
X0185777Y0094407D01*
X0185642Y0094323D01*
X0185506Y0094244D01*
X0185367Y0094167D01*
X0185226Y0094095D01*
X0185084Y0094025D01*
X0184940Y0093960D01*
X0184794Y0093898D01*
X0184647Y0093840D01*
X0184498Y0093785D01*
X0184348Y0093734D01*
X0184197Y0093687D01*
X0184045Y0093644D01*
X0183892Y0093605D01*
X0183737Y0093569D01*
X0183582Y0093538D01*
X0183426Y0093510D01*
X0183270Y0093486D01*
X0183113Y0093466D01*
X0182955Y0093450D01*
X0182798Y0093438D01*
X0182639Y0093430D01*
X0182481Y0093426D01*
X0182323Y0093426D01*
X0182165Y0093430D01*
X0182006Y0093438D01*
X0181849Y0093450D01*
X0181691Y0093466D01*
X0181534Y0093486D01*
X0181378Y0093510D01*
X0181222Y0093538D01*
X0181067Y0093569D01*
X0180912Y0093605D01*
X0180759Y0093644D01*
X0180607Y0093687D01*
X0180456Y0093734D01*
X0180306Y0093785D01*
X0180157Y0093840D01*
X0180010Y0093898D01*
X0179864Y0093960D01*
X0179720Y0094025D01*
X0179578Y0094095D01*
X0179437Y0094167D01*
X0179298Y0094244D01*
X0179162Y0094323D01*
X0179027Y0094407D01*
X0178894Y0094493D01*
X0178764Y0094583D01*
X0178636Y0094676D01*
X0178510Y0094772D01*
X0178387Y0094872D01*
X0178266Y0094974D01*
X0178148Y0095079D01*
X0178033Y0095188D01*
X0177920Y0095299D01*
X0177810Y0095413D01*
X0177703Y0095530D01*
X0177599Y0095649D01*
X0177498Y0095771D01*
X0177401Y0095896D01*
X0177306Y0096023D01*
X0177215Y0096152D01*
X0177126Y0096283D01*
X0177042Y0096417D01*
X0176960Y0096553D01*
X0176882Y0096690D01*
X0176808Y0096830D01*
X0176737Y0096972D01*
X0176669Y0097115D01*
X0176605Y0097260D01*
X0176545Y0097406D01*
X0176489Y0097554D01*
X0176436Y0097703D01*
X0176387Y0097854D01*
X0176342Y0098006D01*
X0176301Y0098159D01*
X0176263Y0098312D01*
X0176230Y0098467D01*
X0176200Y0098623D01*
X0176174Y0098779D01*
X0176153Y0098936D01*
X0176135Y0099093D01*
X0176121Y0099251D01*
X0176111Y0099409D01*
X0176105Y0099567D01*
X0176103Y0099725D01*
X0140670Y0146969D02*
X0140672Y0147127D01*
X0140678Y0147285D01*
X0140688Y0147443D01*
X0140702Y0147601D01*
X0140720Y0147758D01*
X0140741Y0147915D01*
X0140767Y0148071D01*
X0140797Y0148227D01*
X0140830Y0148382D01*
X0140868Y0148535D01*
X0140909Y0148688D01*
X0140954Y0148840D01*
X0141003Y0148991D01*
X0141056Y0149140D01*
X0141112Y0149288D01*
X0141172Y0149434D01*
X0141236Y0149579D01*
X0141304Y0149722D01*
X0141375Y0149864D01*
X0141449Y0150004D01*
X0141527Y0150141D01*
X0141609Y0150277D01*
X0141693Y0150411D01*
X0141782Y0150542D01*
X0141873Y0150671D01*
X0141968Y0150798D01*
X0142065Y0150923D01*
X0142166Y0151045D01*
X0142270Y0151164D01*
X0142377Y0151281D01*
X0142487Y0151395D01*
X0142600Y0151506D01*
X0142715Y0151615D01*
X0142833Y0151720D01*
X0142954Y0151822D01*
X0143077Y0151922D01*
X0143203Y0152018D01*
X0143331Y0152111D01*
X0143461Y0152201D01*
X0143594Y0152287D01*
X0143729Y0152371D01*
X0143865Y0152450D01*
X0144004Y0152527D01*
X0144145Y0152599D01*
X0144287Y0152669D01*
X0144431Y0152734D01*
X0144577Y0152796D01*
X0144724Y0152854D01*
X0144873Y0152909D01*
X0145023Y0152960D01*
X0145174Y0153007D01*
X0145326Y0153050D01*
X0145479Y0153089D01*
X0145634Y0153125D01*
X0145789Y0153156D01*
X0145945Y0153184D01*
X0146101Y0153208D01*
X0146258Y0153228D01*
X0146416Y0153244D01*
X0146573Y0153256D01*
X0146732Y0153264D01*
X0146890Y0153268D01*
X0147048Y0153268D01*
X0147206Y0153264D01*
X0147365Y0153256D01*
X0147522Y0153244D01*
X0147680Y0153228D01*
X0147837Y0153208D01*
X0147993Y0153184D01*
X0148149Y0153156D01*
X0148304Y0153125D01*
X0148459Y0153089D01*
X0148612Y0153050D01*
X0148764Y0153007D01*
X0148915Y0152960D01*
X0149065Y0152909D01*
X0149214Y0152854D01*
X0149361Y0152796D01*
X0149507Y0152734D01*
X0149651Y0152669D01*
X0149793Y0152599D01*
X0149934Y0152527D01*
X0150073Y0152450D01*
X0150209Y0152371D01*
X0150344Y0152287D01*
X0150477Y0152201D01*
X0150607Y0152111D01*
X0150735Y0152018D01*
X0150861Y0151922D01*
X0150984Y0151822D01*
X0151105Y0151720D01*
X0151223Y0151615D01*
X0151338Y0151506D01*
X0151451Y0151395D01*
X0151561Y0151281D01*
X0151668Y0151164D01*
X0151772Y0151045D01*
X0151873Y0150923D01*
X0151970Y0150798D01*
X0152065Y0150671D01*
X0152156Y0150542D01*
X0152245Y0150411D01*
X0152329Y0150277D01*
X0152411Y0150141D01*
X0152489Y0150004D01*
X0152563Y0149864D01*
X0152634Y0149722D01*
X0152702Y0149579D01*
X0152766Y0149434D01*
X0152826Y0149288D01*
X0152882Y0149140D01*
X0152935Y0148991D01*
X0152984Y0148840D01*
X0153029Y0148688D01*
X0153070Y0148535D01*
X0153108Y0148382D01*
X0153141Y0148227D01*
X0153171Y0148071D01*
X0153197Y0147915D01*
X0153218Y0147758D01*
X0153236Y0147601D01*
X0153250Y0147443D01*
X0153260Y0147285D01*
X0153266Y0147127D01*
X0153268Y0146969D01*
X0153266Y0146811D01*
X0153260Y0146653D01*
X0153250Y0146495D01*
X0153236Y0146337D01*
X0153218Y0146180D01*
X0153197Y0146023D01*
X0153171Y0145867D01*
X0153141Y0145711D01*
X0153108Y0145556D01*
X0153070Y0145403D01*
X0153029Y0145250D01*
X0152984Y0145098D01*
X0152935Y0144947D01*
X0152882Y0144798D01*
X0152826Y0144650D01*
X0152766Y0144504D01*
X0152702Y0144359D01*
X0152634Y0144216D01*
X0152563Y0144074D01*
X0152489Y0143934D01*
X0152411Y0143797D01*
X0152329Y0143661D01*
X0152245Y0143527D01*
X0152156Y0143396D01*
X0152065Y0143267D01*
X0151970Y0143140D01*
X0151873Y0143015D01*
X0151772Y0142893D01*
X0151668Y0142774D01*
X0151561Y0142657D01*
X0151451Y0142543D01*
X0151338Y0142432D01*
X0151223Y0142323D01*
X0151105Y0142218D01*
X0150984Y0142116D01*
X0150861Y0142016D01*
X0150735Y0141920D01*
X0150607Y0141827D01*
X0150477Y0141737D01*
X0150344Y0141651D01*
X0150209Y0141567D01*
X0150073Y0141488D01*
X0149934Y0141411D01*
X0149793Y0141339D01*
X0149651Y0141269D01*
X0149507Y0141204D01*
X0149361Y0141142D01*
X0149214Y0141084D01*
X0149065Y0141029D01*
X0148915Y0140978D01*
X0148764Y0140931D01*
X0148612Y0140888D01*
X0148459Y0140849D01*
X0148304Y0140813D01*
X0148149Y0140782D01*
X0147993Y0140754D01*
X0147837Y0140730D01*
X0147680Y0140710D01*
X0147522Y0140694D01*
X0147365Y0140682D01*
X0147206Y0140674D01*
X0147048Y0140670D01*
X0146890Y0140670D01*
X0146732Y0140674D01*
X0146573Y0140682D01*
X0146416Y0140694D01*
X0146258Y0140710D01*
X0146101Y0140730D01*
X0145945Y0140754D01*
X0145789Y0140782D01*
X0145634Y0140813D01*
X0145479Y0140849D01*
X0145326Y0140888D01*
X0145174Y0140931D01*
X0145023Y0140978D01*
X0144873Y0141029D01*
X0144724Y0141084D01*
X0144577Y0141142D01*
X0144431Y0141204D01*
X0144287Y0141269D01*
X0144145Y0141339D01*
X0144004Y0141411D01*
X0143865Y0141488D01*
X0143729Y0141567D01*
X0143594Y0141651D01*
X0143461Y0141737D01*
X0143331Y0141827D01*
X0143203Y0141920D01*
X0143077Y0142016D01*
X0142954Y0142116D01*
X0142833Y0142218D01*
X0142715Y0142323D01*
X0142600Y0142432D01*
X0142487Y0142543D01*
X0142377Y0142657D01*
X0142270Y0142774D01*
X0142166Y0142893D01*
X0142065Y0143015D01*
X0141968Y0143140D01*
X0141873Y0143267D01*
X0141782Y0143396D01*
X0141693Y0143527D01*
X0141609Y0143661D01*
X0141527Y0143797D01*
X0141449Y0143934D01*
X0141375Y0144074D01*
X0141304Y0144216D01*
X0141236Y0144359D01*
X0141172Y0144504D01*
X0141112Y0144650D01*
X0141056Y0144798D01*
X0141003Y0144947D01*
X0140954Y0145098D01*
X0140909Y0145250D01*
X0140868Y0145403D01*
X0140830Y0145556D01*
X0140797Y0145711D01*
X0140767Y0145867D01*
X0140741Y0146023D01*
X0140720Y0146180D01*
X0140702Y0146337D01*
X0140688Y0146495D01*
X0140678Y0146653D01*
X0140672Y0146811D01*
X0140670Y0146969D01*
X0093426Y0182402D02*
X0093428Y0182560D01*
X0093434Y0182718D01*
X0093444Y0182876D01*
X0093458Y0183034D01*
X0093476Y0183191D01*
X0093497Y0183348D01*
X0093523Y0183504D01*
X0093553Y0183660D01*
X0093586Y0183815D01*
X0093624Y0183968D01*
X0093665Y0184121D01*
X0093710Y0184273D01*
X0093759Y0184424D01*
X0093812Y0184573D01*
X0093868Y0184721D01*
X0093928Y0184867D01*
X0093992Y0185012D01*
X0094060Y0185155D01*
X0094131Y0185297D01*
X0094205Y0185437D01*
X0094283Y0185574D01*
X0094365Y0185710D01*
X0094449Y0185844D01*
X0094538Y0185975D01*
X0094629Y0186104D01*
X0094724Y0186231D01*
X0094821Y0186356D01*
X0094922Y0186478D01*
X0095026Y0186597D01*
X0095133Y0186714D01*
X0095243Y0186828D01*
X0095356Y0186939D01*
X0095471Y0187048D01*
X0095589Y0187153D01*
X0095710Y0187255D01*
X0095833Y0187355D01*
X0095959Y0187451D01*
X0096087Y0187544D01*
X0096217Y0187634D01*
X0096350Y0187720D01*
X0096485Y0187804D01*
X0096621Y0187883D01*
X0096760Y0187960D01*
X0096901Y0188032D01*
X0097043Y0188102D01*
X0097187Y0188167D01*
X0097333Y0188229D01*
X0097480Y0188287D01*
X0097629Y0188342D01*
X0097779Y0188393D01*
X0097930Y0188440D01*
X0098082Y0188483D01*
X0098235Y0188522D01*
X0098390Y0188558D01*
X0098545Y0188589D01*
X0098701Y0188617D01*
X0098857Y0188641D01*
X0099014Y0188661D01*
X0099172Y0188677D01*
X0099329Y0188689D01*
X0099488Y0188697D01*
X0099646Y0188701D01*
X0099804Y0188701D01*
X0099962Y0188697D01*
X0100121Y0188689D01*
X0100278Y0188677D01*
X0100436Y0188661D01*
X0100593Y0188641D01*
X0100749Y0188617D01*
X0100905Y0188589D01*
X0101060Y0188558D01*
X0101215Y0188522D01*
X0101368Y0188483D01*
X0101520Y0188440D01*
X0101671Y0188393D01*
X0101821Y0188342D01*
X0101970Y0188287D01*
X0102117Y0188229D01*
X0102263Y0188167D01*
X0102407Y0188102D01*
X0102549Y0188032D01*
X0102690Y0187960D01*
X0102829Y0187883D01*
X0102965Y0187804D01*
X0103100Y0187720D01*
X0103233Y0187634D01*
X0103363Y0187544D01*
X0103491Y0187451D01*
X0103617Y0187355D01*
X0103740Y0187255D01*
X0103861Y0187153D01*
X0103979Y0187048D01*
X0104094Y0186939D01*
X0104207Y0186828D01*
X0104317Y0186714D01*
X0104424Y0186597D01*
X0104528Y0186478D01*
X0104629Y0186356D01*
X0104726Y0186231D01*
X0104821Y0186104D01*
X0104912Y0185975D01*
X0105001Y0185844D01*
X0105085Y0185710D01*
X0105167Y0185574D01*
X0105245Y0185437D01*
X0105319Y0185297D01*
X0105390Y0185155D01*
X0105458Y0185012D01*
X0105522Y0184867D01*
X0105582Y0184721D01*
X0105638Y0184573D01*
X0105691Y0184424D01*
X0105740Y0184273D01*
X0105785Y0184121D01*
X0105826Y0183968D01*
X0105864Y0183815D01*
X0105897Y0183660D01*
X0105927Y0183504D01*
X0105953Y0183348D01*
X0105974Y0183191D01*
X0105992Y0183034D01*
X0106006Y0182876D01*
X0106016Y0182718D01*
X0106022Y0182560D01*
X0106024Y0182402D01*
X0106022Y0182244D01*
X0106016Y0182086D01*
X0106006Y0181928D01*
X0105992Y0181770D01*
X0105974Y0181613D01*
X0105953Y0181456D01*
X0105927Y0181300D01*
X0105897Y0181144D01*
X0105864Y0180989D01*
X0105826Y0180836D01*
X0105785Y0180683D01*
X0105740Y0180531D01*
X0105691Y0180380D01*
X0105638Y0180231D01*
X0105582Y0180083D01*
X0105522Y0179937D01*
X0105458Y0179792D01*
X0105390Y0179649D01*
X0105319Y0179507D01*
X0105245Y0179367D01*
X0105167Y0179230D01*
X0105085Y0179094D01*
X0105001Y0178960D01*
X0104912Y0178829D01*
X0104821Y0178700D01*
X0104726Y0178573D01*
X0104629Y0178448D01*
X0104528Y0178326D01*
X0104424Y0178207D01*
X0104317Y0178090D01*
X0104207Y0177976D01*
X0104094Y0177865D01*
X0103979Y0177756D01*
X0103861Y0177651D01*
X0103740Y0177549D01*
X0103617Y0177449D01*
X0103491Y0177353D01*
X0103363Y0177260D01*
X0103233Y0177170D01*
X0103100Y0177084D01*
X0102965Y0177000D01*
X0102829Y0176921D01*
X0102690Y0176844D01*
X0102549Y0176772D01*
X0102407Y0176702D01*
X0102263Y0176637D01*
X0102117Y0176575D01*
X0101970Y0176517D01*
X0101821Y0176462D01*
X0101671Y0176411D01*
X0101520Y0176364D01*
X0101368Y0176321D01*
X0101215Y0176282D01*
X0101060Y0176246D01*
X0100905Y0176215D01*
X0100749Y0176187D01*
X0100593Y0176163D01*
X0100436Y0176143D01*
X0100278Y0176127D01*
X0100121Y0176115D01*
X0099962Y0176107D01*
X0099804Y0176103D01*
X0099646Y0176103D01*
X0099488Y0176107D01*
X0099329Y0176115D01*
X0099172Y0176127D01*
X0099014Y0176143D01*
X0098857Y0176163D01*
X0098701Y0176187D01*
X0098545Y0176215D01*
X0098390Y0176246D01*
X0098235Y0176282D01*
X0098082Y0176321D01*
X0097930Y0176364D01*
X0097779Y0176411D01*
X0097629Y0176462D01*
X0097480Y0176517D01*
X0097333Y0176575D01*
X0097187Y0176637D01*
X0097043Y0176702D01*
X0096901Y0176772D01*
X0096760Y0176844D01*
X0096621Y0176921D01*
X0096485Y0177000D01*
X0096350Y0177084D01*
X0096217Y0177170D01*
X0096087Y0177260D01*
X0095959Y0177353D01*
X0095833Y0177449D01*
X0095710Y0177549D01*
X0095589Y0177651D01*
X0095471Y0177756D01*
X0095356Y0177865D01*
X0095243Y0177976D01*
X0095133Y0178090D01*
X0095026Y0178207D01*
X0094922Y0178326D01*
X0094821Y0178448D01*
X0094724Y0178573D01*
X0094629Y0178700D01*
X0094538Y0178829D01*
X0094449Y0178960D01*
X0094365Y0179094D01*
X0094283Y0179230D01*
X0094205Y0179367D01*
X0094131Y0179507D01*
X0094060Y0179649D01*
X0093992Y0179792D01*
X0093928Y0179937D01*
X0093868Y0180083D01*
X0093812Y0180231D01*
X0093759Y0180380D01*
X0093710Y0180531D01*
X0093665Y0180683D01*
X0093624Y0180836D01*
X0093586Y0180989D01*
X0093553Y0181144D01*
X0093523Y0181300D01*
X0093497Y0181456D01*
X0093476Y0181613D01*
X0093458Y0181770D01*
X0093444Y0181928D01*
X0093434Y0182086D01*
X0093428Y0182244D01*
X0093426Y0182402D01*
X0046182Y0146969D02*
X0046184Y0147127D01*
X0046190Y0147285D01*
X0046200Y0147443D01*
X0046214Y0147601D01*
X0046232Y0147758D01*
X0046253Y0147915D01*
X0046279Y0148071D01*
X0046309Y0148227D01*
X0046342Y0148382D01*
X0046380Y0148535D01*
X0046421Y0148688D01*
X0046466Y0148840D01*
X0046515Y0148991D01*
X0046568Y0149140D01*
X0046624Y0149288D01*
X0046684Y0149434D01*
X0046748Y0149579D01*
X0046816Y0149722D01*
X0046887Y0149864D01*
X0046961Y0150004D01*
X0047039Y0150141D01*
X0047121Y0150277D01*
X0047205Y0150411D01*
X0047294Y0150542D01*
X0047385Y0150671D01*
X0047480Y0150798D01*
X0047577Y0150923D01*
X0047678Y0151045D01*
X0047782Y0151164D01*
X0047889Y0151281D01*
X0047999Y0151395D01*
X0048112Y0151506D01*
X0048227Y0151615D01*
X0048345Y0151720D01*
X0048466Y0151822D01*
X0048589Y0151922D01*
X0048715Y0152018D01*
X0048843Y0152111D01*
X0048973Y0152201D01*
X0049106Y0152287D01*
X0049241Y0152371D01*
X0049377Y0152450D01*
X0049516Y0152527D01*
X0049657Y0152599D01*
X0049799Y0152669D01*
X0049943Y0152734D01*
X0050089Y0152796D01*
X0050236Y0152854D01*
X0050385Y0152909D01*
X0050535Y0152960D01*
X0050686Y0153007D01*
X0050838Y0153050D01*
X0050991Y0153089D01*
X0051146Y0153125D01*
X0051301Y0153156D01*
X0051457Y0153184D01*
X0051613Y0153208D01*
X0051770Y0153228D01*
X0051928Y0153244D01*
X0052085Y0153256D01*
X0052244Y0153264D01*
X0052402Y0153268D01*
X0052560Y0153268D01*
X0052718Y0153264D01*
X0052877Y0153256D01*
X0053034Y0153244D01*
X0053192Y0153228D01*
X0053349Y0153208D01*
X0053505Y0153184D01*
X0053661Y0153156D01*
X0053816Y0153125D01*
X0053971Y0153089D01*
X0054124Y0153050D01*
X0054276Y0153007D01*
X0054427Y0152960D01*
X0054577Y0152909D01*
X0054726Y0152854D01*
X0054873Y0152796D01*
X0055019Y0152734D01*
X0055163Y0152669D01*
X0055305Y0152599D01*
X0055446Y0152527D01*
X0055585Y0152450D01*
X0055721Y0152371D01*
X0055856Y0152287D01*
X0055989Y0152201D01*
X0056119Y0152111D01*
X0056247Y0152018D01*
X0056373Y0151922D01*
X0056496Y0151822D01*
X0056617Y0151720D01*
X0056735Y0151615D01*
X0056850Y0151506D01*
X0056963Y0151395D01*
X0057073Y0151281D01*
X0057180Y0151164D01*
X0057284Y0151045D01*
X0057385Y0150923D01*
X0057482Y0150798D01*
X0057577Y0150671D01*
X0057668Y0150542D01*
X0057757Y0150411D01*
X0057841Y0150277D01*
X0057923Y0150141D01*
X0058001Y0150004D01*
X0058075Y0149864D01*
X0058146Y0149722D01*
X0058214Y0149579D01*
X0058278Y0149434D01*
X0058338Y0149288D01*
X0058394Y0149140D01*
X0058447Y0148991D01*
X0058496Y0148840D01*
X0058541Y0148688D01*
X0058582Y0148535D01*
X0058620Y0148382D01*
X0058653Y0148227D01*
X0058683Y0148071D01*
X0058709Y0147915D01*
X0058730Y0147758D01*
X0058748Y0147601D01*
X0058762Y0147443D01*
X0058772Y0147285D01*
X0058778Y0147127D01*
X0058780Y0146969D01*
X0058778Y0146811D01*
X0058772Y0146653D01*
X0058762Y0146495D01*
X0058748Y0146337D01*
X0058730Y0146180D01*
X0058709Y0146023D01*
X0058683Y0145867D01*
X0058653Y0145711D01*
X0058620Y0145556D01*
X0058582Y0145403D01*
X0058541Y0145250D01*
X0058496Y0145098D01*
X0058447Y0144947D01*
X0058394Y0144798D01*
X0058338Y0144650D01*
X0058278Y0144504D01*
X0058214Y0144359D01*
X0058146Y0144216D01*
X0058075Y0144074D01*
X0058001Y0143934D01*
X0057923Y0143797D01*
X0057841Y0143661D01*
X0057757Y0143527D01*
X0057668Y0143396D01*
X0057577Y0143267D01*
X0057482Y0143140D01*
X0057385Y0143015D01*
X0057284Y0142893D01*
X0057180Y0142774D01*
X0057073Y0142657D01*
X0056963Y0142543D01*
X0056850Y0142432D01*
X0056735Y0142323D01*
X0056617Y0142218D01*
X0056496Y0142116D01*
X0056373Y0142016D01*
X0056247Y0141920D01*
X0056119Y0141827D01*
X0055989Y0141737D01*
X0055856Y0141651D01*
X0055721Y0141567D01*
X0055585Y0141488D01*
X0055446Y0141411D01*
X0055305Y0141339D01*
X0055163Y0141269D01*
X0055019Y0141204D01*
X0054873Y0141142D01*
X0054726Y0141084D01*
X0054577Y0141029D01*
X0054427Y0140978D01*
X0054276Y0140931D01*
X0054124Y0140888D01*
X0053971Y0140849D01*
X0053816Y0140813D01*
X0053661Y0140782D01*
X0053505Y0140754D01*
X0053349Y0140730D01*
X0053192Y0140710D01*
X0053034Y0140694D01*
X0052877Y0140682D01*
X0052718Y0140674D01*
X0052560Y0140670D01*
X0052402Y0140670D01*
X0052244Y0140674D01*
X0052085Y0140682D01*
X0051928Y0140694D01*
X0051770Y0140710D01*
X0051613Y0140730D01*
X0051457Y0140754D01*
X0051301Y0140782D01*
X0051146Y0140813D01*
X0050991Y0140849D01*
X0050838Y0140888D01*
X0050686Y0140931D01*
X0050535Y0140978D01*
X0050385Y0141029D01*
X0050236Y0141084D01*
X0050089Y0141142D01*
X0049943Y0141204D01*
X0049799Y0141269D01*
X0049657Y0141339D01*
X0049516Y0141411D01*
X0049377Y0141488D01*
X0049241Y0141567D01*
X0049106Y0141651D01*
X0048973Y0141737D01*
X0048843Y0141827D01*
X0048715Y0141920D01*
X0048589Y0142016D01*
X0048466Y0142116D01*
X0048345Y0142218D01*
X0048227Y0142323D01*
X0048112Y0142432D01*
X0047999Y0142543D01*
X0047889Y0142657D01*
X0047782Y0142774D01*
X0047678Y0142893D01*
X0047577Y0143015D01*
X0047480Y0143140D01*
X0047385Y0143267D01*
X0047294Y0143396D01*
X0047205Y0143527D01*
X0047121Y0143661D01*
X0047039Y0143797D01*
X0046961Y0143934D01*
X0046887Y0144074D01*
X0046816Y0144216D01*
X0046748Y0144359D01*
X0046684Y0144504D01*
X0046624Y0144650D01*
X0046568Y0144798D01*
X0046515Y0144947D01*
X0046466Y0145098D01*
X0046421Y0145250D01*
X0046380Y0145403D01*
X0046342Y0145556D01*
X0046309Y0145711D01*
X0046279Y0145867D01*
X0046253Y0146023D01*
X0046232Y0146180D01*
X0046214Y0146337D01*
X0046200Y0146495D01*
X0046190Y0146653D01*
X0046184Y0146811D01*
X0046182Y0146969D01*
D12*
X0040670Y0158780D02*
X0040670Y0040670D01*
X0158780Y0040670D01*
X0158780Y0158780D01*
X0040670Y0158780D01*
X0073150Y0126300D02*
X0126300Y0126300D01*
X0126300Y0073150D01*
X0073150Y0073150D01*
X0073150Y0126300D01*
X0105706Y0085696D02*
X0107206Y0085696D01*
X0105706Y0085696D02*
X0105646Y0085694D01*
X0105585Y0085689D01*
X0105526Y0085680D01*
X0105467Y0085667D01*
X0105408Y0085651D01*
X0105351Y0085631D01*
X0105296Y0085608D01*
X0105241Y0085581D01*
X0105189Y0085552D01*
X0105138Y0085519D01*
X0105089Y0085483D01*
X0105043Y0085445D01*
X0104999Y0085403D01*
X0104957Y0085359D01*
X0104919Y0085313D01*
X0104883Y0085264D01*
X0104850Y0085213D01*
X0104821Y0085161D01*
X0104794Y0085106D01*
X0104771Y0085051D01*
X0104751Y0084994D01*
X0104735Y0084935D01*
X0104722Y0084876D01*
X0104713Y0084817D01*
X0104708Y0084756D01*
X0104706Y0084696D01*
X0104706Y0082196D01*
X0104708Y0082136D01*
X0104713Y0082075D01*
X0104722Y0082016D01*
X0104735Y0081957D01*
X0104751Y0081898D01*
X0104771Y0081841D01*
X0104794Y0081786D01*
X0104821Y0081731D01*
X0104850Y0081679D01*
X0104883Y0081628D01*
X0104919Y0081579D01*
X0104957Y0081533D01*
X0104999Y0081489D01*
X0105043Y0081447D01*
X0105089Y0081409D01*
X0105138Y0081373D01*
X0105189Y0081340D01*
X0105241Y0081311D01*
X0105296Y0081284D01*
X0105351Y0081261D01*
X0105408Y0081241D01*
X0105467Y0081225D01*
X0105526Y0081212D01*
X0105585Y0081203D01*
X0105646Y0081198D01*
X0105706Y0081196D01*
X0107206Y0081196D01*
X0107206Y0083696D01*
X0106456Y0083696D01*
X0109581Y0083196D02*
X0110831Y0083196D01*
X0110900Y0083198D01*
X0110969Y0083204D01*
X0111037Y0083213D01*
X0111104Y0083226D01*
X0111171Y0083243D01*
X0111237Y0083264D01*
X0111301Y0083288D01*
X0111364Y0083316D01*
X0111426Y0083347D01*
X0111486Y0083381D01*
X0111543Y0083419D01*
X0111599Y0083460D01*
X0111652Y0083503D01*
X0111703Y0083550D01*
X0111751Y0083599D01*
X0111796Y0083651D01*
X0111838Y0083706D01*
X0111877Y0083762D01*
X0111914Y0083821D01*
X0111946Y0083882D01*
X0111976Y0083944D01*
X0112002Y0084008D01*
X0112024Y0084073D01*
X0112043Y0084139D01*
X0112058Y0084206D01*
X0112069Y0084274D01*
X0112077Y0084343D01*
X0112081Y0084412D01*
X0112081Y0084480D01*
X0112077Y0084549D01*
X0112069Y0084618D01*
X0112058Y0084686D01*
X0112043Y0084753D01*
X0112024Y0084819D01*
X0112002Y0084884D01*
X0111976Y0084948D01*
X0111946Y0085010D01*
X0111914Y0085071D01*
X0111877Y0085130D01*
X0111838Y0085186D01*
X0111796Y0085241D01*
X0111751Y0085293D01*
X0111703Y0085342D01*
X0111652Y0085389D01*
X0111599Y0085432D01*
X0111543Y0085473D01*
X0111486Y0085511D01*
X0111426Y0085545D01*
X0111364Y0085576D01*
X0111301Y0085604D01*
X0111237Y0085628D01*
X0111171Y0085649D01*
X0111104Y0085666D01*
X0111037Y0085679D01*
X0110969Y0085688D01*
X0110900Y0085694D01*
X0110831Y0085696D01*
X0109581Y0085696D01*
X0109581Y0081196D01*
X0114331Y0083821D02*
X0115706Y0083071D01*
X0115206Y0081195D02*
X0115118Y0081197D01*
X0115031Y0081202D01*
X0114943Y0081211D01*
X0114856Y0081224D01*
X0114770Y0081240D01*
X0114685Y0081260D01*
X0114600Y0081284D01*
X0114516Y0081311D01*
X0114434Y0081341D01*
X0114353Y0081375D01*
X0114273Y0081412D01*
X0114195Y0081452D01*
X0114119Y0081496D01*
X0114045Y0081543D01*
X0113973Y0081592D01*
X0113902Y0081645D01*
X0113834Y0081701D01*
X0113769Y0081759D01*
X0113706Y0081820D01*
X0115706Y0083071D02*
X0115758Y0083038D01*
X0115809Y0083002D01*
X0115857Y0082963D01*
X0115902Y0082921D01*
X0115945Y0082876D01*
X0115985Y0082828D01*
X0116022Y0082779D01*
X0116056Y0082727D01*
X0116087Y0082673D01*
X0116115Y0082617D01*
X0116139Y0082560D01*
X0116159Y0082501D01*
X0116176Y0082442D01*
X0116189Y0082381D01*
X0116198Y0082320D01*
X0116204Y0082258D01*
X0116206Y0082196D01*
X0116204Y0082136D01*
X0116199Y0082075D01*
X0116190Y0082016D01*
X0116177Y0081957D01*
X0116161Y0081898D01*
X0116141Y0081841D01*
X0116118Y0081786D01*
X0116091Y0081731D01*
X0116062Y0081679D01*
X0116029Y0081628D01*
X0115993Y0081579D01*
X0115955Y0081533D01*
X0115913Y0081489D01*
X0115869Y0081447D01*
X0115823Y0081409D01*
X0115774Y0081373D01*
X0115723Y0081340D01*
X0115671Y0081311D01*
X0115616Y0081284D01*
X0115561Y0081261D01*
X0115504Y0081241D01*
X0115445Y0081225D01*
X0115386Y0081212D01*
X0115327Y0081203D01*
X0115266Y0081198D01*
X0115206Y0081196D01*
X0115956Y0085321D02*
X0115891Y0085368D01*
X0115823Y0085412D01*
X0115754Y0085453D01*
X0115683Y0085491D01*
X0115611Y0085526D01*
X0115537Y0085558D01*
X0115462Y0085587D01*
X0115386Y0085612D01*
X0115308Y0085634D01*
X0115230Y0085653D01*
X0115151Y0085668D01*
X0115072Y0085680D01*
X0114992Y0085689D01*
X0114911Y0085694D01*
X0114831Y0085696D01*
X0114771Y0085694D01*
X0114710Y0085689D01*
X0114651Y0085680D01*
X0114592Y0085667D01*
X0114533Y0085651D01*
X0114476Y0085631D01*
X0114421Y0085608D01*
X0114366Y0085581D01*
X0114314Y0085552D01*
X0114263Y0085519D01*
X0114214Y0085483D01*
X0114168Y0085445D01*
X0114124Y0085403D01*
X0114082Y0085359D01*
X0114044Y0085313D01*
X0114008Y0085264D01*
X0113975Y0085213D01*
X0113946Y0085161D01*
X0113919Y0085106D01*
X0113896Y0085051D01*
X0113876Y0084994D01*
X0113860Y0084935D01*
X0113847Y0084876D01*
X0113838Y0084817D01*
X0113833Y0084756D01*
X0113831Y0084696D01*
X0113833Y0084634D01*
X0113839Y0084572D01*
X0113848Y0084511D01*
X0113861Y0084450D01*
X0113878Y0084391D01*
X0113898Y0084332D01*
X0113922Y0084275D01*
X0113950Y0084219D01*
X0113981Y0084165D01*
X0114015Y0084113D01*
X0114052Y0084064D01*
X0114092Y0084016D01*
X0114135Y0083971D01*
X0114180Y0083929D01*
X0114228Y0083890D01*
X0114279Y0083854D01*
X0114331Y0083821D01*
X0117856Y0080696D02*
X0119856Y0080696D01*
X0121406Y0081196D02*
X0124406Y0085696D01*
X0126306Y0085696D02*
X0126306Y0081196D01*
X0124406Y0081196D02*
X0121406Y0085696D01*
X0126306Y0083696D02*
X0128806Y0083696D01*
X0128806Y0085696D02*
X0128806Y0081196D01*
M02*
