%
M48
M72
T01C0.01378
T02C0.02165
T03C0.02362
T04C0.03000
T05C0.03150
T06C0.03937
T07C0.04000
T08C0.04400
T09C0.05000
T10C0.11811
%
T01
X81600Y135900
X94811Y139769
X100200Y135000
X110000Y135700
X112300Y131500
X114700Y137678
X134600Y173600
X157878Y174944
X283300Y109400
X121300Y200400
X191600Y76300
X179400Y88700
X166797Y94472
X129000Y92500
X86100Y86900
T02
X93085Y80135
X90900Y75500
X106600Y78300
X106500Y99900
X84900Y104500
X56300Y119100
X55847Y126647
X55800Y133600
X68459Y155004
X105000Y166700
X108900Y152200
X137300Y143400
X232300Y222400
X222800Y203400
X214800Y194900
X210000Y190300
X205800Y213400
X178300Y234400
X167500Y246200
X165500Y252500
X166300Y260900
X166300Y295400
X164300Y310400
X170300Y315900
X111300Y289400
X91400Y277100
X98200Y265600
X70900Y243300
X62800Y249900
X69800Y263900
X65000Y265100
X72000Y272700
X97600Y235900
X112300Y239900
X134800Y251400
X154900Y235800
X151600Y210700
X134300Y199400
X122300Y208900
X114300Y211400
X101800Y201400
X109300Y187400
X244800Y137400
X235800Y131900
X239300Y121900
X215300Y131900
X190300Y150400
X182900Y156300
X179800Y130900
X196262Y91900
X201300Y89900
X147800Y46400
X163700Y27000
X176200Y37700
X173100Y41700
X196300Y42700
X195662Y48700
X141639Y85239
X70500Y66600
X167300Y183900
X174300Y201400
X196800Y248100
X283300Y76400
T03
X256517Y132473
X251517Y141133
X246517Y149794
X241517Y158454
X236517Y167114
X231517Y175774
X226517Y184435
X221517Y193095
X216517Y201755
X211517Y210415
X206517Y219076
X201517Y227736
X196517Y236396
X191517Y245056
X186517Y253717
X134555Y223717
X139555Y215056
X144555Y206396
X149555Y197736
X154555Y189076
X159555Y180415
X164555Y171755
X286800Y217900
X189555Y128454
X194555Y119794
X199555Y111133
X204555Y102473
X184555Y137114
X179555Y145774
X174555Y154435
X169555Y163095
X138427Y78461
X132000Y70801
X84804Y123457
X78376Y115796
T04
X305556Y204570
X302136Y213967
X298716Y223364
T05
X164148Y108452
X159148Y117112
X154148Y125772
X149148Y134433
X144148Y143093
X139148Y151753
X134148Y160413
X129148Y169074
X124148Y177734
X119148Y186394
X114148Y195054
X109148Y203715
X104148Y212375
X99148Y221035
X110309Y221705
X118969Y226705
X127629Y231705
X136289Y236705
X144950Y241705
X151110Y251035
X156110Y242375
X161110Y233715
X166110Y225054
X171110Y216394
X176110Y207734
X181110Y199074
X186110Y190413
X191110Y181753
X196110Y173093
X201110Y164433
X206110Y155772
X211110Y147112
X216110Y138452
X207450Y133452
X172809Y113452
X64722Y275769
X72382Y282196
X80043Y288624
X187039Y289892
X195700Y294892
X210700Y268912
X202039Y263912
T06
X101076Y93652
X115401Y81632
X188554Y35395
X194950Y17822
X221587Y27517
X215191Y45090
X82855Y71938
X97181Y59917
T07
X61558Y64638
X69218Y58210
X76879Y51782
X84539Y45355
X92200Y38927
X99860Y32499
X107521Y26071
X127805Y26433
X137498Y24724
X147191Y23015
X156884Y21306
X166577Y19596
X157550Y94683
X152550Y103343
X147550Y112003
X142550Y120663
X137550Y129324
X238625Y293835
X229353Y297581
X220081Y301327
X210810Y305073
X201538Y308819
X192266Y312565
X135585Y309625
X145332Y310995
X155078Y312365
X110539Y304869
X101619Y300709
X92699Y296549
X56538Y269526
X51843Y260696
X47148Y251867
X42454Y243037
X37759Y234208
X33064Y225378
X28370Y216549
X23675Y207719
X18342Y132199
X21763Y122803
X25183Y113406
X28603Y104009
X32023Y94612
X38577Y83922
X46237Y77494
X53898Y71066
X304995Y121068
X300768Y112004
X296542Y102941
X292316Y93878
X288090Y84815
T08
X153157Y292518
X118516Y272518
T09
X260698Y269905
X280435Y250894
T10
X273536Y165900
X163300Y276136
X89508Y246332
X61340Y193355
X53064Y165900
X163300Y55664
M30
