G75*
%MOIN*%
%OFA0B0*%
%FSLAX25Y25*%
%IPPOS*%
%LPD*%
%AMOC8*
5,1,8,0,0,1.08239X$1,22.5*
%
%ADD10C,0.00600*%
%ADD11C,0.00000*%
%ADD12C,0.00500*%
%ADD13R,0.00591X0.01181*%
%ADD14R,0.01181X0.01181*%
%ADD15C,0.00400*%
D10*
X0056429Y0062415D02*
X0060259Y0059201D01*
X0063781Y0059509D01*
X0064089Y0055987D01*
X0067920Y0052773D01*
X0071442Y0053081D01*
X0071750Y0049559D01*
X0075580Y0046345D01*
X0079102Y0046653D01*
X0079410Y0043131D01*
X0083241Y0039917D01*
X0086763Y0040225D01*
X0087071Y0036703D01*
X0090901Y0033489D01*
X0094423Y0033798D01*
X0094731Y0030276D01*
X0098561Y0027062D01*
X0102083Y0027370D01*
X0102392Y0023848D01*
X0106222Y0020634D01*
X0109744Y0020942D01*
X0112958Y0024772D01*
X0112650Y0028294D01*
X0108819Y0031508D01*
X0105297Y0031200D01*
X0104989Y0034722D01*
X0101159Y0037936D01*
X0097637Y0037628D01*
X0094423Y0033798D01*
X0097637Y0037628D02*
X0097329Y0041150D01*
X0093499Y0044364D01*
X0089977Y0044056D01*
X0089668Y0047578D01*
X0085838Y0050792D01*
X0082316Y0050484D01*
X0082008Y0054006D01*
X0078178Y0057220D01*
X0074656Y0056911D01*
X0071442Y0053081D01*
X0074656Y0056911D02*
X0074347Y0060434D01*
X0070517Y0063647D01*
X0066995Y0063339D01*
X0066687Y0066861D01*
X0062857Y0070075D01*
X0059335Y0069767D01*
X0059027Y0073289D01*
X0055196Y0076503D01*
X0051674Y0076195D01*
X0048460Y0072365D01*
X0048769Y0068843D01*
X0052599Y0065629D01*
X0056121Y0065937D01*
X0056429Y0062415D01*
X0056121Y0065937D02*
X0059335Y0069767D01*
X0066995Y0063339D02*
X0063781Y0059509D01*
X0048460Y0072365D02*
X0044938Y0072057D01*
X0041108Y0075271D01*
X0040800Y0078793D01*
X0037278Y0078485D01*
X0033448Y0081699D01*
X0033139Y0085221D01*
X0036353Y0089051D01*
X0039875Y0089359D01*
X0043706Y0086145D01*
X0044014Y0082623D01*
X0040800Y0078793D01*
X0044014Y0082623D02*
X0047536Y0082931D01*
X0051366Y0079717D01*
X0051674Y0076195D01*
X0036083Y0090768D02*
X0037577Y0093973D01*
X0035867Y0098671D01*
X0032662Y0100165D01*
X0034156Y0103370D01*
X0032446Y0108068D01*
X0029242Y0109562D01*
X0030736Y0112766D01*
X0029026Y0117465D01*
X0025822Y0118959D01*
X0027316Y0122163D01*
X0025606Y0126862D01*
X0022402Y0128356D01*
X0023896Y0131560D01*
X0022186Y0136259D01*
X0018981Y0137753D01*
X0014283Y0136043D01*
X0012789Y0132839D01*
X0014499Y0128140D01*
X0017703Y0126646D01*
X0016209Y0123442D01*
X0017919Y0118743D01*
X0021123Y0117249D01*
X0025822Y0118959D01*
X0021123Y0117249D02*
X0019629Y0114045D01*
X0021339Y0109346D01*
X0024544Y0107852D01*
X0023049Y0104648D01*
X0024760Y0099949D01*
X0027964Y0098455D01*
X0026470Y0095251D01*
X0028180Y0090552D01*
X0031384Y0089058D01*
X0036083Y0090768D01*
X0032662Y0100165D02*
X0027964Y0098455D01*
X0024544Y0107852D02*
X0029242Y0109562D01*
X0022402Y0128356D02*
X0017703Y0126646D01*
X0005820Y0134404D02*
X0005822Y0134594D01*
X0005829Y0134784D01*
X0005841Y0134974D01*
X0005857Y0135164D01*
X0005877Y0135353D01*
X0005903Y0135542D01*
X0005932Y0135730D01*
X0005967Y0135917D01*
X0006006Y0136103D01*
X0006049Y0136288D01*
X0006097Y0136473D01*
X0006149Y0136656D01*
X0006205Y0136837D01*
X0006266Y0137017D01*
X0006332Y0137196D01*
X0006401Y0137373D01*
X0006475Y0137549D01*
X0006553Y0137722D01*
X0006636Y0137894D01*
X0006722Y0138063D01*
X0006812Y0138231D01*
X0006907Y0138396D01*
X0007005Y0138559D01*
X0007108Y0138719D01*
X0007214Y0138877D01*
X0007324Y0139032D01*
X0007437Y0139185D01*
X0007555Y0139335D01*
X0007676Y0139481D01*
X0007800Y0139625D01*
X0007928Y0139766D01*
X0008059Y0139904D01*
X0008194Y0140039D01*
X0008332Y0140170D01*
X0008473Y0140298D01*
X0008617Y0140422D01*
X0008763Y0140543D01*
X0008913Y0140661D01*
X0009066Y0140774D01*
X0009221Y0140884D01*
X0009379Y0140990D01*
X0009539Y0141093D01*
X0009702Y0141191D01*
X0009867Y0141286D01*
X0010035Y0141376D01*
X0010204Y0141462D01*
X0010376Y0141545D01*
X0010549Y0141623D01*
X0010725Y0141697D01*
X0010902Y0141766D01*
X0011081Y0141832D01*
X0011261Y0141893D01*
X0011442Y0141949D01*
X0011625Y0142001D01*
X0011810Y0142049D01*
X0011995Y0142092D01*
X0012181Y0142131D01*
X0012368Y0142166D01*
X0012556Y0142195D01*
X0012745Y0142221D01*
X0012934Y0142241D01*
X0013124Y0142257D01*
X0013314Y0142269D01*
X0013504Y0142276D01*
X0013694Y0142278D01*
X0033379Y0142278D01*
X0033379Y0142277D02*
X0033531Y0142279D01*
X0033683Y0142285D01*
X0033835Y0142295D01*
X0033986Y0142308D01*
X0034137Y0142326D01*
X0034288Y0142347D01*
X0034438Y0142373D01*
X0034587Y0142402D01*
X0034736Y0142435D01*
X0034883Y0142472D01*
X0035030Y0142512D01*
X0035175Y0142557D01*
X0035319Y0142605D01*
X0035462Y0142657D01*
X0035604Y0142712D01*
X0035744Y0142771D01*
X0035883Y0142834D01*
X0036020Y0142900D01*
X0036155Y0142970D01*
X0036288Y0143043D01*
X0036419Y0143120D01*
X0036549Y0143200D01*
X0036676Y0143283D01*
X0036801Y0143369D01*
X0036924Y0143459D01*
X0037044Y0143552D01*
X0037162Y0143648D01*
X0037278Y0143747D01*
X0037391Y0143849D01*
X0037501Y0143953D01*
X0037609Y0144061D01*
X0037713Y0144171D01*
X0037815Y0144284D01*
X0037914Y0144400D01*
X0038010Y0144518D01*
X0038103Y0144638D01*
X0038193Y0144761D01*
X0038279Y0144886D01*
X0038362Y0145013D01*
X0038442Y0145143D01*
X0038519Y0145274D01*
X0038592Y0145407D01*
X0038662Y0145542D01*
X0038728Y0145679D01*
X0038791Y0145818D01*
X0038850Y0145958D01*
X0038905Y0146100D01*
X0038957Y0146243D01*
X0039005Y0146387D01*
X0039050Y0146532D01*
X0039090Y0146679D01*
X0039127Y0146826D01*
X0039160Y0146975D01*
X0039189Y0147124D01*
X0039215Y0147274D01*
X0039236Y0147425D01*
X0039254Y0147576D01*
X0039267Y0147727D01*
X0039277Y0147879D01*
X0039283Y0148031D01*
X0039285Y0148183D01*
X0039284Y0148183D02*
X0039284Y0183617D01*
X0039285Y0183617D02*
X0039283Y0183769D01*
X0039277Y0183921D01*
X0039267Y0184073D01*
X0039254Y0184224D01*
X0039236Y0184375D01*
X0039215Y0184526D01*
X0039189Y0184676D01*
X0039160Y0184825D01*
X0039127Y0184974D01*
X0039090Y0185121D01*
X0039050Y0185268D01*
X0039005Y0185413D01*
X0038957Y0185557D01*
X0038905Y0185700D01*
X0038850Y0185842D01*
X0038791Y0185982D01*
X0038728Y0186121D01*
X0038662Y0186258D01*
X0038592Y0186393D01*
X0038519Y0186526D01*
X0038442Y0186657D01*
X0038362Y0186787D01*
X0038279Y0186914D01*
X0038193Y0187039D01*
X0038103Y0187162D01*
X0038010Y0187282D01*
X0037914Y0187400D01*
X0037815Y0187516D01*
X0037713Y0187629D01*
X0037609Y0187739D01*
X0037501Y0187847D01*
X0037391Y0187951D01*
X0037278Y0188053D01*
X0037162Y0188152D01*
X0037044Y0188248D01*
X0036924Y0188341D01*
X0036801Y0188431D01*
X0036676Y0188517D01*
X0036549Y0188600D01*
X0036419Y0188680D01*
X0036288Y0188757D01*
X0036155Y0188830D01*
X0036020Y0188900D01*
X0035883Y0188966D01*
X0035744Y0189029D01*
X0035604Y0189088D01*
X0035462Y0189143D01*
X0035319Y0189195D01*
X0035175Y0189243D01*
X0035030Y0189288D01*
X0034883Y0189328D01*
X0034736Y0189365D01*
X0034587Y0189398D01*
X0034438Y0189427D01*
X0034288Y0189453D01*
X0034137Y0189474D01*
X0033986Y0189492D01*
X0033835Y0189505D01*
X0033683Y0189515D01*
X0033531Y0189521D01*
X0033379Y0189523D01*
X0033379Y0189522D02*
X0013694Y0189522D01*
X0013504Y0189524D01*
X0013314Y0189531D01*
X0013124Y0189543D01*
X0012934Y0189559D01*
X0012745Y0189579D01*
X0012556Y0189605D01*
X0012368Y0189634D01*
X0012181Y0189669D01*
X0011995Y0189708D01*
X0011810Y0189751D01*
X0011625Y0189799D01*
X0011442Y0189851D01*
X0011261Y0189907D01*
X0011081Y0189968D01*
X0010902Y0190034D01*
X0010725Y0190103D01*
X0010549Y0190177D01*
X0010376Y0190255D01*
X0010204Y0190338D01*
X0010035Y0190424D01*
X0009867Y0190514D01*
X0009702Y0190609D01*
X0009539Y0190707D01*
X0009379Y0190810D01*
X0009221Y0190916D01*
X0009066Y0191026D01*
X0008913Y0191139D01*
X0008763Y0191257D01*
X0008617Y0191378D01*
X0008473Y0191502D01*
X0008332Y0191630D01*
X0008194Y0191761D01*
X0008059Y0191896D01*
X0007928Y0192034D01*
X0007800Y0192175D01*
X0007676Y0192319D01*
X0007555Y0192465D01*
X0007437Y0192615D01*
X0007324Y0192768D01*
X0007214Y0192923D01*
X0007108Y0193081D01*
X0007005Y0193241D01*
X0006907Y0193404D01*
X0006812Y0193569D01*
X0006722Y0193737D01*
X0006636Y0193906D01*
X0006553Y0194078D01*
X0006475Y0194251D01*
X0006401Y0194427D01*
X0006332Y0194604D01*
X0006266Y0194783D01*
X0006205Y0194963D01*
X0006149Y0195144D01*
X0006097Y0195327D01*
X0006049Y0195512D01*
X0006006Y0195697D01*
X0005967Y0195883D01*
X0005932Y0196070D01*
X0005903Y0196258D01*
X0005877Y0196447D01*
X0005857Y0196636D01*
X0005841Y0196826D01*
X0005829Y0197016D01*
X0005822Y0197206D01*
X0005820Y0197396D01*
X0082316Y0050484D02*
X0079102Y0046653D01*
X0086763Y0040225D02*
X0089977Y0044056D01*
X0105297Y0031200D02*
X0102083Y0027370D01*
X0005820Y0134404D02*
X0006613Y0130570D01*
X0007501Y0126757D01*
X0008480Y0122967D01*
X0009553Y0119202D01*
X0010716Y0115464D01*
X0011971Y0111755D01*
X0013315Y0108078D01*
X0014749Y0104435D01*
X0016272Y0100829D01*
X0017882Y0097260D01*
X0019579Y0093732D01*
X0021361Y0090246D01*
X0023227Y0086805D01*
X0025178Y0083410D01*
X0027210Y0080064D01*
X0029323Y0076769D01*
X0031517Y0073526D01*
X0033788Y0070337D01*
X0036137Y0067205D01*
X0038562Y0064131D01*
X0041061Y0061118D01*
X0043632Y0058166D01*
X0046275Y0055278D01*
X0048988Y0052455D01*
X0051768Y0049699D01*
X0054615Y0047012D01*
X0057527Y0044395D01*
X0060502Y0041850D01*
X0063538Y0039378D01*
X0066633Y0036981D01*
X0069786Y0034660D01*
X0072995Y0032417D01*
X0076257Y0030253D01*
X0079572Y0028169D01*
X0082936Y0026167D01*
X0086348Y0024247D01*
X0089806Y0022412D01*
X0093307Y0020661D01*
X0096851Y0018996D01*
X0100433Y0017418D01*
X0104054Y0015928D01*
X0107709Y0014526D01*
X0111398Y0013215D01*
X0115117Y0011993D01*
X0118866Y0010863D01*
X0122640Y0009825D01*
X0126439Y0008879D01*
X0130260Y0008026D01*
X0134101Y0007267D01*
X0137959Y0006601D01*
X0141832Y0006030D01*
X0145718Y0005553D01*
X0149614Y0005172D01*
X0153518Y0004885D01*
X0157429Y0004694D01*
X0161343Y0004599D01*
X0165257Y0004599D01*
X0169171Y0004694D01*
X0173082Y0004885D01*
X0176986Y0005172D01*
X0180882Y0005553D01*
X0184768Y0006030D01*
X0188641Y0006601D01*
X0192499Y0007267D01*
X0196340Y0008026D01*
X0200161Y0008879D01*
X0203960Y0009825D01*
X0207734Y0010863D01*
X0211483Y0011993D01*
X0215202Y0013215D01*
X0218891Y0014526D01*
X0222546Y0015928D01*
X0226167Y0017418D01*
X0229749Y0018996D01*
X0233293Y0020661D01*
X0236794Y0022412D01*
X0240252Y0024247D01*
X0243664Y0026167D01*
X0247028Y0028169D01*
X0250343Y0030253D01*
X0253605Y0032417D01*
X0256814Y0034660D01*
X0259967Y0036981D01*
X0263062Y0039378D01*
X0266098Y0041850D01*
X0269073Y0044395D01*
X0271985Y0047012D01*
X0274832Y0049699D01*
X0277612Y0052455D01*
X0280325Y0055278D01*
X0282968Y0058166D01*
X0285539Y0061118D01*
X0288038Y0064131D01*
X0290463Y0067205D01*
X0292812Y0070337D01*
X0295083Y0073526D01*
X0297277Y0076769D01*
X0299390Y0080064D01*
X0301422Y0083410D01*
X0303373Y0086805D01*
X0305239Y0090246D01*
X0307021Y0093732D01*
X0308718Y0097260D01*
X0310328Y0100829D01*
X0311851Y0104435D01*
X0313285Y0108078D01*
X0314629Y0111755D01*
X0315884Y0115464D01*
X0317047Y0119202D01*
X0318120Y0122967D01*
X0319099Y0126757D01*
X0319987Y0130570D01*
X0320780Y0134404D01*
X0320778Y0134594D01*
X0320771Y0134784D01*
X0320759Y0134974D01*
X0320743Y0135164D01*
X0320723Y0135353D01*
X0320697Y0135542D01*
X0320668Y0135730D01*
X0320633Y0135917D01*
X0320594Y0136103D01*
X0320551Y0136288D01*
X0320503Y0136473D01*
X0320451Y0136656D01*
X0320395Y0136837D01*
X0320334Y0137017D01*
X0320268Y0137196D01*
X0320199Y0137373D01*
X0320125Y0137549D01*
X0320047Y0137722D01*
X0319964Y0137894D01*
X0319878Y0138063D01*
X0319788Y0138231D01*
X0319693Y0138396D01*
X0319595Y0138559D01*
X0319492Y0138719D01*
X0319386Y0138877D01*
X0319276Y0139032D01*
X0319163Y0139185D01*
X0319045Y0139335D01*
X0318924Y0139481D01*
X0318800Y0139625D01*
X0318672Y0139766D01*
X0318541Y0139904D01*
X0318406Y0140039D01*
X0318268Y0140170D01*
X0318127Y0140298D01*
X0317983Y0140422D01*
X0317837Y0140543D01*
X0317687Y0140661D01*
X0317534Y0140774D01*
X0317379Y0140884D01*
X0317221Y0140990D01*
X0317061Y0141093D01*
X0316898Y0141191D01*
X0316733Y0141286D01*
X0316565Y0141376D01*
X0316396Y0141462D01*
X0316224Y0141545D01*
X0316051Y0141623D01*
X0315875Y0141697D01*
X0315698Y0141766D01*
X0315519Y0141832D01*
X0315339Y0141893D01*
X0315158Y0141949D01*
X0314975Y0142001D01*
X0314790Y0142049D01*
X0314605Y0142092D01*
X0314419Y0142131D01*
X0314232Y0142166D01*
X0314044Y0142195D01*
X0313855Y0142221D01*
X0313666Y0142241D01*
X0313476Y0142257D01*
X0313286Y0142269D01*
X0313096Y0142276D01*
X0312906Y0142278D01*
X0293221Y0142278D01*
X0293221Y0142277D02*
X0293069Y0142279D01*
X0292917Y0142285D01*
X0292765Y0142295D01*
X0292614Y0142308D01*
X0292463Y0142326D01*
X0292312Y0142347D01*
X0292162Y0142373D01*
X0292013Y0142402D01*
X0291864Y0142435D01*
X0291717Y0142472D01*
X0291570Y0142512D01*
X0291425Y0142557D01*
X0291281Y0142605D01*
X0291138Y0142657D01*
X0290996Y0142712D01*
X0290856Y0142771D01*
X0290717Y0142834D01*
X0290580Y0142900D01*
X0290445Y0142970D01*
X0290312Y0143043D01*
X0290181Y0143120D01*
X0290051Y0143200D01*
X0289924Y0143283D01*
X0289799Y0143369D01*
X0289676Y0143459D01*
X0289556Y0143552D01*
X0289438Y0143648D01*
X0289322Y0143747D01*
X0289209Y0143849D01*
X0289099Y0143953D01*
X0288991Y0144061D01*
X0288887Y0144171D01*
X0288785Y0144284D01*
X0288686Y0144400D01*
X0288590Y0144518D01*
X0288497Y0144638D01*
X0288407Y0144761D01*
X0288321Y0144886D01*
X0288238Y0145013D01*
X0288158Y0145143D01*
X0288081Y0145274D01*
X0288008Y0145407D01*
X0287938Y0145542D01*
X0287872Y0145679D01*
X0287809Y0145818D01*
X0287750Y0145958D01*
X0287695Y0146100D01*
X0287643Y0146243D01*
X0287595Y0146387D01*
X0287550Y0146532D01*
X0287510Y0146679D01*
X0287473Y0146826D01*
X0287440Y0146975D01*
X0287411Y0147124D01*
X0287385Y0147274D01*
X0287364Y0147425D01*
X0287346Y0147576D01*
X0287333Y0147727D01*
X0287323Y0147879D01*
X0287317Y0148031D01*
X0287315Y0148183D01*
X0287316Y0148183D02*
X0287316Y0183617D01*
X0287315Y0183617D02*
X0287317Y0183769D01*
X0287323Y0183921D01*
X0287333Y0184073D01*
X0287346Y0184224D01*
X0287364Y0184375D01*
X0287385Y0184526D01*
X0287411Y0184676D01*
X0287440Y0184825D01*
X0287473Y0184974D01*
X0287510Y0185121D01*
X0287550Y0185268D01*
X0287595Y0185413D01*
X0287643Y0185557D01*
X0287695Y0185700D01*
X0287750Y0185842D01*
X0287809Y0185982D01*
X0287872Y0186121D01*
X0287938Y0186258D01*
X0288008Y0186393D01*
X0288081Y0186526D01*
X0288158Y0186657D01*
X0288238Y0186787D01*
X0288321Y0186914D01*
X0288407Y0187039D01*
X0288497Y0187162D01*
X0288590Y0187282D01*
X0288686Y0187400D01*
X0288785Y0187516D01*
X0288887Y0187629D01*
X0288991Y0187739D01*
X0289099Y0187847D01*
X0289209Y0187951D01*
X0289322Y0188053D01*
X0289438Y0188152D01*
X0289556Y0188248D01*
X0289676Y0188341D01*
X0289799Y0188431D01*
X0289924Y0188517D01*
X0290051Y0188600D01*
X0290181Y0188680D01*
X0290312Y0188757D01*
X0290445Y0188830D01*
X0290580Y0188900D01*
X0290717Y0188966D01*
X0290856Y0189029D01*
X0290996Y0189088D01*
X0291138Y0189143D01*
X0291281Y0189195D01*
X0291425Y0189243D01*
X0291570Y0189288D01*
X0291717Y0189328D01*
X0291864Y0189365D01*
X0292013Y0189398D01*
X0292162Y0189427D01*
X0292312Y0189453D01*
X0292463Y0189474D01*
X0292614Y0189492D01*
X0292765Y0189505D01*
X0292917Y0189515D01*
X0293069Y0189521D01*
X0293221Y0189523D01*
X0293221Y0189522D02*
X0312906Y0189522D01*
X0313096Y0189524D01*
X0313286Y0189531D01*
X0313476Y0189543D01*
X0313666Y0189559D01*
X0313855Y0189579D01*
X0314044Y0189605D01*
X0314232Y0189634D01*
X0314419Y0189669D01*
X0314605Y0189708D01*
X0314790Y0189751D01*
X0314975Y0189799D01*
X0315158Y0189851D01*
X0315339Y0189907D01*
X0315519Y0189968D01*
X0315698Y0190034D01*
X0315875Y0190103D01*
X0316051Y0190177D01*
X0316224Y0190255D01*
X0316396Y0190338D01*
X0316565Y0190424D01*
X0316733Y0190514D01*
X0316898Y0190609D01*
X0317061Y0190707D01*
X0317221Y0190810D01*
X0317379Y0190916D01*
X0317534Y0191026D01*
X0317687Y0191139D01*
X0317837Y0191257D01*
X0317983Y0191378D01*
X0318127Y0191502D01*
X0318268Y0191630D01*
X0318406Y0191761D01*
X0318541Y0191896D01*
X0318672Y0192034D01*
X0318800Y0192175D01*
X0318924Y0192319D01*
X0319045Y0192465D01*
X0319163Y0192615D01*
X0319276Y0192768D01*
X0319386Y0192923D01*
X0319492Y0193081D01*
X0319595Y0193241D01*
X0319693Y0193404D01*
X0319788Y0193569D01*
X0319878Y0193737D01*
X0319964Y0193906D01*
X0320047Y0194078D01*
X0320125Y0194251D01*
X0320199Y0194427D01*
X0320268Y0194604D01*
X0320334Y0194783D01*
X0320395Y0194963D01*
X0320451Y0195144D01*
X0320503Y0195327D01*
X0320551Y0195512D01*
X0320594Y0195697D01*
X0320633Y0195883D01*
X0320668Y0196070D01*
X0320697Y0196258D01*
X0320723Y0196447D01*
X0320743Y0196636D01*
X0320759Y0196826D01*
X0320771Y0197016D01*
X0320778Y0197206D01*
X0320780Y0197396D01*
X0319987Y0201230D01*
X0319099Y0205043D01*
X0318120Y0208833D01*
X0317047Y0212598D01*
X0315884Y0216336D01*
X0314629Y0220045D01*
X0313285Y0223722D01*
X0311851Y0227365D01*
X0310328Y0230971D01*
X0308718Y0234540D01*
X0307021Y0238068D01*
X0305239Y0241554D01*
X0303373Y0244995D01*
X0301422Y0248390D01*
X0299390Y0251736D01*
X0297277Y0255031D01*
X0295083Y0258274D01*
X0292812Y0261463D01*
X0290463Y0264595D01*
X0288038Y0267669D01*
X0285539Y0270682D01*
X0282968Y0273634D01*
X0280325Y0276522D01*
X0277612Y0279345D01*
X0274832Y0282101D01*
X0271985Y0284788D01*
X0269073Y0287405D01*
X0266098Y0289950D01*
X0263062Y0292422D01*
X0259967Y0294819D01*
X0256814Y0297140D01*
X0253605Y0299383D01*
X0250343Y0301547D01*
X0247028Y0303631D01*
X0243664Y0305633D01*
X0240252Y0307553D01*
X0236794Y0309388D01*
X0233293Y0311139D01*
X0229749Y0312804D01*
X0226167Y0314382D01*
X0222546Y0315872D01*
X0218891Y0317274D01*
X0215202Y0318585D01*
X0211483Y0319807D01*
X0207734Y0320937D01*
X0203960Y0321975D01*
X0200161Y0322921D01*
X0196340Y0323774D01*
X0192499Y0324533D01*
X0188641Y0325199D01*
X0184768Y0325770D01*
X0180882Y0326247D01*
X0176986Y0326628D01*
X0173082Y0326915D01*
X0169171Y0327106D01*
X0165257Y0327201D01*
X0161343Y0327201D01*
X0157429Y0327106D01*
X0153518Y0326915D01*
X0149614Y0326628D01*
X0145718Y0326247D01*
X0141832Y0325770D01*
X0137959Y0325199D01*
X0134101Y0324533D01*
X0130260Y0323774D01*
X0126439Y0322921D01*
X0122640Y0321975D01*
X0118866Y0320937D01*
X0115117Y0319807D01*
X0111398Y0318585D01*
X0107709Y0317274D01*
X0104054Y0315872D01*
X0100433Y0314382D01*
X0096851Y0312804D01*
X0093307Y0311139D01*
X0089806Y0309388D01*
X0086348Y0307553D01*
X0082936Y0305633D01*
X0079572Y0303631D01*
X0076257Y0301547D01*
X0072995Y0299383D01*
X0069786Y0297140D01*
X0066633Y0294819D01*
X0063538Y0292422D01*
X0060502Y0289950D01*
X0057527Y0287405D01*
X0054615Y0284788D01*
X0051768Y0282101D01*
X0048988Y0279345D01*
X0046275Y0276522D01*
X0043632Y0273634D01*
X0041061Y0270682D01*
X0038562Y0267669D01*
X0036137Y0264595D01*
X0033788Y0261463D01*
X0031517Y0258274D01*
X0029323Y0255031D01*
X0027210Y0251736D01*
X0025178Y0248390D01*
X0023227Y0244995D01*
X0021361Y0241554D01*
X0019579Y0238068D01*
X0017882Y0234540D01*
X0016272Y0230971D01*
X0014749Y0227365D01*
X0013315Y0223722D01*
X0011971Y0220045D01*
X0010716Y0216336D01*
X0009553Y0212598D01*
X0008480Y0208833D01*
X0007501Y0205043D01*
X0006613Y0201230D01*
X0005820Y0197396D01*
D11*
X0047158Y0165900D02*
X0047160Y0166053D01*
X0047166Y0166207D01*
X0047176Y0166360D01*
X0047190Y0166512D01*
X0047208Y0166665D01*
X0047230Y0166816D01*
X0047255Y0166967D01*
X0047285Y0167118D01*
X0047319Y0167268D01*
X0047356Y0167416D01*
X0047397Y0167564D01*
X0047442Y0167710D01*
X0047491Y0167856D01*
X0047544Y0168000D01*
X0047600Y0168142D01*
X0047660Y0168283D01*
X0047724Y0168423D01*
X0047791Y0168561D01*
X0047862Y0168697D01*
X0047937Y0168831D01*
X0048014Y0168963D01*
X0048096Y0169093D01*
X0048180Y0169221D01*
X0048268Y0169347D01*
X0048359Y0169470D01*
X0048453Y0169591D01*
X0048551Y0169709D01*
X0048651Y0169825D01*
X0048755Y0169938D01*
X0048861Y0170049D01*
X0048970Y0170157D01*
X0049082Y0170262D01*
X0049196Y0170363D01*
X0049314Y0170462D01*
X0049433Y0170558D01*
X0049555Y0170651D01*
X0049680Y0170740D01*
X0049807Y0170827D01*
X0049936Y0170909D01*
X0050067Y0170989D01*
X0050200Y0171065D01*
X0050335Y0171138D01*
X0050472Y0171207D01*
X0050611Y0171272D01*
X0050751Y0171334D01*
X0050893Y0171392D01*
X0051036Y0171447D01*
X0051181Y0171498D01*
X0051327Y0171545D01*
X0051474Y0171588D01*
X0051622Y0171627D01*
X0051771Y0171663D01*
X0051921Y0171694D01*
X0052072Y0171722D01*
X0052223Y0171746D01*
X0052376Y0171766D01*
X0052528Y0171782D01*
X0052681Y0171794D01*
X0052834Y0171802D01*
X0052987Y0171806D01*
X0053141Y0171806D01*
X0053294Y0171802D01*
X0053447Y0171794D01*
X0053600Y0171782D01*
X0053752Y0171766D01*
X0053905Y0171746D01*
X0054056Y0171722D01*
X0054207Y0171694D01*
X0054357Y0171663D01*
X0054506Y0171627D01*
X0054654Y0171588D01*
X0054801Y0171545D01*
X0054947Y0171498D01*
X0055092Y0171447D01*
X0055235Y0171392D01*
X0055377Y0171334D01*
X0055517Y0171272D01*
X0055656Y0171207D01*
X0055793Y0171138D01*
X0055928Y0171065D01*
X0056061Y0170989D01*
X0056192Y0170909D01*
X0056321Y0170827D01*
X0056448Y0170740D01*
X0056573Y0170651D01*
X0056695Y0170558D01*
X0056814Y0170462D01*
X0056932Y0170363D01*
X0057046Y0170262D01*
X0057158Y0170157D01*
X0057267Y0170049D01*
X0057373Y0169938D01*
X0057477Y0169825D01*
X0057577Y0169709D01*
X0057675Y0169591D01*
X0057769Y0169470D01*
X0057860Y0169347D01*
X0057948Y0169221D01*
X0058032Y0169093D01*
X0058114Y0168963D01*
X0058191Y0168831D01*
X0058266Y0168697D01*
X0058337Y0168561D01*
X0058404Y0168423D01*
X0058468Y0168283D01*
X0058528Y0168142D01*
X0058584Y0168000D01*
X0058637Y0167856D01*
X0058686Y0167710D01*
X0058731Y0167564D01*
X0058772Y0167416D01*
X0058809Y0167268D01*
X0058843Y0167118D01*
X0058873Y0166967D01*
X0058898Y0166816D01*
X0058920Y0166665D01*
X0058938Y0166512D01*
X0058952Y0166360D01*
X0058962Y0166207D01*
X0058968Y0166053D01*
X0058970Y0165900D01*
X0058968Y0165747D01*
X0058962Y0165593D01*
X0058952Y0165440D01*
X0058938Y0165288D01*
X0058920Y0165135D01*
X0058898Y0164984D01*
X0058873Y0164833D01*
X0058843Y0164682D01*
X0058809Y0164532D01*
X0058772Y0164384D01*
X0058731Y0164236D01*
X0058686Y0164090D01*
X0058637Y0163944D01*
X0058584Y0163800D01*
X0058528Y0163658D01*
X0058468Y0163517D01*
X0058404Y0163377D01*
X0058337Y0163239D01*
X0058266Y0163103D01*
X0058191Y0162969D01*
X0058114Y0162837D01*
X0058032Y0162707D01*
X0057948Y0162579D01*
X0057860Y0162453D01*
X0057769Y0162330D01*
X0057675Y0162209D01*
X0057577Y0162091D01*
X0057477Y0161975D01*
X0057373Y0161862D01*
X0057267Y0161751D01*
X0057158Y0161643D01*
X0057046Y0161538D01*
X0056932Y0161437D01*
X0056814Y0161338D01*
X0056695Y0161242D01*
X0056573Y0161149D01*
X0056448Y0161060D01*
X0056321Y0160973D01*
X0056192Y0160891D01*
X0056061Y0160811D01*
X0055928Y0160735D01*
X0055793Y0160662D01*
X0055656Y0160593D01*
X0055517Y0160528D01*
X0055377Y0160466D01*
X0055235Y0160408D01*
X0055092Y0160353D01*
X0054947Y0160302D01*
X0054801Y0160255D01*
X0054654Y0160212D01*
X0054506Y0160173D01*
X0054357Y0160137D01*
X0054207Y0160106D01*
X0054056Y0160078D01*
X0053905Y0160054D01*
X0053752Y0160034D01*
X0053600Y0160018D01*
X0053447Y0160006D01*
X0053294Y0159998D01*
X0053141Y0159994D01*
X0052987Y0159994D01*
X0052834Y0159998D01*
X0052681Y0160006D01*
X0052528Y0160018D01*
X0052376Y0160034D01*
X0052223Y0160054D01*
X0052072Y0160078D01*
X0051921Y0160106D01*
X0051771Y0160137D01*
X0051622Y0160173D01*
X0051474Y0160212D01*
X0051327Y0160255D01*
X0051181Y0160302D01*
X0051036Y0160353D01*
X0050893Y0160408D01*
X0050751Y0160466D01*
X0050611Y0160528D01*
X0050472Y0160593D01*
X0050335Y0160662D01*
X0050200Y0160735D01*
X0050067Y0160811D01*
X0049936Y0160891D01*
X0049807Y0160973D01*
X0049680Y0161060D01*
X0049555Y0161149D01*
X0049433Y0161242D01*
X0049314Y0161338D01*
X0049196Y0161437D01*
X0049082Y0161538D01*
X0048970Y0161643D01*
X0048861Y0161751D01*
X0048755Y0161862D01*
X0048651Y0161975D01*
X0048551Y0162091D01*
X0048453Y0162209D01*
X0048359Y0162330D01*
X0048268Y0162453D01*
X0048180Y0162579D01*
X0048096Y0162707D01*
X0048014Y0162837D01*
X0047937Y0162969D01*
X0047862Y0163103D01*
X0047791Y0163239D01*
X0047724Y0163377D01*
X0047660Y0163517D01*
X0047600Y0163658D01*
X0047544Y0163800D01*
X0047491Y0163944D01*
X0047442Y0164090D01*
X0047397Y0164236D01*
X0047356Y0164384D01*
X0047319Y0164532D01*
X0047285Y0164682D01*
X0047255Y0164833D01*
X0047230Y0164984D01*
X0047208Y0165135D01*
X0047190Y0165288D01*
X0047176Y0165440D01*
X0047166Y0165593D01*
X0047160Y0165747D01*
X0047158Y0165900D01*
X0055434Y0193355D02*
X0055436Y0193508D01*
X0055442Y0193662D01*
X0055452Y0193815D01*
X0055466Y0193967D01*
X0055484Y0194120D01*
X0055506Y0194271D01*
X0055531Y0194422D01*
X0055561Y0194573D01*
X0055595Y0194723D01*
X0055632Y0194871D01*
X0055673Y0195019D01*
X0055718Y0195165D01*
X0055767Y0195311D01*
X0055820Y0195455D01*
X0055876Y0195597D01*
X0055936Y0195738D01*
X0056000Y0195878D01*
X0056067Y0196016D01*
X0056138Y0196152D01*
X0056213Y0196286D01*
X0056290Y0196418D01*
X0056372Y0196548D01*
X0056456Y0196676D01*
X0056544Y0196802D01*
X0056635Y0196925D01*
X0056729Y0197046D01*
X0056827Y0197164D01*
X0056927Y0197280D01*
X0057031Y0197393D01*
X0057137Y0197504D01*
X0057246Y0197612D01*
X0057358Y0197717D01*
X0057472Y0197818D01*
X0057590Y0197917D01*
X0057709Y0198013D01*
X0057831Y0198106D01*
X0057956Y0198195D01*
X0058083Y0198282D01*
X0058212Y0198364D01*
X0058343Y0198444D01*
X0058476Y0198520D01*
X0058611Y0198593D01*
X0058748Y0198662D01*
X0058887Y0198727D01*
X0059027Y0198789D01*
X0059169Y0198847D01*
X0059312Y0198902D01*
X0059457Y0198953D01*
X0059603Y0199000D01*
X0059750Y0199043D01*
X0059898Y0199082D01*
X0060047Y0199118D01*
X0060197Y0199149D01*
X0060348Y0199177D01*
X0060499Y0199201D01*
X0060652Y0199221D01*
X0060804Y0199237D01*
X0060957Y0199249D01*
X0061110Y0199257D01*
X0061263Y0199261D01*
X0061417Y0199261D01*
X0061570Y0199257D01*
X0061723Y0199249D01*
X0061876Y0199237D01*
X0062028Y0199221D01*
X0062181Y0199201D01*
X0062332Y0199177D01*
X0062483Y0199149D01*
X0062633Y0199118D01*
X0062782Y0199082D01*
X0062930Y0199043D01*
X0063077Y0199000D01*
X0063223Y0198953D01*
X0063368Y0198902D01*
X0063511Y0198847D01*
X0063653Y0198789D01*
X0063793Y0198727D01*
X0063932Y0198662D01*
X0064069Y0198593D01*
X0064204Y0198520D01*
X0064337Y0198444D01*
X0064468Y0198364D01*
X0064597Y0198282D01*
X0064724Y0198195D01*
X0064849Y0198106D01*
X0064971Y0198013D01*
X0065090Y0197917D01*
X0065208Y0197818D01*
X0065322Y0197717D01*
X0065434Y0197612D01*
X0065543Y0197504D01*
X0065649Y0197393D01*
X0065753Y0197280D01*
X0065853Y0197164D01*
X0065951Y0197046D01*
X0066045Y0196925D01*
X0066136Y0196802D01*
X0066224Y0196676D01*
X0066308Y0196548D01*
X0066390Y0196418D01*
X0066467Y0196286D01*
X0066542Y0196152D01*
X0066613Y0196016D01*
X0066680Y0195878D01*
X0066744Y0195738D01*
X0066804Y0195597D01*
X0066860Y0195455D01*
X0066913Y0195311D01*
X0066962Y0195165D01*
X0067007Y0195019D01*
X0067048Y0194871D01*
X0067085Y0194723D01*
X0067119Y0194573D01*
X0067149Y0194422D01*
X0067174Y0194271D01*
X0067196Y0194120D01*
X0067214Y0193967D01*
X0067228Y0193815D01*
X0067238Y0193662D01*
X0067244Y0193508D01*
X0067246Y0193355D01*
X0067244Y0193202D01*
X0067238Y0193048D01*
X0067228Y0192895D01*
X0067214Y0192743D01*
X0067196Y0192590D01*
X0067174Y0192439D01*
X0067149Y0192288D01*
X0067119Y0192137D01*
X0067085Y0191987D01*
X0067048Y0191839D01*
X0067007Y0191691D01*
X0066962Y0191545D01*
X0066913Y0191399D01*
X0066860Y0191255D01*
X0066804Y0191113D01*
X0066744Y0190972D01*
X0066680Y0190832D01*
X0066613Y0190694D01*
X0066542Y0190558D01*
X0066467Y0190424D01*
X0066390Y0190292D01*
X0066308Y0190162D01*
X0066224Y0190034D01*
X0066136Y0189908D01*
X0066045Y0189785D01*
X0065951Y0189664D01*
X0065853Y0189546D01*
X0065753Y0189430D01*
X0065649Y0189317D01*
X0065543Y0189206D01*
X0065434Y0189098D01*
X0065322Y0188993D01*
X0065208Y0188892D01*
X0065090Y0188793D01*
X0064971Y0188697D01*
X0064849Y0188604D01*
X0064724Y0188515D01*
X0064597Y0188428D01*
X0064468Y0188346D01*
X0064337Y0188266D01*
X0064204Y0188190D01*
X0064069Y0188117D01*
X0063932Y0188048D01*
X0063793Y0187983D01*
X0063653Y0187921D01*
X0063511Y0187863D01*
X0063368Y0187808D01*
X0063223Y0187757D01*
X0063077Y0187710D01*
X0062930Y0187667D01*
X0062782Y0187628D01*
X0062633Y0187592D01*
X0062483Y0187561D01*
X0062332Y0187533D01*
X0062181Y0187509D01*
X0062028Y0187489D01*
X0061876Y0187473D01*
X0061723Y0187461D01*
X0061570Y0187453D01*
X0061417Y0187449D01*
X0061263Y0187449D01*
X0061110Y0187453D01*
X0060957Y0187461D01*
X0060804Y0187473D01*
X0060652Y0187489D01*
X0060499Y0187509D01*
X0060348Y0187533D01*
X0060197Y0187561D01*
X0060047Y0187592D01*
X0059898Y0187628D01*
X0059750Y0187667D01*
X0059603Y0187710D01*
X0059457Y0187757D01*
X0059312Y0187808D01*
X0059169Y0187863D01*
X0059027Y0187921D01*
X0058887Y0187983D01*
X0058748Y0188048D01*
X0058611Y0188117D01*
X0058476Y0188190D01*
X0058343Y0188266D01*
X0058212Y0188346D01*
X0058083Y0188428D01*
X0057956Y0188515D01*
X0057831Y0188604D01*
X0057709Y0188697D01*
X0057590Y0188793D01*
X0057472Y0188892D01*
X0057358Y0188993D01*
X0057246Y0189098D01*
X0057137Y0189206D01*
X0057031Y0189317D01*
X0056927Y0189430D01*
X0056827Y0189546D01*
X0056729Y0189664D01*
X0056635Y0189785D01*
X0056544Y0189908D01*
X0056456Y0190034D01*
X0056372Y0190162D01*
X0056290Y0190292D01*
X0056213Y0190424D01*
X0056138Y0190558D01*
X0056067Y0190694D01*
X0056000Y0190832D01*
X0055936Y0190972D01*
X0055876Y0191113D01*
X0055820Y0191255D01*
X0055767Y0191399D01*
X0055718Y0191545D01*
X0055673Y0191691D01*
X0055632Y0191839D01*
X0055595Y0191987D01*
X0055561Y0192137D01*
X0055531Y0192288D01*
X0055506Y0192439D01*
X0055484Y0192590D01*
X0055466Y0192743D01*
X0055452Y0192895D01*
X0055442Y0193048D01*
X0055436Y0193202D01*
X0055434Y0193355D01*
X0083602Y0246332D02*
X0083604Y0246485D01*
X0083610Y0246639D01*
X0083620Y0246792D01*
X0083634Y0246944D01*
X0083652Y0247097D01*
X0083674Y0247248D01*
X0083699Y0247399D01*
X0083729Y0247550D01*
X0083763Y0247700D01*
X0083800Y0247848D01*
X0083841Y0247996D01*
X0083886Y0248142D01*
X0083935Y0248288D01*
X0083988Y0248432D01*
X0084044Y0248574D01*
X0084104Y0248715D01*
X0084168Y0248855D01*
X0084235Y0248993D01*
X0084306Y0249129D01*
X0084381Y0249263D01*
X0084458Y0249395D01*
X0084540Y0249525D01*
X0084624Y0249653D01*
X0084712Y0249779D01*
X0084803Y0249902D01*
X0084897Y0250023D01*
X0084995Y0250141D01*
X0085095Y0250257D01*
X0085199Y0250370D01*
X0085305Y0250481D01*
X0085414Y0250589D01*
X0085526Y0250694D01*
X0085640Y0250795D01*
X0085758Y0250894D01*
X0085877Y0250990D01*
X0085999Y0251083D01*
X0086124Y0251172D01*
X0086251Y0251259D01*
X0086380Y0251341D01*
X0086511Y0251421D01*
X0086644Y0251497D01*
X0086779Y0251570D01*
X0086916Y0251639D01*
X0087055Y0251704D01*
X0087195Y0251766D01*
X0087337Y0251824D01*
X0087480Y0251879D01*
X0087625Y0251930D01*
X0087771Y0251977D01*
X0087918Y0252020D01*
X0088066Y0252059D01*
X0088215Y0252095D01*
X0088365Y0252126D01*
X0088516Y0252154D01*
X0088667Y0252178D01*
X0088820Y0252198D01*
X0088972Y0252214D01*
X0089125Y0252226D01*
X0089278Y0252234D01*
X0089431Y0252238D01*
X0089585Y0252238D01*
X0089738Y0252234D01*
X0089891Y0252226D01*
X0090044Y0252214D01*
X0090196Y0252198D01*
X0090349Y0252178D01*
X0090500Y0252154D01*
X0090651Y0252126D01*
X0090801Y0252095D01*
X0090950Y0252059D01*
X0091098Y0252020D01*
X0091245Y0251977D01*
X0091391Y0251930D01*
X0091536Y0251879D01*
X0091679Y0251824D01*
X0091821Y0251766D01*
X0091961Y0251704D01*
X0092100Y0251639D01*
X0092237Y0251570D01*
X0092372Y0251497D01*
X0092505Y0251421D01*
X0092636Y0251341D01*
X0092765Y0251259D01*
X0092892Y0251172D01*
X0093017Y0251083D01*
X0093139Y0250990D01*
X0093258Y0250894D01*
X0093376Y0250795D01*
X0093490Y0250694D01*
X0093602Y0250589D01*
X0093711Y0250481D01*
X0093817Y0250370D01*
X0093921Y0250257D01*
X0094021Y0250141D01*
X0094119Y0250023D01*
X0094213Y0249902D01*
X0094304Y0249779D01*
X0094392Y0249653D01*
X0094476Y0249525D01*
X0094558Y0249395D01*
X0094635Y0249263D01*
X0094710Y0249129D01*
X0094781Y0248993D01*
X0094848Y0248855D01*
X0094912Y0248715D01*
X0094972Y0248574D01*
X0095028Y0248432D01*
X0095081Y0248288D01*
X0095130Y0248142D01*
X0095175Y0247996D01*
X0095216Y0247848D01*
X0095253Y0247700D01*
X0095287Y0247550D01*
X0095317Y0247399D01*
X0095342Y0247248D01*
X0095364Y0247097D01*
X0095382Y0246944D01*
X0095396Y0246792D01*
X0095406Y0246639D01*
X0095412Y0246485D01*
X0095414Y0246332D01*
X0095412Y0246179D01*
X0095406Y0246025D01*
X0095396Y0245872D01*
X0095382Y0245720D01*
X0095364Y0245567D01*
X0095342Y0245416D01*
X0095317Y0245265D01*
X0095287Y0245114D01*
X0095253Y0244964D01*
X0095216Y0244816D01*
X0095175Y0244668D01*
X0095130Y0244522D01*
X0095081Y0244376D01*
X0095028Y0244232D01*
X0094972Y0244090D01*
X0094912Y0243949D01*
X0094848Y0243809D01*
X0094781Y0243671D01*
X0094710Y0243535D01*
X0094635Y0243401D01*
X0094558Y0243269D01*
X0094476Y0243139D01*
X0094392Y0243011D01*
X0094304Y0242885D01*
X0094213Y0242762D01*
X0094119Y0242641D01*
X0094021Y0242523D01*
X0093921Y0242407D01*
X0093817Y0242294D01*
X0093711Y0242183D01*
X0093602Y0242075D01*
X0093490Y0241970D01*
X0093376Y0241869D01*
X0093258Y0241770D01*
X0093139Y0241674D01*
X0093017Y0241581D01*
X0092892Y0241492D01*
X0092765Y0241405D01*
X0092636Y0241323D01*
X0092505Y0241243D01*
X0092372Y0241167D01*
X0092237Y0241094D01*
X0092100Y0241025D01*
X0091961Y0240960D01*
X0091821Y0240898D01*
X0091679Y0240840D01*
X0091536Y0240785D01*
X0091391Y0240734D01*
X0091245Y0240687D01*
X0091098Y0240644D01*
X0090950Y0240605D01*
X0090801Y0240569D01*
X0090651Y0240538D01*
X0090500Y0240510D01*
X0090349Y0240486D01*
X0090196Y0240466D01*
X0090044Y0240450D01*
X0089891Y0240438D01*
X0089738Y0240430D01*
X0089585Y0240426D01*
X0089431Y0240426D01*
X0089278Y0240430D01*
X0089125Y0240438D01*
X0088972Y0240450D01*
X0088820Y0240466D01*
X0088667Y0240486D01*
X0088516Y0240510D01*
X0088365Y0240538D01*
X0088215Y0240569D01*
X0088066Y0240605D01*
X0087918Y0240644D01*
X0087771Y0240687D01*
X0087625Y0240734D01*
X0087480Y0240785D01*
X0087337Y0240840D01*
X0087195Y0240898D01*
X0087055Y0240960D01*
X0086916Y0241025D01*
X0086779Y0241094D01*
X0086644Y0241167D01*
X0086511Y0241243D01*
X0086380Y0241323D01*
X0086251Y0241405D01*
X0086124Y0241492D01*
X0085999Y0241581D01*
X0085877Y0241674D01*
X0085758Y0241770D01*
X0085640Y0241869D01*
X0085526Y0241970D01*
X0085414Y0242075D01*
X0085305Y0242183D01*
X0085199Y0242294D01*
X0085095Y0242407D01*
X0084995Y0242523D01*
X0084897Y0242641D01*
X0084803Y0242762D01*
X0084712Y0242885D01*
X0084624Y0243011D01*
X0084540Y0243139D01*
X0084458Y0243269D01*
X0084381Y0243401D01*
X0084306Y0243535D01*
X0084235Y0243671D01*
X0084168Y0243809D01*
X0084104Y0243949D01*
X0084044Y0244090D01*
X0083988Y0244232D01*
X0083935Y0244376D01*
X0083886Y0244522D01*
X0083841Y0244668D01*
X0083800Y0244816D01*
X0083763Y0244964D01*
X0083729Y0245114D01*
X0083699Y0245265D01*
X0083674Y0245416D01*
X0083652Y0245567D01*
X0083634Y0245720D01*
X0083620Y0245872D01*
X0083610Y0246025D01*
X0083604Y0246179D01*
X0083602Y0246332D01*
X0157394Y0276136D02*
X0157396Y0276289D01*
X0157402Y0276443D01*
X0157412Y0276596D01*
X0157426Y0276748D01*
X0157444Y0276901D01*
X0157466Y0277052D01*
X0157491Y0277203D01*
X0157521Y0277354D01*
X0157555Y0277504D01*
X0157592Y0277652D01*
X0157633Y0277800D01*
X0157678Y0277946D01*
X0157727Y0278092D01*
X0157780Y0278236D01*
X0157836Y0278378D01*
X0157896Y0278519D01*
X0157960Y0278659D01*
X0158027Y0278797D01*
X0158098Y0278933D01*
X0158173Y0279067D01*
X0158250Y0279199D01*
X0158332Y0279329D01*
X0158416Y0279457D01*
X0158504Y0279583D01*
X0158595Y0279706D01*
X0158689Y0279827D01*
X0158787Y0279945D01*
X0158887Y0280061D01*
X0158991Y0280174D01*
X0159097Y0280285D01*
X0159206Y0280393D01*
X0159318Y0280498D01*
X0159432Y0280599D01*
X0159550Y0280698D01*
X0159669Y0280794D01*
X0159791Y0280887D01*
X0159916Y0280976D01*
X0160043Y0281063D01*
X0160172Y0281145D01*
X0160303Y0281225D01*
X0160436Y0281301D01*
X0160571Y0281374D01*
X0160708Y0281443D01*
X0160847Y0281508D01*
X0160987Y0281570D01*
X0161129Y0281628D01*
X0161272Y0281683D01*
X0161417Y0281734D01*
X0161563Y0281781D01*
X0161710Y0281824D01*
X0161858Y0281863D01*
X0162007Y0281899D01*
X0162157Y0281930D01*
X0162308Y0281958D01*
X0162459Y0281982D01*
X0162612Y0282002D01*
X0162764Y0282018D01*
X0162917Y0282030D01*
X0163070Y0282038D01*
X0163223Y0282042D01*
X0163377Y0282042D01*
X0163530Y0282038D01*
X0163683Y0282030D01*
X0163836Y0282018D01*
X0163988Y0282002D01*
X0164141Y0281982D01*
X0164292Y0281958D01*
X0164443Y0281930D01*
X0164593Y0281899D01*
X0164742Y0281863D01*
X0164890Y0281824D01*
X0165037Y0281781D01*
X0165183Y0281734D01*
X0165328Y0281683D01*
X0165471Y0281628D01*
X0165613Y0281570D01*
X0165753Y0281508D01*
X0165892Y0281443D01*
X0166029Y0281374D01*
X0166164Y0281301D01*
X0166297Y0281225D01*
X0166428Y0281145D01*
X0166557Y0281063D01*
X0166684Y0280976D01*
X0166809Y0280887D01*
X0166931Y0280794D01*
X0167050Y0280698D01*
X0167168Y0280599D01*
X0167282Y0280498D01*
X0167394Y0280393D01*
X0167503Y0280285D01*
X0167609Y0280174D01*
X0167713Y0280061D01*
X0167813Y0279945D01*
X0167911Y0279827D01*
X0168005Y0279706D01*
X0168096Y0279583D01*
X0168184Y0279457D01*
X0168268Y0279329D01*
X0168350Y0279199D01*
X0168427Y0279067D01*
X0168502Y0278933D01*
X0168573Y0278797D01*
X0168640Y0278659D01*
X0168704Y0278519D01*
X0168764Y0278378D01*
X0168820Y0278236D01*
X0168873Y0278092D01*
X0168922Y0277946D01*
X0168967Y0277800D01*
X0169008Y0277652D01*
X0169045Y0277504D01*
X0169079Y0277354D01*
X0169109Y0277203D01*
X0169134Y0277052D01*
X0169156Y0276901D01*
X0169174Y0276748D01*
X0169188Y0276596D01*
X0169198Y0276443D01*
X0169204Y0276289D01*
X0169206Y0276136D01*
X0169204Y0275983D01*
X0169198Y0275829D01*
X0169188Y0275676D01*
X0169174Y0275524D01*
X0169156Y0275371D01*
X0169134Y0275220D01*
X0169109Y0275069D01*
X0169079Y0274918D01*
X0169045Y0274768D01*
X0169008Y0274620D01*
X0168967Y0274472D01*
X0168922Y0274326D01*
X0168873Y0274180D01*
X0168820Y0274036D01*
X0168764Y0273894D01*
X0168704Y0273753D01*
X0168640Y0273613D01*
X0168573Y0273475D01*
X0168502Y0273339D01*
X0168427Y0273205D01*
X0168350Y0273073D01*
X0168268Y0272943D01*
X0168184Y0272815D01*
X0168096Y0272689D01*
X0168005Y0272566D01*
X0167911Y0272445D01*
X0167813Y0272327D01*
X0167713Y0272211D01*
X0167609Y0272098D01*
X0167503Y0271987D01*
X0167394Y0271879D01*
X0167282Y0271774D01*
X0167168Y0271673D01*
X0167050Y0271574D01*
X0166931Y0271478D01*
X0166809Y0271385D01*
X0166684Y0271296D01*
X0166557Y0271209D01*
X0166428Y0271127D01*
X0166297Y0271047D01*
X0166164Y0270971D01*
X0166029Y0270898D01*
X0165892Y0270829D01*
X0165753Y0270764D01*
X0165613Y0270702D01*
X0165471Y0270644D01*
X0165328Y0270589D01*
X0165183Y0270538D01*
X0165037Y0270491D01*
X0164890Y0270448D01*
X0164742Y0270409D01*
X0164593Y0270373D01*
X0164443Y0270342D01*
X0164292Y0270314D01*
X0164141Y0270290D01*
X0163988Y0270270D01*
X0163836Y0270254D01*
X0163683Y0270242D01*
X0163530Y0270234D01*
X0163377Y0270230D01*
X0163223Y0270230D01*
X0163070Y0270234D01*
X0162917Y0270242D01*
X0162764Y0270254D01*
X0162612Y0270270D01*
X0162459Y0270290D01*
X0162308Y0270314D01*
X0162157Y0270342D01*
X0162007Y0270373D01*
X0161858Y0270409D01*
X0161710Y0270448D01*
X0161563Y0270491D01*
X0161417Y0270538D01*
X0161272Y0270589D01*
X0161129Y0270644D01*
X0160987Y0270702D01*
X0160847Y0270764D01*
X0160708Y0270829D01*
X0160571Y0270898D01*
X0160436Y0270971D01*
X0160303Y0271047D01*
X0160172Y0271127D01*
X0160043Y0271209D01*
X0159916Y0271296D01*
X0159791Y0271385D01*
X0159669Y0271478D01*
X0159550Y0271574D01*
X0159432Y0271673D01*
X0159318Y0271774D01*
X0159206Y0271879D01*
X0159097Y0271987D01*
X0158991Y0272098D01*
X0158887Y0272211D01*
X0158787Y0272327D01*
X0158689Y0272445D01*
X0158595Y0272566D01*
X0158504Y0272689D01*
X0158416Y0272815D01*
X0158332Y0272943D01*
X0158250Y0273073D01*
X0158173Y0273205D01*
X0158098Y0273339D01*
X0158027Y0273475D01*
X0157960Y0273613D01*
X0157896Y0273753D01*
X0157836Y0273894D01*
X0157780Y0274036D01*
X0157727Y0274180D01*
X0157678Y0274326D01*
X0157633Y0274472D01*
X0157592Y0274620D01*
X0157555Y0274768D01*
X0157521Y0274918D01*
X0157491Y0275069D01*
X0157466Y0275220D01*
X0157444Y0275371D01*
X0157426Y0275524D01*
X0157412Y0275676D01*
X0157402Y0275829D01*
X0157396Y0275983D01*
X0157394Y0276136D01*
X0267630Y0165900D02*
X0267632Y0166053D01*
X0267638Y0166207D01*
X0267648Y0166360D01*
X0267662Y0166512D01*
X0267680Y0166665D01*
X0267702Y0166816D01*
X0267727Y0166967D01*
X0267757Y0167118D01*
X0267791Y0167268D01*
X0267828Y0167416D01*
X0267869Y0167564D01*
X0267914Y0167710D01*
X0267963Y0167856D01*
X0268016Y0168000D01*
X0268072Y0168142D01*
X0268132Y0168283D01*
X0268196Y0168423D01*
X0268263Y0168561D01*
X0268334Y0168697D01*
X0268409Y0168831D01*
X0268486Y0168963D01*
X0268568Y0169093D01*
X0268652Y0169221D01*
X0268740Y0169347D01*
X0268831Y0169470D01*
X0268925Y0169591D01*
X0269023Y0169709D01*
X0269123Y0169825D01*
X0269227Y0169938D01*
X0269333Y0170049D01*
X0269442Y0170157D01*
X0269554Y0170262D01*
X0269668Y0170363D01*
X0269786Y0170462D01*
X0269905Y0170558D01*
X0270027Y0170651D01*
X0270152Y0170740D01*
X0270279Y0170827D01*
X0270408Y0170909D01*
X0270539Y0170989D01*
X0270672Y0171065D01*
X0270807Y0171138D01*
X0270944Y0171207D01*
X0271083Y0171272D01*
X0271223Y0171334D01*
X0271365Y0171392D01*
X0271508Y0171447D01*
X0271653Y0171498D01*
X0271799Y0171545D01*
X0271946Y0171588D01*
X0272094Y0171627D01*
X0272243Y0171663D01*
X0272393Y0171694D01*
X0272544Y0171722D01*
X0272695Y0171746D01*
X0272848Y0171766D01*
X0273000Y0171782D01*
X0273153Y0171794D01*
X0273306Y0171802D01*
X0273459Y0171806D01*
X0273613Y0171806D01*
X0273766Y0171802D01*
X0273919Y0171794D01*
X0274072Y0171782D01*
X0274224Y0171766D01*
X0274377Y0171746D01*
X0274528Y0171722D01*
X0274679Y0171694D01*
X0274829Y0171663D01*
X0274978Y0171627D01*
X0275126Y0171588D01*
X0275273Y0171545D01*
X0275419Y0171498D01*
X0275564Y0171447D01*
X0275707Y0171392D01*
X0275849Y0171334D01*
X0275989Y0171272D01*
X0276128Y0171207D01*
X0276265Y0171138D01*
X0276400Y0171065D01*
X0276533Y0170989D01*
X0276664Y0170909D01*
X0276793Y0170827D01*
X0276920Y0170740D01*
X0277045Y0170651D01*
X0277167Y0170558D01*
X0277286Y0170462D01*
X0277404Y0170363D01*
X0277518Y0170262D01*
X0277630Y0170157D01*
X0277739Y0170049D01*
X0277845Y0169938D01*
X0277949Y0169825D01*
X0278049Y0169709D01*
X0278147Y0169591D01*
X0278241Y0169470D01*
X0278332Y0169347D01*
X0278420Y0169221D01*
X0278504Y0169093D01*
X0278586Y0168963D01*
X0278663Y0168831D01*
X0278738Y0168697D01*
X0278809Y0168561D01*
X0278876Y0168423D01*
X0278940Y0168283D01*
X0279000Y0168142D01*
X0279056Y0168000D01*
X0279109Y0167856D01*
X0279158Y0167710D01*
X0279203Y0167564D01*
X0279244Y0167416D01*
X0279281Y0167268D01*
X0279315Y0167118D01*
X0279345Y0166967D01*
X0279370Y0166816D01*
X0279392Y0166665D01*
X0279410Y0166512D01*
X0279424Y0166360D01*
X0279434Y0166207D01*
X0279440Y0166053D01*
X0279442Y0165900D01*
X0279440Y0165747D01*
X0279434Y0165593D01*
X0279424Y0165440D01*
X0279410Y0165288D01*
X0279392Y0165135D01*
X0279370Y0164984D01*
X0279345Y0164833D01*
X0279315Y0164682D01*
X0279281Y0164532D01*
X0279244Y0164384D01*
X0279203Y0164236D01*
X0279158Y0164090D01*
X0279109Y0163944D01*
X0279056Y0163800D01*
X0279000Y0163658D01*
X0278940Y0163517D01*
X0278876Y0163377D01*
X0278809Y0163239D01*
X0278738Y0163103D01*
X0278663Y0162969D01*
X0278586Y0162837D01*
X0278504Y0162707D01*
X0278420Y0162579D01*
X0278332Y0162453D01*
X0278241Y0162330D01*
X0278147Y0162209D01*
X0278049Y0162091D01*
X0277949Y0161975D01*
X0277845Y0161862D01*
X0277739Y0161751D01*
X0277630Y0161643D01*
X0277518Y0161538D01*
X0277404Y0161437D01*
X0277286Y0161338D01*
X0277167Y0161242D01*
X0277045Y0161149D01*
X0276920Y0161060D01*
X0276793Y0160973D01*
X0276664Y0160891D01*
X0276533Y0160811D01*
X0276400Y0160735D01*
X0276265Y0160662D01*
X0276128Y0160593D01*
X0275989Y0160528D01*
X0275849Y0160466D01*
X0275707Y0160408D01*
X0275564Y0160353D01*
X0275419Y0160302D01*
X0275273Y0160255D01*
X0275126Y0160212D01*
X0274978Y0160173D01*
X0274829Y0160137D01*
X0274679Y0160106D01*
X0274528Y0160078D01*
X0274377Y0160054D01*
X0274224Y0160034D01*
X0274072Y0160018D01*
X0273919Y0160006D01*
X0273766Y0159998D01*
X0273613Y0159994D01*
X0273459Y0159994D01*
X0273306Y0159998D01*
X0273153Y0160006D01*
X0273000Y0160018D01*
X0272848Y0160034D01*
X0272695Y0160054D01*
X0272544Y0160078D01*
X0272393Y0160106D01*
X0272243Y0160137D01*
X0272094Y0160173D01*
X0271946Y0160212D01*
X0271799Y0160255D01*
X0271653Y0160302D01*
X0271508Y0160353D01*
X0271365Y0160408D01*
X0271223Y0160466D01*
X0271083Y0160528D01*
X0270944Y0160593D01*
X0270807Y0160662D01*
X0270672Y0160735D01*
X0270539Y0160811D01*
X0270408Y0160891D01*
X0270279Y0160973D01*
X0270152Y0161060D01*
X0270027Y0161149D01*
X0269905Y0161242D01*
X0269786Y0161338D01*
X0269668Y0161437D01*
X0269554Y0161538D01*
X0269442Y0161643D01*
X0269333Y0161751D01*
X0269227Y0161862D01*
X0269123Y0161975D01*
X0269023Y0162091D01*
X0268925Y0162209D01*
X0268831Y0162330D01*
X0268740Y0162453D01*
X0268652Y0162579D01*
X0268568Y0162707D01*
X0268486Y0162837D01*
X0268409Y0162969D01*
X0268334Y0163103D01*
X0268263Y0163239D01*
X0268196Y0163377D01*
X0268132Y0163517D01*
X0268072Y0163658D01*
X0268016Y0163800D01*
X0267963Y0163944D01*
X0267914Y0164090D01*
X0267869Y0164236D01*
X0267828Y0164384D01*
X0267791Y0164532D01*
X0267757Y0164682D01*
X0267727Y0164833D01*
X0267702Y0164984D01*
X0267680Y0165135D01*
X0267662Y0165288D01*
X0267648Y0165440D01*
X0267638Y0165593D01*
X0267632Y0165747D01*
X0267630Y0165900D01*
X0157394Y0055664D02*
X0157396Y0055817D01*
X0157402Y0055971D01*
X0157412Y0056124D01*
X0157426Y0056276D01*
X0157444Y0056429D01*
X0157466Y0056580D01*
X0157491Y0056731D01*
X0157521Y0056882D01*
X0157555Y0057032D01*
X0157592Y0057180D01*
X0157633Y0057328D01*
X0157678Y0057474D01*
X0157727Y0057620D01*
X0157780Y0057764D01*
X0157836Y0057906D01*
X0157896Y0058047D01*
X0157960Y0058187D01*
X0158027Y0058325D01*
X0158098Y0058461D01*
X0158173Y0058595D01*
X0158250Y0058727D01*
X0158332Y0058857D01*
X0158416Y0058985D01*
X0158504Y0059111D01*
X0158595Y0059234D01*
X0158689Y0059355D01*
X0158787Y0059473D01*
X0158887Y0059589D01*
X0158991Y0059702D01*
X0159097Y0059813D01*
X0159206Y0059921D01*
X0159318Y0060026D01*
X0159432Y0060127D01*
X0159550Y0060226D01*
X0159669Y0060322D01*
X0159791Y0060415D01*
X0159916Y0060504D01*
X0160043Y0060591D01*
X0160172Y0060673D01*
X0160303Y0060753D01*
X0160436Y0060829D01*
X0160571Y0060902D01*
X0160708Y0060971D01*
X0160847Y0061036D01*
X0160987Y0061098D01*
X0161129Y0061156D01*
X0161272Y0061211D01*
X0161417Y0061262D01*
X0161563Y0061309D01*
X0161710Y0061352D01*
X0161858Y0061391D01*
X0162007Y0061427D01*
X0162157Y0061458D01*
X0162308Y0061486D01*
X0162459Y0061510D01*
X0162612Y0061530D01*
X0162764Y0061546D01*
X0162917Y0061558D01*
X0163070Y0061566D01*
X0163223Y0061570D01*
X0163377Y0061570D01*
X0163530Y0061566D01*
X0163683Y0061558D01*
X0163836Y0061546D01*
X0163988Y0061530D01*
X0164141Y0061510D01*
X0164292Y0061486D01*
X0164443Y0061458D01*
X0164593Y0061427D01*
X0164742Y0061391D01*
X0164890Y0061352D01*
X0165037Y0061309D01*
X0165183Y0061262D01*
X0165328Y0061211D01*
X0165471Y0061156D01*
X0165613Y0061098D01*
X0165753Y0061036D01*
X0165892Y0060971D01*
X0166029Y0060902D01*
X0166164Y0060829D01*
X0166297Y0060753D01*
X0166428Y0060673D01*
X0166557Y0060591D01*
X0166684Y0060504D01*
X0166809Y0060415D01*
X0166931Y0060322D01*
X0167050Y0060226D01*
X0167168Y0060127D01*
X0167282Y0060026D01*
X0167394Y0059921D01*
X0167503Y0059813D01*
X0167609Y0059702D01*
X0167713Y0059589D01*
X0167813Y0059473D01*
X0167911Y0059355D01*
X0168005Y0059234D01*
X0168096Y0059111D01*
X0168184Y0058985D01*
X0168268Y0058857D01*
X0168350Y0058727D01*
X0168427Y0058595D01*
X0168502Y0058461D01*
X0168573Y0058325D01*
X0168640Y0058187D01*
X0168704Y0058047D01*
X0168764Y0057906D01*
X0168820Y0057764D01*
X0168873Y0057620D01*
X0168922Y0057474D01*
X0168967Y0057328D01*
X0169008Y0057180D01*
X0169045Y0057032D01*
X0169079Y0056882D01*
X0169109Y0056731D01*
X0169134Y0056580D01*
X0169156Y0056429D01*
X0169174Y0056276D01*
X0169188Y0056124D01*
X0169198Y0055971D01*
X0169204Y0055817D01*
X0169206Y0055664D01*
X0169204Y0055511D01*
X0169198Y0055357D01*
X0169188Y0055204D01*
X0169174Y0055052D01*
X0169156Y0054899D01*
X0169134Y0054748D01*
X0169109Y0054597D01*
X0169079Y0054446D01*
X0169045Y0054296D01*
X0169008Y0054148D01*
X0168967Y0054000D01*
X0168922Y0053854D01*
X0168873Y0053708D01*
X0168820Y0053564D01*
X0168764Y0053422D01*
X0168704Y0053281D01*
X0168640Y0053141D01*
X0168573Y0053003D01*
X0168502Y0052867D01*
X0168427Y0052733D01*
X0168350Y0052601D01*
X0168268Y0052471D01*
X0168184Y0052343D01*
X0168096Y0052217D01*
X0168005Y0052094D01*
X0167911Y0051973D01*
X0167813Y0051855D01*
X0167713Y0051739D01*
X0167609Y0051626D01*
X0167503Y0051515D01*
X0167394Y0051407D01*
X0167282Y0051302D01*
X0167168Y0051201D01*
X0167050Y0051102D01*
X0166931Y0051006D01*
X0166809Y0050913D01*
X0166684Y0050824D01*
X0166557Y0050737D01*
X0166428Y0050655D01*
X0166297Y0050575D01*
X0166164Y0050499D01*
X0166029Y0050426D01*
X0165892Y0050357D01*
X0165753Y0050292D01*
X0165613Y0050230D01*
X0165471Y0050172D01*
X0165328Y0050117D01*
X0165183Y0050066D01*
X0165037Y0050019D01*
X0164890Y0049976D01*
X0164742Y0049937D01*
X0164593Y0049901D01*
X0164443Y0049870D01*
X0164292Y0049842D01*
X0164141Y0049818D01*
X0163988Y0049798D01*
X0163836Y0049782D01*
X0163683Y0049770D01*
X0163530Y0049762D01*
X0163377Y0049758D01*
X0163223Y0049758D01*
X0163070Y0049762D01*
X0162917Y0049770D01*
X0162764Y0049782D01*
X0162612Y0049798D01*
X0162459Y0049818D01*
X0162308Y0049842D01*
X0162157Y0049870D01*
X0162007Y0049901D01*
X0161858Y0049937D01*
X0161710Y0049976D01*
X0161563Y0050019D01*
X0161417Y0050066D01*
X0161272Y0050117D01*
X0161129Y0050172D01*
X0160987Y0050230D01*
X0160847Y0050292D01*
X0160708Y0050357D01*
X0160571Y0050426D01*
X0160436Y0050499D01*
X0160303Y0050575D01*
X0160172Y0050655D01*
X0160043Y0050737D01*
X0159916Y0050824D01*
X0159791Y0050913D01*
X0159669Y0051006D01*
X0159550Y0051102D01*
X0159432Y0051201D01*
X0159318Y0051302D01*
X0159206Y0051407D01*
X0159097Y0051515D01*
X0158991Y0051626D01*
X0158887Y0051739D01*
X0158787Y0051855D01*
X0158689Y0051973D01*
X0158595Y0052094D01*
X0158504Y0052217D01*
X0158416Y0052343D01*
X0158332Y0052471D01*
X0158250Y0052601D01*
X0158173Y0052733D01*
X0158098Y0052867D01*
X0158027Y0053003D01*
X0157960Y0053141D01*
X0157896Y0053281D01*
X0157836Y0053422D01*
X0157780Y0053564D01*
X0157727Y0053708D01*
X0157678Y0053854D01*
X0157633Y0054000D01*
X0157592Y0054148D01*
X0157555Y0054296D01*
X0157521Y0054446D01*
X0157491Y0054597D01*
X0157466Y0054748D01*
X0157444Y0054899D01*
X0157426Y0055052D01*
X0157412Y0055204D01*
X0157402Y0055357D01*
X0157396Y0055511D01*
X0157394Y0055664D01*
X0137246Y0078461D02*
X0137248Y0078530D01*
X0137254Y0078598D01*
X0137264Y0078666D01*
X0137278Y0078733D01*
X0137296Y0078800D01*
X0137317Y0078865D01*
X0137343Y0078929D01*
X0137372Y0078991D01*
X0137404Y0079051D01*
X0137440Y0079110D01*
X0137480Y0079166D01*
X0137522Y0079220D01*
X0137568Y0079271D01*
X0137617Y0079320D01*
X0137668Y0079366D01*
X0137722Y0079408D01*
X0137778Y0079448D01*
X0137836Y0079484D01*
X0137897Y0079516D01*
X0137959Y0079545D01*
X0138023Y0079571D01*
X0138088Y0079592D01*
X0138155Y0079610D01*
X0138222Y0079624D01*
X0138290Y0079634D01*
X0138358Y0079640D01*
X0138427Y0079642D01*
X0138496Y0079640D01*
X0138564Y0079634D01*
X0138632Y0079624D01*
X0138699Y0079610D01*
X0138766Y0079592D01*
X0138831Y0079571D01*
X0138895Y0079545D01*
X0138957Y0079516D01*
X0139017Y0079484D01*
X0139076Y0079448D01*
X0139132Y0079408D01*
X0139186Y0079366D01*
X0139237Y0079320D01*
X0139286Y0079271D01*
X0139332Y0079220D01*
X0139374Y0079166D01*
X0139414Y0079110D01*
X0139450Y0079051D01*
X0139482Y0078991D01*
X0139511Y0078929D01*
X0139537Y0078865D01*
X0139558Y0078800D01*
X0139576Y0078733D01*
X0139590Y0078666D01*
X0139600Y0078598D01*
X0139606Y0078530D01*
X0139608Y0078461D01*
X0139606Y0078392D01*
X0139600Y0078324D01*
X0139590Y0078256D01*
X0139576Y0078189D01*
X0139558Y0078122D01*
X0139537Y0078057D01*
X0139511Y0077993D01*
X0139482Y0077931D01*
X0139450Y0077870D01*
X0139414Y0077812D01*
X0139374Y0077756D01*
X0139332Y0077702D01*
X0139286Y0077651D01*
X0139237Y0077602D01*
X0139186Y0077556D01*
X0139132Y0077514D01*
X0139076Y0077474D01*
X0139018Y0077438D01*
X0138957Y0077406D01*
X0138895Y0077377D01*
X0138831Y0077351D01*
X0138766Y0077330D01*
X0138699Y0077312D01*
X0138632Y0077298D01*
X0138564Y0077288D01*
X0138496Y0077282D01*
X0138427Y0077280D01*
X0138358Y0077282D01*
X0138290Y0077288D01*
X0138222Y0077298D01*
X0138155Y0077312D01*
X0138088Y0077330D01*
X0138023Y0077351D01*
X0137959Y0077377D01*
X0137897Y0077406D01*
X0137836Y0077438D01*
X0137778Y0077474D01*
X0137722Y0077514D01*
X0137668Y0077556D01*
X0137617Y0077602D01*
X0137568Y0077651D01*
X0137522Y0077702D01*
X0137480Y0077756D01*
X0137440Y0077812D01*
X0137404Y0077870D01*
X0137372Y0077931D01*
X0137343Y0077993D01*
X0137317Y0078057D01*
X0137296Y0078122D01*
X0137278Y0078189D01*
X0137264Y0078256D01*
X0137254Y0078324D01*
X0137248Y0078392D01*
X0137246Y0078461D01*
X0130819Y0070801D02*
X0130821Y0070870D01*
X0130827Y0070938D01*
X0130837Y0071006D01*
X0130851Y0071073D01*
X0130869Y0071140D01*
X0130890Y0071205D01*
X0130916Y0071269D01*
X0130945Y0071331D01*
X0130977Y0071391D01*
X0131013Y0071450D01*
X0131053Y0071506D01*
X0131095Y0071560D01*
X0131141Y0071611D01*
X0131190Y0071660D01*
X0131241Y0071706D01*
X0131295Y0071748D01*
X0131351Y0071788D01*
X0131409Y0071824D01*
X0131470Y0071856D01*
X0131532Y0071885D01*
X0131596Y0071911D01*
X0131661Y0071932D01*
X0131728Y0071950D01*
X0131795Y0071964D01*
X0131863Y0071974D01*
X0131931Y0071980D01*
X0132000Y0071982D01*
X0132069Y0071980D01*
X0132137Y0071974D01*
X0132205Y0071964D01*
X0132272Y0071950D01*
X0132339Y0071932D01*
X0132404Y0071911D01*
X0132468Y0071885D01*
X0132530Y0071856D01*
X0132590Y0071824D01*
X0132649Y0071788D01*
X0132705Y0071748D01*
X0132759Y0071706D01*
X0132810Y0071660D01*
X0132859Y0071611D01*
X0132905Y0071560D01*
X0132947Y0071506D01*
X0132987Y0071450D01*
X0133023Y0071391D01*
X0133055Y0071331D01*
X0133084Y0071269D01*
X0133110Y0071205D01*
X0133131Y0071140D01*
X0133149Y0071073D01*
X0133163Y0071006D01*
X0133173Y0070938D01*
X0133179Y0070870D01*
X0133181Y0070801D01*
X0133179Y0070732D01*
X0133173Y0070664D01*
X0133163Y0070596D01*
X0133149Y0070529D01*
X0133131Y0070462D01*
X0133110Y0070397D01*
X0133084Y0070333D01*
X0133055Y0070271D01*
X0133023Y0070210D01*
X0132987Y0070152D01*
X0132947Y0070096D01*
X0132905Y0070042D01*
X0132859Y0069991D01*
X0132810Y0069942D01*
X0132759Y0069896D01*
X0132705Y0069854D01*
X0132649Y0069814D01*
X0132591Y0069778D01*
X0132530Y0069746D01*
X0132468Y0069717D01*
X0132404Y0069691D01*
X0132339Y0069670D01*
X0132272Y0069652D01*
X0132205Y0069638D01*
X0132137Y0069628D01*
X0132069Y0069622D01*
X0132000Y0069620D01*
X0131931Y0069622D01*
X0131863Y0069628D01*
X0131795Y0069638D01*
X0131728Y0069652D01*
X0131661Y0069670D01*
X0131596Y0069691D01*
X0131532Y0069717D01*
X0131470Y0069746D01*
X0131409Y0069778D01*
X0131351Y0069814D01*
X0131295Y0069854D01*
X0131241Y0069896D01*
X0131190Y0069942D01*
X0131141Y0069991D01*
X0131095Y0070042D01*
X0131053Y0070096D01*
X0131013Y0070152D01*
X0130977Y0070210D01*
X0130945Y0070271D01*
X0130916Y0070333D01*
X0130890Y0070397D01*
X0130869Y0070462D01*
X0130851Y0070529D01*
X0130837Y0070596D01*
X0130827Y0070664D01*
X0130821Y0070732D01*
X0130819Y0070801D01*
X0077195Y0115796D02*
X0077197Y0115865D01*
X0077203Y0115933D01*
X0077213Y0116001D01*
X0077227Y0116068D01*
X0077245Y0116135D01*
X0077266Y0116200D01*
X0077292Y0116264D01*
X0077321Y0116326D01*
X0077353Y0116386D01*
X0077389Y0116445D01*
X0077429Y0116501D01*
X0077471Y0116555D01*
X0077517Y0116606D01*
X0077566Y0116655D01*
X0077617Y0116701D01*
X0077671Y0116743D01*
X0077727Y0116783D01*
X0077785Y0116819D01*
X0077846Y0116851D01*
X0077908Y0116880D01*
X0077972Y0116906D01*
X0078037Y0116927D01*
X0078104Y0116945D01*
X0078171Y0116959D01*
X0078239Y0116969D01*
X0078307Y0116975D01*
X0078376Y0116977D01*
X0078445Y0116975D01*
X0078513Y0116969D01*
X0078581Y0116959D01*
X0078648Y0116945D01*
X0078715Y0116927D01*
X0078780Y0116906D01*
X0078844Y0116880D01*
X0078906Y0116851D01*
X0078966Y0116819D01*
X0079025Y0116783D01*
X0079081Y0116743D01*
X0079135Y0116701D01*
X0079186Y0116655D01*
X0079235Y0116606D01*
X0079281Y0116555D01*
X0079323Y0116501D01*
X0079363Y0116445D01*
X0079399Y0116386D01*
X0079431Y0116326D01*
X0079460Y0116264D01*
X0079486Y0116200D01*
X0079507Y0116135D01*
X0079525Y0116068D01*
X0079539Y0116001D01*
X0079549Y0115933D01*
X0079555Y0115865D01*
X0079557Y0115796D01*
X0079555Y0115727D01*
X0079549Y0115659D01*
X0079539Y0115591D01*
X0079525Y0115524D01*
X0079507Y0115457D01*
X0079486Y0115392D01*
X0079460Y0115328D01*
X0079431Y0115266D01*
X0079399Y0115205D01*
X0079363Y0115147D01*
X0079323Y0115091D01*
X0079281Y0115037D01*
X0079235Y0114986D01*
X0079186Y0114937D01*
X0079135Y0114891D01*
X0079081Y0114849D01*
X0079025Y0114809D01*
X0078967Y0114773D01*
X0078906Y0114741D01*
X0078844Y0114712D01*
X0078780Y0114686D01*
X0078715Y0114665D01*
X0078648Y0114647D01*
X0078581Y0114633D01*
X0078513Y0114623D01*
X0078445Y0114617D01*
X0078376Y0114615D01*
X0078307Y0114617D01*
X0078239Y0114623D01*
X0078171Y0114633D01*
X0078104Y0114647D01*
X0078037Y0114665D01*
X0077972Y0114686D01*
X0077908Y0114712D01*
X0077846Y0114741D01*
X0077785Y0114773D01*
X0077727Y0114809D01*
X0077671Y0114849D01*
X0077617Y0114891D01*
X0077566Y0114937D01*
X0077517Y0114986D01*
X0077471Y0115037D01*
X0077429Y0115091D01*
X0077389Y0115147D01*
X0077353Y0115205D01*
X0077321Y0115266D01*
X0077292Y0115328D01*
X0077266Y0115392D01*
X0077245Y0115457D01*
X0077227Y0115524D01*
X0077213Y0115591D01*
X0077203Y0115659D01*
X0077197Y0115727D01*
X0077195Y0115796D01*
X0083623Y0123457D02*
X0083625Y0123526D01*
X0083631Y0123594D01*
X0083641Y0123662D01*
X0083655Y0123729D01*
X0083673Y0123796D01*
X0083694Y0123861D01*
X0083720Y0123925D01*
X0083749Y0123987D01*
X0083781Y0124047D01*
X0083817Y0124106D01*
X0083857Y0124162D01*
X0083899Y0124216D01*
X0083945Y0124267D01*
X0083994Y0124316D01*
X0084045Y0124362D01*
X0084099Y0124404D01*
X0084155Y0124444D01*
X0084213Y0124480D01*
X0084274Y0124512D01*
X0084336Y0124541D01*
X0084400Y0124567D01*
X0084465Y0124588D01*
X0084532Y0124606D01*
X0084599Y0124620D01*
X0084667Y0124630D01*
X0084735Y0124636D01*
X0084804Y0124638D01*
X0084873Y0124636D01*
X0084941Y0124630D01*
X0085009Y0124620D01*
X0085076Y0124606D01*
X0085143Y0124588D01*
X0085208Y0124567D01*
X0085272Y0124541D01*
X0085334Y0124512D01*
X0085394Y0124480D01*
X0085453Y0124444D01*
X0085509Y0124404D01*
X0085563Y0124362D01*
X0085614Y0124316D01*
X0085663Y0124267D01*
X0085709Y0124216D01*
X0085751Y0124162D01*
X0085791Y0124106D01*
X0085827Y0124047D01*
X0085859Y0123987D01*
X0085888Y0123925D01*
X0085914Y0123861D01*
X0085935Y0123796D01*
X0085953Y0123729D01*
X0085967Y0123662D01*
X0085977Y0123594D01*
X0085983Y0123526D01*
X0085985Y0123457D01*
X0085983Y0123388D01*
X0085977Y0123320D01*
X0085967Y0123252D01*
X0085953Y0123185D01*
X0085935Y0123118D01*
X0085914Y0123053D01*
X0085888Y0122989D01*
X0085859Y0122927D01*
X0085827Y0122866D01*
X0085791Y0122808D01*
X0085751Y0122752D01*
X0085709Y0122698D01*
X0085663Y0122647D01*
X0085614Y0122598D01*
X0085563Y0122552D01*
X0085509Y0122510D01*
X0085453Y0122470D01*
X0085395Y0122434D01*
X0085334Y0122402D01*
X0085272Y0122373D01*
X0085208Y0122347D01*
X0085143Y0122326D01*
X0085076Y0122308D01*
X0085009Y0122294D01*
X0084941Y0122284D01*
X0084873Y0122278D01*
X0084804Y0122276D01*
X0084735Y0122278D01*
X0084667Y0122284D01*
X0084599Y0122294D01*
X0084532Y0122308D01*
X0084465Y0122326D01*
X0084400Y0122347D01*
X0084336Y0122373D01*
X0084274Y0122402D01*
X0084213Y0122434D01*
X0084155Y0122470D01*
X0084099Y0122510D01*
X0084045Y0122552D01*
X0083994Y0122598D01*
X0083945Y0122647D01*
X0083899Y0122698D01*
X0083857Y0122752D01*
X0083817Y0122808D01*
X0083781Y0122866D01*
X0083749Y0122927D01*
X0083720Y0122989D01*
X0083694Y0123053D01*
X0083673Y0123118D01*
X0083655Y0123185D01*
X0083641Y0123252D01*
X0083631Y0123320D01*
X0083625Y0123388D01*
X0083623Y0123457D01*
D12*
X0096295Y0113815D02*
X0100125Y0110601D01*
X0084056Y0091450D01*
X0077011Y0090833D01*
X0096295Y0113815D01*
X0097428Y0126925D02*
X0080238Y0141350D01*
X0030890Y0082539D01*
X0030739Y0082666D01*
X0030890Y0082539D02*
X0107494Y0018261D01*
X0156842Y0077071D01*
X0139651Y0091496D01*
X0145978Y0099036D01*
X0103755Y0134465D01*
X0097428Y0126925D01*
X0064793Y0088032D01*
X0066753Y0086387D01*
X0063539Y0082557D01*
X0067370Y0079343D02*
X0070584Y0083173D01*
X0074414Y0079959D01*
X0071200Y0076129D01*
X0074414Y0079959D02*
X0078244Y0076745D01*
X0075030Y0072915D01*
X0078244Y0076745D02*
X0082074Y0073531D01*
X0078860Y0069701D01*
X0082074Y0073531D02*
X0085904Y0070317D01*
X0082690Y0066487D01*
X0085904Y0070317D02*
X0089735Y0067103D01*
X0086521Y0063273D01*
X0090351Y0060059D02*
X0093565Y0063889D01*
X0097395Y0060675D01*
X0094181Y0056845D01*
X0098011Y0053631D02*
X0101225Y0057461D01*
X0105056Y0054248D01*
X0101842Y0050417D01*
X0105056Y0054248D02*
X0107016Y0052603D01*
X0139651Y0091496D01*
X0143177Y0099477D02*
X0146324Y0103026D01*
X0141677Y0102075D01*
X0142839Y0102312D02*
X0143964Y0100364D01*
X0142838Y0105314D02*
X0141501Y0106130D01*
X0140127Y0104759D02*
X0140172Y0104684D01*
X0140221Y0104611D01*
X0140272Y0104540D01*
X0140327Y0104471D01*
X0140384Y0104404D01*
X0140444Y0104340D01*
X0140507Y0104279D01*
X0140572Y0104220D01*
X0140639Y0104164D01*
X0140709Y0104110D01*
X0140781Y0104060D01*
X0140855Y0104013D01*
X0140931Y0103969D01*
X0141008Y0103928D01*
X0141087Y0103890D01*
X0141168Y0103855D01*
X0141250Y0103824D01*
X0141334Y0103797D01*
X0141418Y0103773D01*
X0141501Y0106130D02*
X0141446Y0106159D01*
X0141390Y0106185D01*
X0141332Y0106207D01*
X0141272Y0106225D01*
X0141212Y0106240D01*
X0141151Y0106251D01*
X0141089Y0106258D01*
X0141027Y0106262D01*
X0140965Y0106261D01*
X0140904Y0106257D01*
X0140842Y0106249D01*
X0140781Y0106238D01*
X0140721Y0106223D01*
X0140662Y0106204D01*
X0140604Y0106181D01*
X0140548Y0106155D01*
X0140493Y0106126D01*
X0140493Y0106125D02*
X0140440Y0106092D01*
X0140388Y0106056D01*
X0140340Y0106016D01*
X0140293Y0105973D01*
X0140250Y0105928D01*
X0140209Y0105880D01*
X0140172Y0105830D01*
X0140138Y0105777D01*
X0140107Y0105722D01*
X0140079Y0105666D01*
X0140056Y0105608D01*
X0140036Y0105548D01*
X0140019Y0105487D01*
X0140007Y0105426D01*
X0139998Y0105364D01*
X0139994Y0105301D01*
X0139993Y0105238D01*
X0139997Y0105175D01*
X0140004Y0105113D01*
X0140015Y0105051D01*
X0140030Y0104990D01*
X0140049Y0104930D01*
X0140071Y0104871D01*
X0140097Y0104814D01*
X0140127Y0104759D01*
X0143324Y0107471D02*
X0143398Y0107438D01*
X0143470Y0107402D01*
X0143540Y0107363D01*
X0143608Y0107320D01*
X0143675Y0107275D01*
X0143739Y0107227D01*
X0143802Y0107176D01*
X0143862Y0107123D01*
X0143920Y0107067D01*
X0143975Y0107009D01*
X0144028Y0106948D01*
X0144078Y0106885D01*
X0144125Y0106820D01*
X0144170Y0106753D01*
X0144212Y0106684D01*
X0144211Y0106685D02*
X0144241Y0106630D01*
X0144267Y0106573D01*
X0144289Y0106514D01*
X0144308Y0106454D01*
X0144323Y0106393D01*
X0144334Y0106331D01*
X0144341Y0106269D01*
X0144345Y0106206D01*
X0144344Y0106143D01*
X0144340Y0106080D01*
X0144331Y0106018D01*
X0144319Y0105957D01*
X0144302Y0105896D01*
X0144282Y0105836D01*
X0144259Y0105778D01*
X0144231Y0105722D01*
X0144200Y0105667D01*
X0144166Y0105614D01*
X0144129Y0105564D01*
X0144088Y0105516D01*
X0144045Y0105471D01*
X0143998Y0105428D01*
X0143950Y0105388D01*
X0143898Y0105352D01*
X0143845Y0105319D01*
X0143846Y0105318D02*
X0143791Y0105289D01*
X0143735Y0105263D01*
X0143677Y0105240D01*
X0143618Y0105221D01*
X0143558Y0105206D01*
X0143497Y0105195D01*
X0143435Y0105187D01*
X0143374Y0105183D01*
X0143312Y0105182D01*
X0143250Y0105186D01*
X0143188Y0105193D01*
X0143127Y0105204D01*
X0143067Y0105219D01*
X0143007Y0105237D01*
X0142949Y0105259D01*
X0142893Y0105285D01*
X0142838Y0105314D01*
X0138369Y0106804D02*
X0137369Y0108536D01*
X0136811Y0110503D02*
X0140708Y0112753D01*
X0140083Y0113836D01*
X0140046Y0113895D01*
X0140007Y0113951D01*
X0139965Y0114006D01*
X0139920Y0114058D01*
X0139872Y0114107D01*
X0139821Y0114154D01*
X0139768Y0114197D01*
X0139712Y0114238D01*
X0139655Y0114276D01*
X0139595Y0114310D01*
X0139533Y0114341D01*
X0139470Y0114369D01*
X0139406Y0114393D01*
X0139340Y0114414D01*
X0139273Y0114431D01*
X0139206Y0114444D01*
X0139138Y0114453D01*
X0139069Y0114459D01*
X0139000Y0114461D01*
X0138931Y0114459D01*
X0138862Y0114453D01*
X0138794Y0114444D01*
X0138727Y0114431D01*
X0138660Y0114414D01*
X0138594Y0114393D01*
X0138530Y0114369D01*
X0138467Y0114341D01*
X0138405Y0114310D01*
X0138345Y0114276D01*
X0138288Y0114238D01*
X0138232Y0114197D01*
X0138179Y0114154D01*
X0138128Y0114107D01*
X0138080Y0114058D01*
X0138035Y0114006D01*
X0137993Y0113951D01*
X0137954Y0113895D01*
X0137917Y0113836D01*
X0137885Y0113775D01*
X0137855Y0113713D01*
X0137829Y0113649D01*
X0137807Y0113584D01*
X0137788Y0113518D01*
X0137773Y0113451D01*
X0137762Y0113383D01*
X0137754Y0113314D01*
X0137750Y0113245D01*
X0137750Y0113177D01*
X0137754Y0113108D01*
X0137762Y0113039D01*
X0137773Y0112971D01*
X0137788Y0112904D01*
X0137807Y0112838D01*
X0137829Y0112773D01*
X0137855Y0112709D01*
X0137885Y0112647D01*
X0137917Y0112586D01*
X0137918Y0112586D02*
X0138543Y0111503D01*
X0137793Y0112802D02*
X0135561Y0112668D01*
X0134497Y0114511D02*
X0138394Y0116761D01*
X0137394Y0118493D01*
X0135912Y0117060D02*
X0136662Y0115761D01*
X0134497Y0114511D02*
X0133497Y0116243D01*
X0132627Y0117750D02*
X0131377Y0119915D01*
X0132627Y0117750D02*
X0133729Y0120840D01*
X0135836Y0121190D02*
X0135871Y0121127D01*
X0135903Y0121061D01*
X0135931Y0120994D01*
X0135956Y0120926D01*
X0135977Y0120856D01*
X0135995Y0120786D01*
X0136009Y0120715D01*
X0136019Y0120643D01*
X0136026Y0120570D01*
X0136030Y0120498D01*
X0136029Y0120425D01*
X0136025Y0120352D01*
X0136018Y0120280D01*
X0136006Y0120208D01*
X0135992Y0120137D01*
X0135973Y0120067D01*
X0135951Y0119998D01*
X0135926Y0119930D01*
X0135897Y0119863D01*
X0135865Y0119798D01*
X0135830Y0119734D01*
X0135791Y0119672D01*
X0135750Y0119613D01*
X0135705Y0119555D01*
X0135658Y0119500D01*
X0133730Y0120840D02*
X0133747Y0120903D01*
X0133767Y0120965D01*
X0133791Y0121026D01*
X0133818Y0121085D01*
X0133848Y0121143D01*
X0133881Y0121199D01*
X0133918Y0121253D01*
X0133957Y0121305D01*
X0133998Y0121356D01*
X0134043Y0121403D01*
X0134090Y0121448D01*
X0134139Y0121491D01*
X0134191Y0121531D01*
X0134244Y0121568D01*
X0134300Y0121602D01*
X0134357Y0121633D01*
X0134416Y0121661D01*
X0134477Y0121685D01*
X0134539Y0121706D01*
X0134603Y0121723D01*
X0134667Y0121736D01*
X0134731Y0121745D01*
X0134797Y0121751D01*
X0134862Y0121753D01*
X0134927Y0121751D01*
X0134993Y0121745D01*
X0135057Y0121736D01*
X0135121Y0121723D01*
X0135185Y0121706D01*
X0135247Y0121685D01*
X0135308Y0121661D01*
X0135367Y0121633D01*
X0135425Y0121602D01*
X0135480Y0121568D01*
X0135534Y0121530D01*
X0135585Y0121490D01*
X0135634Y0121446D01*
X0135680Y0121400D01*
X0135724Y0121351D01*
X0135764Y0121300D01*
X0135802Y0121246D01*
X0135836Y0121190D01*
X0126937Y0088103D02*
X0130767Y0084889D01*
X0111483Y0061908D01*
X0110867Y0068952D01*
X0126937Y0088103D01*
X0101225Y0057461D02*
X0097395Y0060675D01*
X0093565Y0063889D02*
X0089735Y0067103D01*
X0070584Y0083173D02*
X0066753Y0086387D01*
X0064866Y0049675D02*
X0065823Y0048872D01*
X0062931Y0045424D01*
X0061973Y0046228D01*
X0061974Y0046227D02*
X0061923Y0046272D01*
X0061875Y0046320D01*
X0061829Y0046370D01*
X0061786Y0046423D01*
X0061747Y0046477D01*
X0061710Y0046534D01*
X0061676Y0046593D01*
X0061646Y0046653D01*
X0061619Y0046715D01*
X0061595Y0046779D01*
X0061575Y0046843D01*
X0061558Y0046909D01*
X0061545Y0046975D01*
X0061535Y0047042D01*
X0061529Y0047110D01*
X0061527Y0047177D01*
X0061528Y0047245D01*
X0061534Y0047313D01*
X0061542Y0047380D01*
X0061555Y0047446D01*
X0061571Y0047512D01*
X0061590Y0047577D01*
X0061613Y0047641D01*
X0061639Y0047703D01*
X0061669Y0047764D01*
X0061702Y0047823D01*
X0061738Y0047880D01*
X0061777Y0047935D01*
X0061819Y0047988D01*
X0061819Y0047989D02*
X0063105Y0049521D01*
X0063104Y0049520D02*
X0063151Y0049573D01*
X0063200Y0049623D01*
X0063253Y0049670D01*
X0063307Y0049713D01*
X0063364Y0049754D01*
X0063424Y0049792D01*
X0063485Y0049826D01*
X0063548Y0049856D01*
X0063613Y0049883D01*
X0063679Y0049907D01*
X0063746Y0049926D01*
X0063814Y0049942D01*
X0063883Y0049954D01*
X0063953Y0049962D01*
X0064023Y0049966D01*
X0064093Y0049967D01*
X0064163Y0049963D01*
X0064233Y0049955D01*
X0064302Y0049944D01*
X0064370Y0049928D01*
X0064438Y0049909D01*
X0064504Y0049886D01*
X0064569Y0049860D01*
X0064632Y0049829D01*
X0064694Y0049796D01*
X0064753Y0049759D01*
X0064811Y0049718D01*
X0064865Y0049675D01*
X0066051Y0045254D02*
X0067587Y0044944D01*
X0068408Y0046702D02*
X0068345Y0046753D01*
X0068281Y0046800D01*
X0068214Y0046845D01*
X0068145Y0046887D01*
X0068075Y0046926D01*
X0068003Y0046962D01*
X0067929Y0046995D01*
X0067855Y0047024D01*
X0067779Y0047050D01*
X0067702Y0047073D01*
X0067624Y0047093D01*
X0067545Y0047110D01*
X0067466Y0047123D01*
X0067386Y0047132D01*
X0067305Y0047138D01*
X0067587Y0044944D02*
X0067648Y0044936D01*
X0067710Y0044931D01*
X0067772Y0044930D01*
X0067834Y0044933D01*
X0067896Y0044940D01*
X0067957Y0044950D01*
X0068017Y0044965D01*
X0068076Y0044983D01*
X0068135Y0045004D01*
X0068191Y0045029D01*
X0068247Y0045057D01*
X0068300Y0045089D01*
X0068351Y0045124D01*
X0068400Y0045162D01*
X0068447Y0045203D01*
X0068491Y0045247D01*
X0068532Y0045293D01*
X0068569Y0045341D01*
X0068604Y0045390D01*
X0068635Y0045442D01*
X0068664Y0045495D01*
X0068689Y0045550D01*
X0068710Y0045607D01*
X0068728Y0045664D01*
X0068743Y0045723D01*
X0068754Y0045782D01*
X0068762Y0045842D01*
X0068765Y0045902D01*
X0068766Y0045963D01*
X0068762Y0046023D01*
X0068755Y0046083D01*
X0068744Y0046143D01*
X0068730Y0046201D01*
X0068712Y0046259D01*
X0068691Y0046316D01*
X0068667Y0046371D01*
X0068639Y0046424D01*
X0068608Y0046476D01*
X0068573Y0046526D01*
X0068536Y0046574D01*
X0068496Y0046619D01*
X0068454Y0046662D01*
X0068409Y0046702D01*
X0066780Y0043011D02*
X0066692Y0043005D01*
X0066605Y0043002D01*
X0066517Y0043003D01*
X0066429Y0043008D01*
X0066342Y0043016D01*
X0066255Y0043028D01*
X0066169Y0043044D01*
X0066083Y0043063D01*
X0065998Y0043086D01*
X0065914Y0043112D01*
X0065832Y0043142D01*
X0065750Y0043175D01*
X0065671Y0043211D01*
X0065592Y0043251D01*
X0065516Y0043294D01*
X0065441Y0043340D01*
X0065368Y0043389D01*
X0065298Y0043441D01*
X0065229Y0043496D01*
X0065182Y0043538D01*
X0065138Y0043583D01*
X0065097Y0043630D01*
X0065059Y0043680D01*
X0065024Y0043732D01*
X0064992Y0043786D01*
X0064964Y0043843D01*
X0064940Y0043900D01*
X0064919Y0043960D01*
X0064902Y0044020D01*
X0064888Y0044081D01*
X0064879Y0044144D01*
X0064874Y0044206D01*
X0064872Y0044269D01*
X0064874Y0044332D01*
X0064881Y0044394D01*
X0064891Y0044456D01*
X0064905Y0044517D01*
X0064923Y0044578D01*
X0064945Y0044637D01*
X0064970Y0044694D01*
X0064999Y0044750D01*
X0065031Y0044804D01*
X0065067Y0044855D01*
X0065106Y0044905D01*
X0065147Y0044951D01*
X0065191Y0044995D01*
X0065238Y0045036D01*
X0065287Y0045074D01*
X0065338Y0045109D01*
X0065391Y0045141D01*
X0065447Y0045169D01*
X0065503Y0045194D01*
X0065562Y0045215D01*
X0065621Y0045233D01*
X0065681Y0045248D01*
X0065742Y0045258D01*
X0065804Y0045265D01*
X0065866Y0045268D01*
X0065928Y0045267D01*
X0065990Y0045262D01*
X0066052Y0045254D01*
X0107494Y0018261D02*
X0107645Y0018134D01*
X0218426Y0065448D02*
X0281646Y0101948D01*
X0182646Y0273421D01*
X0119426Y0236921D01*
X0218426Y0065448D01*
X0230716Y0077162D02*
X0235046Y0079662D01*
X0230046Y0088323D01*
X0232974Y0099251D01*
X0245098Y0106251D01*
X0256027Y0103323D01*
X0260357Y0105823D01*
X0265357Y0097162D01*
X0261027Y0094662D01*
X0263527Y0090332D01*
X0256696Y0092162D01*
X0239376Y0082162D01*
X0237546Y0075332D01*
X0235046Y0079662D01*
X0230716Y0077162D02*
X0225716Y0085823D01*
X0230046Y0088323D01*
X0234376Y0090823D02*
X0236206Y0097653D01*
X0244866Y0102653D01*
X0251696Y0100823D01*
X0256696Y0092162D01*
X0261027Y0094662D02*
X0256027Y0103323D01*
X0263527Y0090332D02*
X0237546Y0075332D01*
X0239376Y0082162D02*
X0234376Y0090823D01*
X0182546Y0170595D02*
X0208527Y0185595D01*
X0193527Y0211576D01*
X0167546Y0196576D01*
X0182546Y0170595D01*
X0184376Y0177425D02*
X0201696Y0187425D01*
X0191696Y0204746D01*
X0174376Y0194746D01*
X0184376Y0177425D01*
X0145046Y0235547D02*
X0140716Y0233047D01*
X0135716Y0241707D01*
X0140046Y0244207D01*
X0144376Y0246707D01*
X0149376Y0238047D01*
X0145046Y0235547D01*
X0140046Y0244207D01*
X0144376Y0246707D02*
X0141876Y0251037D01*
X0159196Y0261037D01*
X0161696Y0256707D01*
X0166027Y0259207D01*
X0170357Y0261707D01*
X0175357Y0253047D01*
X0171027Y0250547D01*
X0166696Y0248047D01*
X0161696Y0256707D01*
X0166027Y0259207D02*
X0171027Y0250547D01*
X0166696Y0248047D02*
X0149376Y0238047D01*
X0100559Y0279731D02*
X0069917Y0254020D01*
X0050634Y0277001D01*
X0081275Y0302713D01*
X0100559Y0279731D01*
X0100001Y0287275D02*
X0096739Y0290719D01*
X0095682Y0288847D02*
X0096527Y0287034D01*
X0096555Y0286970D01*
X0096579Y0286904D01*
X0096599Y0286837D01*
X0096616Y0286769D01*
X0096629Y0286700D01*
X0096638Y0286630D01*
X0096643Y0286561D01*
X0096644Y0286490D01*
X0096641Y0286420D01*
X0096634Y0286351D01*
X0096624Y0286281D01*
X0096609Y0286213D01*
X0096591Y0286145D01*
X0096569Y0286078D01*
X0096543Y0286013D01*
X0096513Y0285950D01*
X0096480Y0285888D01*
X0096444Y0285828D01*
X0096404Y0285770D01*
X0096361Y0285715D01*
X0096316Y0285662D01*
X0096267Y0285611D01*
X0096215Y0285564D01*
X0096161Y0285519D01*
X0096105Y0285478D01*
X0096046Y0285439D01*
X0095985Y0285405D01*
X0095922Y0285373D01*
X0095858Y0285345D01*
X0095792Y0285321D01*
X0095725Y0285301D01*
X0095657Y0285284D01*
X0095588Y0285271D01*
X0095518Y0285262D01*
X0095449Y0285257D01*
X0095378Y0285256D01*
X0095308Y0285259D01*
X0095239Y0285266D01*
X0095169Y0285276D01*
X0095101Y0285291D01*
X0095033Y0285309D01*
X0094966Y0285331D01*
X0094901Y0285357D01*
X0094838Y0285387D01*
X0094776Y0285420D01*
X0094716Y0285456D01*
X0094658Y0285496D01*
X0094603Y0285539D01*
X0094550Y0285584D01*
X0094499Y0285633D01*
X0094452Y0285685D01*
X0094407Y0285739D01*
X0094366Y0285795D01*
X0094327Y0285854D01*
X0094293Y0285915D01*
X0094261Y0285978D01*
X0094261Y0285977D02*
X0093416Y0287790D01*
X0093389Y0287853D01*
X0093365Y0287918D01*
X0093345Y0287983D01*
X0093328Y0288050D01*
X0093315Y0288118D01*
X0093306Y0288186D01*
X0093301Y0288255D01*
X0093299Y0288324D01*
X0093301Y0288393D01*
X0093307Y0288461D01*
X0093317Y0288529D01*
X0093331Y0288597D01*
X0093348Y0288664D01*
X0093369Y0288729D01*
X0093393Y0288794D01*
X0093421Y0288857D01*
X0093452Y0288918D01*
X0093487Y0288977D01*
X0093525Y0289035D01*
X0093566Y0289090D01*
X0093610Y0289143D01*
X0093657Y0289194D01*
X0093707Y0289242D01*
X0093759Y0289287D01*
X0093813Y0289329D01*
X0093870Y0289368D01*
X0093929Y0289403D01*
X0093990Y0289436D01*
X0094052Y0289465D01*
X0094116Y0289491D01*
X0094181Y0289513D01*
X0094248Y0289531D01*
X0094315Y0289546D01*
X0094383Y0289557D01*
X0094452Y0289564D01*
X0094520Y0289568D01*
X0094589Y0289567D01*
X0094658Y0289563D01*
X0094726Y0289555D01*
X0094794Y0289544D01*
X0094861Y0289528D01*
X0094928Y0289509D01*
X0094993Y0289487D01*
X0095056Y0289460D01*
X0095119Y0289431D01*
X0095179Y0289398D01*
X0095237Y0289361D01*
X0095294Y0289322D01*
X0095348Y0289279D01*
X0095400Y0289234D01*
X0095449Y0289185D01*
X0095495Y0289135D01*
X0095539Y0289081D01*
X0095579Y0289026D01*
X0095617Y0288968D01*
X0095651Y0288908D01*
X0095682Y0288846D01*
X0100001Y0287275D02*
X0099458Y0291987D01*
X0102148Y0293241D02*
X0103281Y0293769D01*
X0105182Y0289691D01*
X0106925Y0290503D02*
X0108737Y0291349D01*
X0106836Y0295427D01*
X0105023Y0294582D01*
X0106321Y0292981D02*
X0107681Y0293614D01*
X0110220Y0294109D02*
X0111149Y0295370D01*
X0109904Y0296857D02*
X0109831Y0296822D01*
X0109761Y0296783D01*
X0109692Y0296742D01*
X0109625Y0296697D01*
X0109560Y0296650D01*
X0109497Y0296600D01*
X0109436Y0296547D01*
X0109378Y0296492D01*
X0109322Y0296434D01*
X0109269Y0296374D01*
X0109218Y0296311D01*
X0109170Y0296247D01*
X0109124Y0296180D01*
X0109082Y0296112D01*
X0109042Y0296042D01*
X0111149Y0295370D02*
X0111183Y0295422D01*
X0111213Y0295476D01*
X0111240Y0295532D01*
X0111264Y0295589D01*
X0111284Y0295648D01*
X0111300Y0295708D01*
X0111313Y0295769D01*
X0111321Y0295830D01*
X0111327Y0295892D01*
X0111328Y0295954D01*
X0111326Y0296016D01*
X0111319Y0296078D01*
X0111309Y0296139D01*
X0111296Y0296199D01*
X0111278Y0296259D01*
X0111257Y0296317D01*
X0111233Y0296374D01*
X0111232Y0296374D02*
X0111204Y0296430D01*
X0111172Y0296484D01*
X0111137Y0296536D01*
X0111099Y0296586D01*
X0111057Y0296633D01*
X0111013Y0296678D01*
X0110966Y0296719D01*
X0110917Y0296758D01*
X0110865Y0296793D01*
X0110811Y0296826D01*
X0110755Y0296854D01*
X0110697Y0296879D01*
X0110638Y0296901D01*
X0110578Y0296919D01*
X0110517Y0296933D01*
X0110455Y0296943D01*
X0110392Y0296949D01*
X0110330Y0296951D01*
X0110267Y0296949D01*
X0110204Y0296944D01*
X0110142Y0296934D01*
X0110081Y0296920D01*
X0110020Y0296903D01*
X0109961Y0296882D01*
X0109903Y0296857D01*
X0112561Y0293822D02*
X0112529Y0293740D01*
X0112494Y0293659D01*
X0112456Y0293580D01*
X0112415Y0293502D01*
X0112370Y0293427D01*
X0112323Y0293353D01*
X0112272Y0293281D01*
X0112219Y0293212D01*
X0112162Y0293144D01*
X0112103Y0293080D01*
X0112041Y0293017D01*
X0111977Y0292958D01*
X0111910Y0292901D01*
X0111841Y0292846D01*
X0111770Y0292795D01*
X0111696Y0292747D01*
X0111621Y0292702D01*
X0111544Y0292660D01*
X0111465Y0292621D01*
X0111466Y0292621D02*
X0111410Y0292597D01*
X0111353Y0292576D01*
X0111295Y0292559D01*
X0111236Y0292546D01*
X0111177Y0292536D01*
X0111117Y0292530D01*
X0111056Y0292527D01*
X0110996Y0292528D01*
X0110936Y0292533D01*
X0110876Y0292541D01*
X0110817Y0292553D01*
X0110758Y0292568D01*
X0110701Y0292587D01*
X0110645Y0292610D01*
X0110590Y0292635D01*
X0110537Y0292664D01*
X0110486Y0292696D01*
X0110437Y0292732D01*
X0110390Y0292770D01*
X0110345Y0292810D01*
X0110303Y0292854D01*
X0110264Y0292900D01*
X0110228Y0292948D01*
X0110194Y0292998D01*
X0110164Y0293050D01*
X0110137Y0293104D01*
X0110136Y0293105D02*
X0110112Y0293162D01*
X0110091Y0293220D01*
X0110073Y0293280D01*
X0110060Y0293340D01*
X0110050Y0293401D01*
X0110043Y0293463D01*
X0110041Y0293525D01*
X0110042Y0293587D01*
X0110048Y0293649D01*
X0110056Y0293710D01*
X0110069Y0293771D01*
X0110085Y0293831D01*
X0110105Y0293890D01*
X0110129Y0293947D01*
X0110156Y0294003D01*
X0110186Y0294057D01*
X0110220Y0294109D01*
X0114532Y0293499D02*
X0116344Y0294344D01*
X0117764Y0295558D02*
X0120030Y0296615D01*
X0118897Y0296086D02*
X0116995Y0300165D01*
X0118551Y0299787D01*
X0131886Y0300769D02*
X0132164Y0298789D01*
X0132176Y0298720D01*
X0132191Y0298652D01*
X0132211Y0298584D01*
X0132234Y0298518D01*
X0132261Y0298453D01*
X0132291Y0298390D01*
X0132325Y0298329D01*
X0132362Y0298269D01*
X0132403Y0298212D01*
X0132446Y0298157D01*
X0132493Y0298105D01*
X0132543Y0298055D01*
X0132595Y0298008D01*
X0132650Y0297965D01*
X0132707Y0297924D01*
X0132766Y0297887D01*
X0132828Y0297853D01*
X0132891Y0297822D01*
X0132955Y0297795D01*
X0133022Y0297772D01*
X0133089Y0297753D01*
X0133157Y0297737D01*
X0133226Y0297725D01*
X0133296Y0297717D01*
X0133366Y0297714D01*
X0133436Y0297713D01*
X0133506Y0297717D01*
X0133576Y0297725D01*
X0133645Y0297737D01*
X0133713Y0297752D01*
X0133781Y0297772D01*
X0133847Y0297795D01*
X0133912Y0297822D01*
X0133975Y0297852D01*
X0134036Y0297886D01*
X0134096Y0297923D01*
X0134153Y0297964D01*
X0134208Y0298007D01*
X0134260Y0298054D01*
X0134310Y0298104D01*
X0134357Y0298156D01*
X0134400Y0298211D01*
X0134441Y0298268D01*
X0134478Y0298327D01*
X0134512Y0298389D01*
X0134543Y0298452D01*
X0134570Y0298516D01*
X0134593Y0298583D01*
X0134612Y0298650D01*
X0134628Y0298718D01*
X0134640Y0298787D01*
X0134648Y0298857D01*
X0134651Y0298927D01*
X0134652Y0298997D01*
X0134648Y0299067D01*
X0134640Y0299137D01*
X0134640Y0299136D02*
X0134361Y0301117D01*
X0134362Y0301117D02*
X0134350Y0301185D01*
X0134335Y0301252D01*
X0134316Y0301318D01*
X0134294Y0301383D01*
X0134268Y0301447D01*
X0134238Y0301509D01*
X0134205Y0301570D01*
X0134169Y0301629D01*
X0134130Y0301685D01*
X0134087Y0301739D01*
X0134042Y0301791D01*
X0133994Y0301841D01*
X0133943Y0301887D01*
X0133890Y0301931D01*
X0133834Y0301972D01*
X0133777Y0302009D01*
X0133717Y0302043D01*
X0133655Y0302074D01*
X0133592Y0302102D01*
X0133528Y0302126D01*
X0133462Y0302146D01*
X0133395Y0302163D01*
X0133327Y0302176D01*
X0133259Y0302186D01*
X0133191Y0302191D01*
X0133122Y0302193D01*
X0133053Y0302191D01*
X0132984Y0302185D01*
X0132916Y0302176D01*
X0132848Y0302162D01*
X0132782Y0302145D01*
X0132716Y0302125D01*
X0132651Y0302100D01*
X0132588Y0302072D01*
X0132527Y0302041D01*
X0132467Y0302007D01*
X0132410Y0301969D01*
X0132354Y0301928D01*
X0132301Y0301884D01*
X0132251Y0301837D01*
X0132203Y0301788D01*
X0132158Y0301736D01*
X0132115Y0301681D01*
X0132076Y0301625D01*
X0132040Y0301566D01*
X0132008Y0301505D01*
X0131978Y0301443D01*
X0131953Y0301379D01*
X0131930Y0301314D01*
X0131912Y0301248D01*
X0131897Y0301180D01*
X0131886Y0301112D01*
X0131878Y0301044D01*
X0131874Y0300975D01*
X0131875Y0300906D01*
X0131878Y0300837D01*
X0131886Y0300769D01*
X0135920Y0302598D02*
X0138032Y0298351D01*
X0138891Y0303016D01*
X0141830Y0303429D02*
X0143068Y0303603D01*
X0143694Y0299147D01*
X0145598Y0299414D02*
X0147578Y0299693D01*
X0146952Y0304149D01*
X0144971Y0303870D01*
X0145745Y0301959D02*
X0147230Y0302168D01*
X0149803Y0301899D02*
X0151060Y0302833D01*
X0150304Y0304620D02*
X0150225Y0304607D01*
X0150146Y0304591D01*
X0150068Y0304571D01*
X0149991Y0304548D01*
X0149915Y0304522D01*
X0149840Y0304492D01*
X0149766Y0304459D01*
X0149694Y0304424D01*
X0149624Y0304385D01*
X0149555Y0304343D01*
X0149489Y0304298D01*
X0149424Y0304251D01*
X0149361Y0304200D01*
X0149300Y0304147D01*
X0149242Y0304092D01*
X0151061Y0302832D02*
X0151108Y0302872D01*
X0151153Y0302915D01*
X0151195Y0302961D01*
X0151234Y0303009D01*
X0151270Y0303059D01*
X0151303Y0303111D01*
X0151333Y0303166D01*
X0151360Y0303222D01*
X0151383Y0303280D01*
X0151402Y0303339D01*
X0151418Y0303399D01*
X0151430Y0303459D01*
X0151438Y0303521D01*
X0151443Y0303583D01*
X0151444Y0303645D01*
X0151441Y0303707D01*
X0151434Y0303768D01*
X0151433Y0303769D02*
X0151423Y0303829D01*
X0151409Y0303888D01*
X0151392Y0303945D01*
X0151371Y0304002D01*
X0151347Y0304057D01*
X0151320Y0304111D01*
X0151289Y0304163D01*
X0151255Y0304213D01*
X0151218Y0304261D01*
X0151179Y0304307D01*
X0151137Y0304350D01*
X0151092Y0304391D01*
X0151045Y0304429D01*
X0150995Y0304464D01*
X0150944Y0304495D01*
X0150891Y0304524D01*
X0150836Y0304549D01*
X0150780Y0304572D01*
X0150723Y0304590D01*
X0150664Y0304605D01*
X0150605Y0304617D01*
X0150545Y0304625D01*
X0150485Y0304629D01*
X0150424Y0304630D01*
X0150364Y0304627D01*
X0150304Y0304620D01*
X0151958Y0300938D02*
X0151904Y0300869D01*
X0151847Y0300802D01*
X0151787Y0300738D01*
X0151725Y0300676D01*
X0151661Y0300616D01*
X0151593Y0300560D01*
X0151524Y0300506D01*
X0151452Y0300455D01*
X0151379Y0300407D01*
X0151303Y0300363D01*
X0151226Y0300321D01*
X0151147Y0300283D01*
X0151066Y0300248D01*
X0150984Y0300216D01*
X0150901Y0300188D01*
X0150817Y0300163D01*
X0150732Y0300142D01*
X0150646Y0300125D01*
X0150559Y0300111D01*
X0150559Y0300112D02*
X0150499Y0300105D01*
X0150439Y0300102D01*
X0150378Y0300103D01*
X0150318Y0300107D01*
X0150258Y0300115D01*
X0150199Y0300127D01*
X0150140Y0300142D01*
X0150083Y0300160D01*
X0150027Y0300183D01*
X0149972Y0300208D01*
X0149919Y0300237D01*
X0149868Y0300268D01*
X0149818Y0300303D01*
X0149771Y0300341D01*
X0149726Y0300382D01*
X0149684Y0300425D01*
X0149645Y0300471D01*
X0149608Y0300519D01*
X0149574Y0300569D01*
X0149543Y0300621D01*
X0149516Y0300675D01*
X0149492Y0300730D01*
X0149471Y0300787D01*
X0149454Y0300844D01*
X0149440Y0300903D01*
X0149430Y0300963D01*
X0149429Y0300963D02*
X0149422Y0301024D01*
X0149419Y0301086D01*
X0149420Y0301148D01*
X0149425Y0301210D01*
X0149433Y0301272D01*
X0149445Y0301333D01*
X0149461Y0301393D01*
X0149480Y0301451D01*
X0149503Y0301509D01*
X0149530Y0301565D01*
X0149560Y0301620D01*
X0149593Y0301672D01*
X0149629Y0301722D01*
X0149668Y0301770D01*
X0149710Y0301816D01*
X0149755Y0301859D01*
X0149802Y0301899D01*
X0153748Y0300055D02*
X0155728Y0300333D01*
X0157441Y0301079D02*
X0159917Y0301427D01*
X0157465Y0303607D01*
X0157929Y0305691D02*
X0158001Y0305699D01*
X0158074Y0305704D01*
X0158146Y0305705D01*
X0158219Y0305702D01*
X0158291Y0305696D01*
X0158363Y0305686D01*
X0158435Y0305672D01*
X0158505Y0305655D01*
X0158575Y0305635D01*
X0158644Y0305611D01*
X0158711Y0305583D01*
X0158777Y0305552D01*
X0158841Y0305518D01*
X0158903Y0305481D01*
X0158964Y0305440D01*
X0159022Y0305397D01*
X0159078Y0305351D01*
X0159132Y0305302D01*
X0159183Y0305250D01*
X0159231Y0305196D01*
X0159277Y0305139D01*
X0159320Y0305080D01*
X0159359Y0305020D01*
X0159396Y0304957D01*
X0159429Y0304892D01*
X0157465Y0303607D02*
X0157413Y0303646D01*
X0157363Y0303688D01*
X0157316Y0303733D01*
X0157271Y0303780D01*
X0157228Y0303830D01*
X0157189Y0303882D01*
X0157152Y0303936D01*
X0157118Y0303991D01*
X0157087Y0304049D01*
X0157060Y0304108D01*
X0157036Y0304168D01*
X0157015Y0304230D01*
X0156997Y0304293D01*
X0156983Y0304357D01*
X0156972Y0304421D01*
X0156965Y0304486D01*
X0156961Y0304552D01*
X0156962Y0304617D01*
X0156966Y0304683D01*
X0156974Y0304748D01*
X0156986Y0304812D01*
X0157001Y0304875D01*
X0157020Y0304938D01*
X0157043Y0304999D01*
X0157069Y0305059D01*
X0157099Y0305118D01*
X0157132Y0305174D01*
X0157168Y0305229D01*
X0157208Y0305281D01*
X0157250Y0305331D01*
X0157295Y0305378D01*
X0157343Y0305423D01*
X0157393Y0305465D01*
X0157446Y0305503D01*
X0157501Y0305539D01*
X0157558Y0305571D01*
X0157616Y0305600D01*
X0157677Y0305626D01*
X0157738Y0305648D01*
X0157801Y0305666D01*
X0157865Y0305681D01*
X0157929Y0305692D01*
X0143415Y0301127D02*
X0142178Y0300953D01*
X0141930Y0300918D02*
X0141218Y0298799D01*
X0142178Y0300953D02*
X0142110Y0300945D01*
X0142041Y0300942D01*
X0141972Y0300941D01*
X0141903Y0300945D01*
X0141835Y0300953D01*
X0141767Y0300964D01*
X0141699Y0300979D01*
X0141633Y0300997D01*
X0141568Y0301020D01*
X0141504Y0301045D01*
X0141442Y0301075D01*
X0141381Y0301107D01*
X0141322Y0301143D01*
X0141266Y0301182D01*
X0141211Y0301225D01*
X0141159Y0301270D01*
X0141110Y0301318D01*
X0141063Y0301368D01*
X0141019Y0301421D01*
X0140978Y0301477D01*
X0140940Y0301534D01*
X0140906Y0301594D01*
X0140875Y0301655D01*
X0140847Y0301718D01*
X0140822Y0301783D01*
X0140802Y0301849D01*
X0140785Y0301915D01*
X0140771Y0301983D01*
X0140762Y0302051D01*
X0140756Y0302120D01*
X0140754Y0302189D01*
X0140756Y0302258D01*
X0140761Y0302326D01*
X0140771Y0302394D01*
X0140784Y0302462D01*
X0140801Y0302529D01*
X0140821Y0302595D01*
X0140845Y0302659D01*
X0140873Y0302722D01*
X0140904Y0302784D01*
X0140938Y0302844D01*
X0140975Y0302901D01*
X0141016Y0302957D01*
X0141060Y0303010D01*
X0141106Y0303061D01*
X0141156Y0303109D01*
X0141208Y0303154D01*
X0141262Y0303197D01*
X0141318Y0303236D01*
X0141377Y0303272D01*
X0141438Y0303305D01*
X0141500Y0303335D01*
X0141564Y0303361D01*
X0141629Y0303383D01*
X0141695Y0303402D01*
X0141762Y0303417D01*
X0141830Y0303429D01*
X0104337Y0291504D02*
X0103204Y0290975D01*
X0102978Y0290870D02*
X0102917Y0288634D01*
X0103204Y0290975D02*
X0103141Y0290948D01*
X0103076Y0290924D01*
X0103011Y0290904D01*
X0102944Y0290887D01*
X0102876Y0290874D01*
X0102808Y0290865D01*
X0102739Y0290860D01*
X0102670Y0290858D01*
X0102601Y0290860D01*
X0102533Y0290866D01*
X0102465Y0290876D01*
X0102397Y0290890D01*
X0102330Y0290907D01*
X0102265Y0290928D01*
X0102200Y0290952D01*
X0102137Y0290980D01*
X0102076Y0291011D01*
X0102017Y0291046D01*
X0101959Y0291084D01*
X0101904Y0291125D01*
X0101851Y0291169D01*
X0101800Y0291216D01*
X0101752Y0291266D01*
X0101707Y0291318D01*
X0101665Y0291372D01*
X0101626Y0291429D01*
X0101591Y0291488D01*
X0101558Y0291549D01*
X0101529Y0291611D01*
X0101503Y0291675D01*
X0101481Y0291740D01*
X0101463Y0291807D01*
X0101448Y0291874D01*
X0101437Y0291942D01*
X0101430Y0292010D01*
X0101426Y0292079D01*
X0101427Y0292148D01*
X0101431Y0292217D01*
X0101439Y0292285D01*
X0101450Y0292353D01*
X0101466Y0292420D01*
X0101485Y0292487D01*
X0101507Y0292552D01*
X0101534Y0292615D01*
X0101563Y0292678D01*
X0101596Y0292738D01*
X0101633Y0292796D01*
X0101672Y0292853D01*
X0101715Y0292907D01*
X0101760Y0292959D01*
X0101809Y0293008D01*
X0101859Y0293054D01*
X0101913Y0293098D01*
X0101968Y0293138D01*
X0102026Y0293176D01*
X0102086Y0293210D01*
X0102148Y0293241D01*
X0293295Y0232761D02*
X0293297Y0232850D01*
X0293303Y0232939D01*
X0293313Y0233028D01*
X0293327Y0233116D01*
X0293344Y0233203D01*
X0293366Y0233289D01*
X0293392Y0233375D01*
X0293421Y0233459D01*
X0293454Y0233542D01*
X0293490Y0233623D01*
X0293531Y0233703D01*
X0293574Y0233780D01*
X0293621Y0233856D01*
X0293672Y0233929D01*
X0293725Y0234000D01*
X0293782Y0234069D01*
X0293842Y0234135D01*
X0293905Y0234199D01*
X0293970Y0234259D01*
X0294038Y0234317D01*
X0294109Y0234371D01*
X0294182Y0234422D01*
X0294257Y0234470D01*
X0294334Y0234515D01*
X0294413Y0234556D01*
X0294494Y0234593D01*
X0294576Y0234627D01*
X0294660Y0234658D01*
X0294745Y0234684D01*
X0294831Y0234707D01*
X0294918Y0234725D01*
X0295006Y0234740D01*
X0295095Y0234751D01*
X0295184Y0234758D01*
X0295273Y0234761D01*
X0295362Y0234760D01*
X0295451Y0234755D01*
X0295539Y0234746D01*
X0295628Y0234733D01*
X0295715Y0234716D01*
X0295802Y0234696D01*
X0295888Y0234671D01*
X0295972Y0234643D01*
X0296055Y0234611D01*
X0296137Y0234575D01*
X0296217Y0234536D01*
X0296295Y0234493D01*
X0296371Y0234447D01*
X0296445Y0234397D01*
X0296517Y0234344D01*
X0296586Y0234288D01*
X0296653Y0234229D01*
X0296717Y0234167D01*
X0296778Y0234103D01*
X0296837Y0234035D01*
X0296892Y0233965D01*
X0296944Y0233893D01*
X0296993Y0233818D01*
X0297038Y0233742D01*
X0297080Y0233663D01*
X0297118Y0233583D01*
X0297153Y0233501D01*
X0297184Y0233417D01*
X0297212Y0233332D01*
X0297235Y0233246D01*
X0297255Y0233159D01*
X0297271Y0233072D01*
X0297283Y0232983D01*
X0297291Y0232895D01*
X0297295Y0232806D01*
X0297295Y0232716D01*
X0297291Y0232627D01*
X0297283Y0232539D01*
X0297271Y0232450D01*
X0297255Y0232363D01*
X0297235Y0232276D01*
X0297212Y0232190D01*
X0297184Y0232105D01*
X0297153Y0232021D01*
X0297118Y0231939D01*
X0297080Y0231859D01*
X0297038Y0231780D01*
X0296993Y0231704D01*
X0296944Y0231629D01*
X0296892Y0231557D01*
X0296837Y0231487D01*
X0296778Y0231419D01*
X0296717Y0231355D01*
X0296653Y0231293D01*
X0296586Y0231234D01*
X0296517Y0231178D01*
X0296445Y0231125D01*
X0296371Y0231075D01*
X0296295Y0231029D01*
X0296217Y0230986D01*
X0296137Y0230947D01*
X0296055Y0230911D01*
X0295972Y0230879D01*
X0295888Y0230851D01*
X0295802Y0230826D01*
X0295715Y0230806D01*
X0295628Y0230789D01*
X0295539Y0230776D01*
X0295451Y0230767D01*
X0295362Y0230762D01*
X0295273Y0230761D01*
X0295184Y0230764D01*
X0295095Y0230771D01*
X0295006Y0230782D01*
X0294918Y0230797D01*
X0294831Y0230815D01*
X0294745Y0230838D01*
X0294660Y0230864D01*
X0294576Y0230895D01*
X0294494Y0230929D01*
X0294413Y0230966D01*
X0294334Y0231007D01*
X0294257Y0231052D01*
X0294182Y0231100D01*
X0294109Y0231151D01*
X0294038Y0231205D01*
X0293970Y0231263D01*
X0293905Y0231323D01*
X0293842Y0231387D01*
X0293782Y0231453D01*
X0293725Y0231522D01*
X0293672Y0231593D01*
X0293621Y0231666D01*
X0293574Y0231742D01*
X0293531Y0231819D01*
X0293490Y0231899D01*
X0293454Y0231980D01*
X0293421Y0232063D01*
X0293392Y0232147D01*
X0293366Y0232233D01*
X0293344Y0232319D01*
X0293327Y0232406D01*
X0293313Y0232494D01*
X0293303Y0232583D01*
X0293297Y0232672D01*
X0293295Y0232761D01*
X0306976Y0195173D02*
X0306978Y0195262D01*
X0306984Y0195351D01*
X0306994Y0195440D01*
X0307008Y0195528D01*
X0307025Y0195615D01*
X0307047Y0195701D01*
X0307073Y0195787D01*
X0307102Y0195871D01*
X0307135Y0195954D01*
X0307171Y0196035D01*
X0307212Y0196115D01*
X0307255Y0196192D01*
X0307302Y0196268D01*
X0307353Y0196341D01*
X0307406Y0196412D01*
X0307463Y0196481D01*
X0307523Y0196547D01*
X0307586Y0196611D01*
X0307651Y0196671D01*
X0307719Y0196729D01*
X0307790Y0196783D01*
X0307863Y0196834D01*
X0307938Y0196882D01*
X0308015Y0196927D01*
X0308094Y0196968D01*
X0308175Y0197005D01*
X0308257Y0197039D01*
X0308341Y0197070D01*
X0308426Y0197096D01*
X0308512Y0197119D01*
X0308599Y0197137D01*
X0308687Y0197152D01*
X0308776Y0197163D01*
X0308865Y0197170D01*
X0308954Y0197173D01*
X0309043Y0197172D01*
X0309132Y0197167D01*
X0309220Y0197158D01*
X0309309Y0197145D01*
X0309396Y0197128D01*
X0309483Y0197108D01*
X0309569Y0197083D01*
X0309653Y0197055D01*
X0309736Y0197023D01*
X0309818Y0196987D01*
X0309898Y0196948D01*
X0309976Y0196905D01*
X0310052Y0196859D01*
X0310126Y0196809D01*
X0310198Y0196756D01*
X0310267Y0196700D01*
X0310334Y0196641D01*
X0310398Y0196579D01*
X0310459Y0196515D01*
X0310518Y0196447D01*
X0310573Y0196377D01*
X0310625Y0196305D01*
X0310674Y0196230D01*
X0310719Y0196154D01*
X0310761Y0196075D01*
X0310799Y0195995D01*
X0310834Y0195913D01*
X0310865Y0195829D01*
X0310893Y0195744D01*
X0310916Y0195658D01*
X0310936Y0195571D01*
X0310952Y0195484D01*
X0310964Y0195395D01*
X0310972Y0195307D01*
X0310976Y0195218D01*
X0310976Y0195128D01*
X0310972Y0195039D01*
X0310964Y0194951D01*
X0310952Y0194862D01*
X0310936Y0194775D01*
X0310916Y0194688D01*
X0310893Y0194602D01*
X0310865Y0194517D01*
X0310834Y0194433D01*
X0310799Y0194351D01*
X0310761Y0194271D01*
X0310719Y0194192D01*
X0310674Y0194116D01*
X0310625Y0194041D01*
X0310573Y0193969D01*
X0310518Y0193899D01*
X0310459Y0193831D01*
X0310398Y0193767D01*
X0310334Y0193705D01*
X0310267Y0193646D01*
X0310198Y0193590D01*
X0310126Y0193537D01*
X0310052Y0193487D01*
X0309976Y0193441D01*
X0309898Y0193398D01*
X0309818Y0193359D01*
X0309736Y0193323D01*
X0309653Y0193291D01*
X0309569Y0193263D01*
X0309483Y0193238D01*
X0309396Y0193218D01*
X0309309Y0193201D01*
X0309220Y0193188D01*
X0309132Y0193179D01*
X0309043Y0193174D01*
X0308954Y0193173D01*
X0308865Y0193176D01*
X0308776Y0193183D01*
X0308687Y0193194D01*
X0308599Y0193209D01*
X0308512Y0193227D01*
X0308426Y0193250D01*
X0308341Y0193276D01*
X0308257Y0193307D01*
X0308175Y0193341D01*
X0308094Y0193378D01*
X0308015Y0193419D01*
X0307938Y0193464D01*
X0307863Y0193512D01*
X0307790Y0193563D01*
X0307719Y0193617D01*
X0307651Y0193675D01*
X0307586Y0193735D01*
X0307523Y0193799D01*
X0307463Y0193865D01*
X0307406Y0193934D01*
X0307353Y0194005D01*
X0307302Y0194078D01*
X0307255Y0194154D01*
X0307212Y0194231D01*
X0307171Y0194311D01*
X0307135Y0194392D01*
X0307102Y0194475D01*
X0307073Y0194559D01*
X0307047Y0194645D01*
X0307025Y0194731D01*
X0307008Y0194818D01*
X0306994Y0194906D01*
X0306984Y0194995D01*
X0306978Y0195084D01*
X0306976Y0195173D01*
D13*
G36*
X0094067Y0186732D02*
X0093772Y0187243D01*
X0094793Y0187832D01*
X0095088Y0187321D01*
X0094067Y0186732D01*
G37*
G36*
X0092591Y0189289D02*
X0092296Y0189800D01*
X0093317Y0190389D01*
X0093612Y0189878D01*
X0092591Y0189289D01*
G37*
D14*
G36*
X0093477Y0187755D02*
X0092887Y0188775D01*
X0093907Y0189365D01*
X0094497Y0188345D01*
X0093477Y0187755D01*
G37*
D15*
X0088546Y0156177D02*
X0090846Y0152193D01*
X0089076Y0151171D01*
X0087469Y0150243D02*
X0085169Y0154227D01*
X0083398Y0153205D01*
X0081799Y0152281D02*
X0080692Y0151642D01*
X0080692Y0151643D02*
X0080633Y0151607D01*
X0080576Y0151567D01*
X0080521Y0151525D01*
X0080469Y0151480D01*
X0080419Y0151431D01*
X0080372Y0151381D01*
X0080328Y0151328D01*
X0080286Y0151272D01*
X0080248Y0151215D01*
X0080213Y0151155D01*
X0080181Y0151093D01*
X0080153Y0151030D01*
X0080127Y0150966D01*
X0080106Y0150900D01*
X0080088Y0150833D01*
X0080074Y0150766D01*
X0080063Y0150697D01*
X0080056Y0150628D01*
X0080053Y0150559D01*
X0080054Y0150490D01*
X0080058Y0150421D01*
X0080066Y0150352D01*
X0080078Y0150284D01*
X0080094Y0150216D01*
X0080113Y0150150D01*
X0080135Y0150084D01*
X0080162Y0150020D01*
X0080191Y0149958D01*
X0080224Y0149897D01*
X0080225Y0149897D02*
X0081247Y0148126D01*
X0081246Y0148126D02*
X0081282Y0148067D01*
X0081322Y0148010D01*
X0081364Y0147955D01*
X0081409Y0147903D01*
X0081458Y0147853D01*
X0081508Y0147806D01*
X0081561Y0147762D01*
X0081617Y0147720D01*
X0081674Y0147682D01*
X0081734Y0147647D01*
X0081796Y0147615D01*
X0081859Y0147586D01*
X0081923Y0147561D01*
X0081989Y0147540D01*
X0082056Y0147522D01*
X0082124Y0147508D01*
X0082192Y0147497D01*
X0082261Y0147490D01*
X0082330Y0147487D01*
X0082399Y0147488D01*
X0082468Y0147492D01*
X0082537Y0147500D01*
X0082605Y0147512D01*
X0082673Y0147528D01*
X0082739Y0147547D01*
X0082805Y0147569D01*
X0082869Y0147596D01*
X0082931Y0147625D01*
X0082992Y0147658D01*
X0082992Y0147659D02*
X0084099Y0148297D01*
X0081799Y0152281D01*
X0084863Y0151690D02*
X0086191Y0152456D01*
X0087469Y0150243D02*
X0085698Y0149221D01*
X0080072Y0145972D02*
X0078744Y0145206D01*
X0078690Y0145177D01*
X0078634Y0145151D01*
X0078576Y0145128D01*
X0078517Y0145109D01*
X0078458Y0145094D01*
X0078397Y0145082D01*
X0078336Y0145074D01*
X0078274Y0145070D01*
X0078212Y0145069D01*
X0078151Y0145072D01*
X0078089Y0145079D01*
X0078029Y0145090D01*
X0077968Y0145104D01*
X0077909Y0145122D01*
X0077851Y0145143D01*
X0077795Y0145168D01*
X0077740Y0145196D01*
X0077687Y0145227D01*
X0077636Y0145262D01*
X0077587Y0145299D01*
X0077540Y0145340D01*
X0077496Y0145383D01*
X0077455Y0145429D01*
X0077416Y0145477D01*
X0077380Y0145528D01*
X0077348Y0145580D01*
X0077092Y0146023D01*
X0077063Y0146077D01*
X0077037Y0146133D01*
X0077014Y0146191D01*
X0076995Y0146250D01*
X0076980Y0146309D01*
X0076968Y0146370D01*
X0076960Y0146431D01*
X0076956Y0146493D01*
X0076955Y0146555D01*
X0076958Y0146616D01*
X0076965Y0146678D01*
X0076976Y0146738D01*
X0076990Y0146799D01*
X0077008Y0146858D01*
X0077029Y0146916D01*
X0077054Y0146972D01*
X0077082Y0147027D01*
X0077113Y0147080D01*
X0077148Y0147131D01*
X0077185Y0147180D01*
X0077226Y0147227D01*
X0077269Y0147271D01*
X0077315Y0147312D01*
X0077363Y0147351D01*
X0077413Y0147387D01*
X0077466Y0147419D01*
X0078794Y0148186D01*
X0077772Y0149956D01*
X0075559Y0148678D01*
X0088614Y0132766D02*
X0089720Y0133404D01*
X0092020Y0129421D01*
X0090914Y0128782D01*
X0090269Y0128058D02*
X0088056Y0126781D01*
X0091463Y0123436D01*
X0093269Y0120633D02*
X0093299Y0120578D01*
X0093325Y0120520D01*
X0093348Y0120462D01*
X0093367Y0120402D01*
X0093382Y0120341D01*
X0093394Y0120279D01*
X0093402Y0120216D01*
X0093406Y0120153D01*
X0093406Y0120091D01*
X0093402Y0120028D01*
X0093394Y0119965D01*
X0093382Y0119903D01*
X0093367Y0119842D01*
X0093348Y0119782D01*
X0093325Y0119724D01*
X0093299Y0119666D01*
X0093269Y0119611D01*
X0093236Y0119557D01*
X0093200Y0119506D01*
X0093160Y0119457D01*
X0093118Y0119411D01*
X0093073Y0119367D01*
X0093025Y0119326D01*
X0092974Y0119288D01*
X0092922Y0119253D01*
X0092867Y0119222D01*
X0092811Y0119194D01*
X0092753Y0119169D01*
X0092694Y0119148D01*
X0092633Y0119131D01*
X0092572Y0119117D01*
X0092510Y0119108D01*
X0092447Y0119102D01*
X0092384Y0119100D01*
X0092321Y0119102D01*
X0092258Y0119108D01*
X0092196Y0119117D01*
X0092135Y0119131D01*
X0092074Y0119148D01*
X0092015Y0119169D01*
X0091957Y0119194D01*
X0091901Y0119222D01*
X0091846Y0119253D01*
X0091794Y0119288D01*
X0091743Y0119326D01*
X0091695Y0119367D01*
X0091650Y0119411D01*
X0091608Y0119457D01*
X0091568Y0119506D01*
X0091532Y0119557D01*
X0091499Y0119611D01*
X0091469Y0119666D01*
X0091443Y0119724D01*
X0091420Y0119782D01*
X0091401Y0119842D01*
X0091386Y0119903D01*
X0091374Y0119965D01*
X0091366Y0120028D01*
X0091362Y0120091D01*
X0091362Y0120153D01*
X0091366Y0120216D01*
X0091374Y0120279D01*
X0091386Y0120341D01*
X0091401Y0120402D01*
X0091420Y0120462D01*
X0091443Y0120520D01*
X0091469Y0120578D01*
X0091499Y0120633D01*
X0091532Y0120687D01*
X0091568Y0120738D01*
X0091608Y0120787D01*
X0091650Y0120833D01*
X0091695Y0120877D01*
X0091743Y0120918D01*
X0091794Y0120956D01*
X0091846Y0120991D01*
X0091901Y0121022D01*
X0091957Y0121050D01*
X0092015Y0121075D01*
X0092074Y0121096D01*
X0092135Y0121113D01*
X0092196Y0121127D01*
X0092258Y0121136D01*
X0092321Y0121142D01*
X0092384Y0121144D01*
X0092447Y0121142D01*
X0092510Y0121136D01*
X0092572Y0121127D01*
X0092633Y0121113D01*
X0092694Y0121096D01*
X0092753Y0121075D01*
X0092811Y0121050D01*
X0092868Y0121022D01*
X0092922Y0120991D01*
X0092974Y0120956D01*
X0093025Y0120918D01*
X0093073Y0120877D01*
X0093118Y0120833D01*
X0093160Y0120787D01*
X0093200Y0120738D01*
X0093236Y0120687D01*
X0093269Y0120633D01*
X0095433Y0121587D02*
X0096455Y0119817D01*
X0096454Y0119816D02*
X0096490Y0119757D01*
X0096530Y0119700D01*
X0096572Y0119645D01*
X0096617Y0119593D01*
X0096666Y0119543D01*
X0096716Y0119496D01*
X0096769Y0119452D01*
X0096825Y0119410D01*
X0096882Y0119372D01*
X0096942Y0119337D01*
X0097004Y0119305D01*
X0097067Y0119276D01*
X0097131Y0119251D01*
X0097197Y0119230D01*
X0097264Y0119212D01*
X0097332Y0119198D01*
X0097400Y0119187D01*
X0097469Y0119180D01*
X0097538Y0119177D01*
X0097607Y0119178D01*
X0097676Y0119182D01*
X0097745Y0119190D01*
X0097813Y0119202D01*
X0097881Y0119218D01*
X0097947Y0119237D01*
X0098013Y0119259D01*
X0098077Y0119286D01*
X0098139Y0119315D01*
X0098200Y0119348D01*
X0098200Y0119349D02*
X0099307Y0119988D01*
X0097007Y0123971D01*
X0095900Y0123333D01*
X0095841Y0123297D01*
X0095784Y0123257D01*
X0095729Y0123215D01*
X0095677Y0123170D01*
X0095627Y0123121D01*
X0095580Y0123071D01*
X0095536Y0123018D01*
X0095494Y0122962D01*
X0095456Y0122905D01*
X0095421Y0122845D01*
X0095389Y0122783D01*
X0095361Y0122720D01*
X0095335Y0122656D01*
X0095314Y0122590D01*
X0095296Y0122523D01*
X0095282Y0122456D01*
X0095271Y0122387D01*
X0095264Y0122318D01*
X0095261Y0122249D01*
X0095262Y0122180D01*
X0095266Y0122111D01*
X0095274Y0122042D01*
X0095286Y0121974D01*
X0095302Y0121906D01*
X0095321Y0121840D01*
X0095343Y0121774D01*
X0095370Y0121710D01*
X0095399Y0121648D01*
X0095432Y0121587D01*
X0094641Y0118769D02*
X0094674Y0118707D01*
X0094704Y0118643D01*
X0094731Y0118578D01*
X0094754Y0118511D01*
X0094773Y0118444D01*
X0094788Y0118375D01*
X0094800Y0118306D01*
X0094808Y0118236D01*
X0094812Y0118165D01*
X0094812Y0118095D01*
X0094808Y0118024D01*
X0094800Y0117954D01*
X0094788Y0117885D01*
X0094773Y0117816D01*
X0094754Y0117748D01*
X0094731Y0117682D01*
X0094704Y0117617D01*
X0094674Y0117553D01*
X0094641Y0117491D01*
X0094604Y0117431D01*
X0094564Y0117373D01*
X0094521Y0117318D01*
X0094474Y0117264D01*
X0094425Y0117214D01*
X0094373Y0117166D01*
X0094319Y0117121D01*
X0094262Y0117080D01*
X0094203Y0117041D01*
X0094142Y0117006D01*
X0094079Y0116974D01*
X0094015Y0116946D01*
X0093949Y0116921D01*
X0093882Y0116900D01*
X0093813Y0116883D01*
X0093744Y0116869D01*
X0093675Y0116860D01*
X0093604Y0116854D01*
X0093534Y0116852D01*
X0093464Y0116854D01*
X0093393Y0116860D01*
X0093324Y0116869D01*
X0093255Y0116883D01*
X0093186Y0116900D01*
X0093119Y0116921D01*
X0093053Y0116946D01*
X0092989Y0116974D01*
X0092926Y0117006D01*
X0092865Y0117041D01*
X0092806Y0117080D01*
X0092749Y0117121D01*
X0092695Y0117166D01*
X0092643Y0117214D01*
X0092594Y0117264D01*
X0092548Y0117318D01*
X0092504Y0117373D01*
X0092464Y0117431D01*
X0092427Y0117491D01*
X0092394Y0117553D01*
X0092364Y0117617D01*
X0092337Y0117682D01*
X0092314Y0117748D01*
X0092295Y0117816D01*
X0092280Y0117885D01*
X0092268Y0117954D01*
X0092260Y0118024D01*
X0092256Y0118095D01*
X0092256Y0118165D01*
X0092260Y0118236D01*
X0092268Y0118306D01*
X0092280Y0118375D01*
X0092295Y0118444D01*
X0092314Y0118511D01*
X0092337Y0118578D01*
X0092364Y0118643D01*
X0092394Y0118707D01*
X0092427Y0118769D01*
X0092464Y0118829D01*
X0092504Y0118887D01*
X0092547Y0118942D01*
X0092594Y0118996D01*
X0092643Y0119046D01*
X0092695Y0119094D01*
X0092749Y0119139D01*
X0092806Y0119180D01*
X0092865Y0119219D01*
X0092926Y0119254D01*
X0092989Y0119286D01*
X0093053Y0119314D01*
X0093119Y0119339D01*
X0093186Y0119360D01*
X0093255Y0119377D01*
X0093324Y0119391D01*
X0093393Y0119400D01*
X0093464Y0119406D01*
X0093534Y0119408D01*
X0093604Y0119406D01*
X0093675Y0119400D01*
X0093744Y0119391D01*
X0093813Y0119377D01*
X0093882Y0119360D01*
X0093949Y0119339D01*
X0094015Y0119314D01*
X0094079Y0119286D01*
X0094142Y0119254D01*
X0094203Y0119219D01*
X0094262Y0119180D01*
X0094319Y0119139D01*
X0094373Y0119094D01*
X0094425Y0119046D01*
X0094474Y0118996D01*
X0094521Y0118942D01*
X0094564Y0118887D01*
X0094604Y0118829D01*
X0094641Y0118769D01*
X0100906Y0120911D02*
X0102677Y0121933D01*
X0100377Y0125917D01*
X0098606Y0124895D01*
X0100071Y0123380D02*
X0101399Y0124146D01*
X0104284Y0122861D02*
X0106054Y0123883D01*
X0103754Y0127867D01*
X0103343Y0130295D02*
X0101573Y0129273D01*
X0099966Y0128345D02*
X0097666Y0132329D01*
X0095895Y0131307D01*
X0095390Y0131366D02*
X0093090Y0135350D01*
X0091320Y0134328D01*
X0092784Y0132813D02*
X0094112Y0133579D01*
X0095390Y0131366D02*
X0093620Y0130344D01*
X0094296Y0130383D02*
X0093190Y0129745D01*
X0094296Y0130383D02*
X0096596Y0126400D01*
X0095490Y0125761D01*
X0095490Y0125760D02*
X0095429Y0125727D01*
X0095367Y0125698D01*
X0095303Y0125671D01*
X0095237Y0125649D01*
X0095171Y0125630D01*
X0095103Y0125614D01*
X0095035Y0125602D01*
X0094966Y0125594D01*
X0094897Y0125590D01*
X0094828Y0125589D01*
X0094759Y0125592D01*
X0094690Y0125599D01*
X0094622Y0125610D01*
X0094554Y0125624D01*
X0094487Y0125642D01*
X0094421Y0125663D01*
X0094357Y0125688D01*
X0094294Y0125717D01*
X0094232Y0125749D01*
X0094172Y0125784D01*
X0094115Y0125822D01*
X0094059Y0125864D01*
X0094006Y0125908D01*
X0093956Y0125955D01*
X0093907Y0126005D01*
X0093862Y0126057D01*
X0093820Y0126112D01*
X0093780Y0126169D01*
X0093744Y0126228D01*
X0092722Y0127999D01*
X0092721Y0127999D02*
X0092688Y0128060D01*
X0092659Y0128122D01*
X0092632Y0128186D01*
X0092610Y0128252D01*
X0092591Y0128318D01*
X0092575Y0128386D01*
X0092563Y0128454D01*
X0092555Y0128523D01*
X0092551Y0128592D01*
X0092550Y0128661D01*
X0092553Y0128730D01*
X0092560Y0128799D01*
X0092571Y0128868D01*
X0092585Y0128935D01*
X0092603Y0129002D01*
X0092624Y0129068D01*
X0092650Y0129132D01*
X0092678Y0129195D01*
X0092710Y0129257D01*
X0092745Y0129317D01*
X0092783Y0129374D01*
X0092825Y0129430D01*
X0092869Y0129483D01*
X0092916Y0129533D01*
X0092966Y0129582D01*
X0093018Y0129627D01*
X0093073Y0129669D01*
X0093130Y0129709D01*
X0093189Y0129745D01*
X0090914Y0128781D02*
X0090853Y0128748D01*
X0090791Y0128719D01*
X0090727Y0128692D01*
X0090661Y0128670D01*
X0090595Y0128651D01*
X0090527Y0128635D01*
X0090459Y0128623D01*
X0090390Y0128615D01*
X0090321Y0128611D01*
X0090252Y0128610D01*
X0090183Y0128613D01*
X0090114Y0128620D01*
X0090046Y0128631D01*
X0089978Y0128645D01*
X0089911Y0128663D01*
X0089845Y0128684D01*
X0089781Y0128709D01*
X0089718Y0128738D01*
X0089656Y0128770D01*
X0089596Y0128805D01*
X0089539Y0128843D01*
X0089483Y0128885D01*
X0089430Y0128929D01*
X0089380Y0128976D01*
X0089331Y0129026D01*
X0089286Y0129078D01*
X0089244Y0129133D01*
X0089204Y0129190D01*
X0089168Y0129249D01*
X0089168Y0129250D02*
X0088146Y0131020D01*
X0088113Y0131081D01*
X0088084Y0131143D01*
X0088057Y0131207D01*
X0088035Y0131273D01*
X0088016Y0131339D01*
X0088000Y0131407D01*
X0087988Y0131475D01*
X0087980Y0131544D01*
X0087976Y0131613D01*
X0087975Y0131682D01*
X0087978Y0131751D01*
X0087985Y0131820D01*
X0087996Y0131889D01*
X0088010Y0131956D01*
X0088028Y0132023D01*
X0088049Y0132089D01*
X0088075Y0132153D01*
X0088103Y0132216D01*
X0088135Y0132278D01*
X0088170Y0132338D01*
X0088208Y0132395D01*
X0088250Y0132451D01*
X0088294Y0132504D01*
X0088341Y0132554D01*
X0088391Y0132603D01*
X0088443Y0132648D01*
X0088498Y0132690D01*
X0088555Y0132730D01*
X0088614Y0132766D01*
X0086716Y0129309D02*
X0087354Y0128202D01*
X0087355Y0128202D02*
X0087388Y0128140D01*
X0087418Y0128076D01*
X0087445Y0128011D01*
X0087468Y0127944D01*
X0087487Y0127877D01*
X0087502Y0127808D01*
X0087514Y0127739D01*
X0087522Y0127669D01*
X0087526Y0127598D01*
X0087526Y0127528D01*
X0087522Y0127457D01*
X0087514Y0127387D01*
X0087502Y0127318D01*
X0087487Y0127249D01*
X0087468Y0127181D01*
X0087445Y0127115D01*
X0087418Y0127050D01*
X0087388Y0126986D01*
X0087355Y0126924D01*
X0087318Y0126864D01*
X0087278Y0126806D01*
X0087235Y0126751D01*
X0087188Y0126697D01*
X0087139Y0126647D01*
X0087087Y0126599D01*
X0087033Y0126554D01*
X0086976Y0126513D01*
X0086917Y0126474D01*
X0086856Y0126439D01*
X0086793Y0126407D01*
X0086729Y0126379D01*
X0086663Y0126354D01*
X0086596Y0126333D01*
X0086527Y0126316D01*
X0086458Y0126302D01*
X0086389Y0126293D01*
X0086318Y0126287D01*
X0086248Y0126285D01*
X0086178Y0126287D01*
X0086107Y0126293D01*
X0086038Y0126302D01*
X0085969Y0126316D01*
X0085900Y0126333D01*
X0085833Y0126354D01*
X0085767Y0126379D01*
X0085703Y0126407D01*
X0085640Y0126439D01*
X0085579Y0126474D01*
X0085520Y0126513D01*
X0085463Y0126554D01*
X0085409Y0126599D01*
X0085357Y0126647D01*
X0085308Y0126697D01*
X0085261Y0126751D01*
X0085218Y0126806D01*
X0085178Y0126864D01*
X0085141Y0126924D01*
X0085141Y0126925D02*
X0085013Y0127146D01*
X0085014Y0127146D02*
X0084985Y0127200D01*
X0084959Y0127256D01*
X0084936Y0127314D01*
X0084917Y0127373D01*
X0084902Y0127432D01*
X0084890Y0127493D01*
X0084882Y0127554D01*
X0084878Y0127616D01*
X0084877Y0127678D01*
X0084880Y0127739D01*
X0084887Y0127801D01*
X0084898Y0127861D01*
X0084912Y0127922D01*
X0084930Y0127981D01*
X0084951Y0128039D01*
X0084976Y0128095D01*
X0085004Y0128150D01*
X0085035Y0128203D01*
X0085070Y0128254D01*
X0085107Y0128303D01*
X0085148Y0128350D01*
X0085191Y0128394D01*
X0085237Y0128435D01*
X0085285Y0128474D01*
X0085335Y0128510D01*
X0085388Y0128542D01*
X0086716Y0129309D01*
X0086715Y0129309D02*
X0086669Y0129385D01*
X0086619Y0129459D01*
X0086567Y0129531D01*
X0086511Y0129601D01*
X0086452Y0129668D01*
X0086390Y0129732D01*
X0086326Y0129794D01*
X0086259Y0129853D01*
X0086189Y0129909D01*
X0086117Y0129961D01*
X0086043Y0130011D01*
X0085967Y0130057D01*
X0085889Y0130100D01*
X0085809Y0130139D01*
X0085727Y0130175D01*
X0085644Y0130208D01*
X0085560Y0130236D01*
X0085474Y0130261D01*
X0085387Y0130283D01*
X0085300Y0130300D01*
X0085212Y0130314D01*
X0085123Y0130323D01*
X0085034Y0130329D01*
X0084945Y0130331D01*
X0084856Y0130329D01*
X0084767Y0130323D01*
X0084678Y0130314D01*
X0084590Y0130300D01*
X0084503Y0130283D01*
X0084416Y0130261D01*
X0084330Y0130236D01*
X0084246Y0130208D01*
X0084163Y0130175D01*
X0084081Y0130139D01*
X0084001Y0130100D01*
X0083923Y0130057D01*
X0090269Y0128058D02*
X0090525Y0127616D01*
X0096997Y0132294D02*
X0098768Y0133316D01*
X0096468Y0137300D01*
X0101043Y0134279D02*
X0103343Y0130295D01*
X0099966Y0128345D02*
X0098195Y0127323D01*
X0097360Y0129792D02*
X0098688Y0130558D01*
X0130410Y0130642D02*
X0132878Y0131304D01*
X0130965Y0134495D01*
X0130886Y0131828D02*
X0131415Y0129853D01*
X0134835Y0132093D02*
X0134306Y0134067D01*
X0134289Y0134135D01*
X0134277Y0134203D01*
X0134268Y0134271D01*
X0134263Y0134340D01*
X0134262Y0134410D01*
X0134265Y0134479D01*
X0134271Y0134548D01*
X0134281Y0134616D01*
X0134294Y0134684D01*
X0134312Y0134751D01*
X0134333Y0134817D01*
X0134357Y0134882D01*
X0134385Y0134945D01*
X0134416Y0135007D01*
X0134451Y0135067D01*
X0134489Y0135125D01*
X0134530Y0135181D01*
X0134573Y0135234D01*
X0134620Y0135285D01*
X0134670Y0135334D01*
X0134721Y0135379D01*
X0134776Y0135422D01*
X0134832Y0135462D01*
X0134891Y0135499D01*
X0134952Y0135532D01*
X0135014Y0135563D01*
X0135078Y0135589D01*
X0135143Y0135613D01*
X0135209Y0135632D01*
X0135210Y0135632D02*
X0136444Y0135963D01*
X0137634Y0131520D01*
X0136400Y0131189D01*
X0136332Y0131172D01*
X0136264Y0131160D01*
X0136196Y0131151D01*
X0136127Y0131146D01*
X0136057Y0131145D01*
X0135988Y0131148D01*
X0135919Y0131154D01*
X0135851Y0131164D01*
X0135783Y0131177D01*
X0135716Y0131195D01*
X0135650Y0131216D01*
X0135585Y0131240D01*
X0135522Y0131268D01*
X0135460Y0131299D01*
X0135400Y0131334D01*
X0135342Y0131372D01*
X0135286Y0131413D01*
X0135233Y0131456D01*
X0135182Y0131503D01*
X0135133Y0131553D01*
X0135088Y0131604D01*
X0135045Y0131659D01*
X0135005Y0131715D01*
X0134968Y0131774D01*
X0134935Y0131835D01*
X0134904Y0131897D01*
X0134878Y0131961D01*
X0134854Y0132026D01*
X0134835Y0132092D01*
X0139418Y0131998D02*
X0141393Y0132527D01*
X0140202Y0136970D01*
X0138228Y0136441D01*
X0139250Y0134598D02*
X0140731Y0134995D01*
X0143185Y0133007D02*
X0145160Y0133536D01*
X0143969Y0137979D01*
X0088433Y0083349D02*
X0087529Y0084252D01*
X0087530Y0084253D02*
X0087479Y0084301D01*
X0087425Y0084347D01*
X0087369Y0084389D01*
X0087310Y0084428D01*
X0087250Y0084464D01*
X0087187Y0084497D01*
X0087123Y0084526D01*
X0087058Y0084552D01*
X0086991Y0084574D01*
X0086923Y0084592D01*
X0086854Y0084607D01*
X0086784Y0084617D01*
X0086714Y0084624D01*
X0086644Y0084627D01*
X0086573Y0084626D01*
X0086503Y0084621D01*
X0086433Y0084612D01*
X0086364Y0084600D01*
X0086295Y0084583D01*
X0086228Y0084563D01*
X0086161Y0084540D01*
X0086097Y0084512D01*
X0086033Y0084481D01*
X0085972Y0084447D01*
X0085912Y0084409D01*
X0085855Y0084368D01*
X0085800Y0084324D01*
X0085748Y0084277D01*
X0085698Y0084227D01*
X0085651Y0084175D01*
X0085607Y0084120D01*
X0085566Y0084063D01*
X0085528Y0084003D01*
X0085494Y0083942D01*
X0085463Y0083878D01*
X0085435Y0083814D01*
X0085412Y0083747D01*
X0085392Y0083680D01*
X0085375Y0083611D01*
X0085363Y0083542D01*
X0085354Y0083472D01*
X0085349Y0083402D01*
X0085348Y0083331D01*
X0085351Y0083261D01*
X0085358Y0083191D01*
X0085368Y0083121D01*
X0085383Y0083052D01*
X0085401Y0082984D01*
X0085423Y0082917D01*
X0085449Y0082852D01*
X0085478Y0082788D01*
X0085511Y0082725D01*
X0085547Y0082665D01*
X0085586Y0082606D01*
X0085628Y0082550D01*
X0085674Y0082496D01*
X0085722Y0082445D01*
X0086626Y0081542D01*
X0085542Y0082626D02*
X0083373Y0081903D01*
X0082922Y0084161D02*
X0083826Y0085064D01*
X0082742Y0086149D01*
X0083825Y0085065D02*
X0083887Y0085129D01*
X0083946Y0085196D01*
X0084002Y0085266D01*
X0084054Y0085338D01*
X0084104Y0085412D01*
X0084150Y0085488D01*
X0084193Y0085566D01*
X0084232Y0085646D01*
X0084268Y0085728D01*
X0084301Y0085811D01*
X0084329Y0085895D01*
X0084354Y0085981D01*
X0084376Y0086068D01*
X0084393Y0086155D01*
X0084407Y0086243D01*
X0084416Y0086332D01*
X0084422Y0086421D01*
X0084424Y0086510D01*
X0084422Y0086599D01*
X0084416Y0086688D01*
X0084407Y0086777D01*
X0084393Y0086865D01*
X0084376Y0086952D01*
X0084354Y0087039D01*
X0084329Y0087125D01*
X0084301Y0087209D01*
X0084268Y0087292D01*
X0084233Y0087374D01*
X0084193Y0087454D01*
X0084150Y0087532D01*
X0084104Y0087608D01*
X0084054Y0087682D01*
X0084002Y0087754D01*
X0083946Y0087824D01*
X0083887Y0087891D01*
X0083825Y0087955D01*
X0081296Y0086149D02*
X0081115Y0085968D01*
X0081296Y0086149D02*
X0081341Y0086191D01*
X0081389Y0086231D01*
X0081438Y0086267D01*
X0081490Y0086301D01*
X0081544Y0086331D01*
X0081600Y0086358D01*
X0081657Y0086382D01*
X0081715Y0086402D01*
X0081774Y0086418D01*
X0081835Y0086431D01*
X0081896Y0086441D01*
X0081957Y0086446D01*
X0082019Y0086448D01*
X0082081Y0086446D01*
X0082142Y0086441D01*
X0082203Y0086431D01*
X0082264Y0086418D01*
X0082323Y0086402D01*
X0082381Y0086382D01*
X0082438Y0086358D01*
X0082494Y0086331D01*
X0082548Y0086301D01*
X0082600Y0086267D01*
X0082649Y0086231D01*
X0082697Y0086191D01*
X0082742Y0086149D01*
X0081115Y0085968D02*
X0081067Y0085917D01*
X0081021Y0085863D01*
X0080979Y0085807D01*
X0080940Y0085748D01*
X0080904Y0085688D01*
X0080871Y0085625D01*
X0080842Y0085561D01*
X0080816Y0085496D01*
X0080794Y0085429D01*
X0080776Y0085361D01*
X0080761Y0085292D01*
X0080751Y0085222D01*
X0080744Y0085152D01*
X0080741Y0085082D01*
X0080742Y0085011D01*
X0080747Y0084941D01*
X0080756Y0084871D01*
X0080768Y0084802D01*
X0080785Y0084733D01*
X0080805Y0084666D01*
X0080828Y0084599D01*
X0080856Y0084535D01*
X0080887Y0084471D01*
X0080921Y0084410D01*
X0080959Y0084350D01*
X0081000Y0084293D01*
X0081044Y0084238D01*
X0081091Y0084186D01*
X0081141Y0084136D01*
X0081193Y0084089D01*
X0081248Y0084045D01*
X0081305Y0084004D01*
X0081365Y0083966D01*
X0081426Y0083932D01*
X0081490Y0083901D01*
X0081554Y0083873D01*
X0081621Y0083850D01*
X0081688Y0083830D01*
X0081757Y0083813D01*
X0081826Y0083801D01*
X0081896Y0083792D01*
X0081966Y0083787D01*
X0082037Y0083786D01*
X0082107Y0083789D01*
X0082177Y0083796D01*
X0082247Y0083806D01*
X0082316Y0083821D01*
X0082384Y0083839D01*
X0082451Y0083861D01*
X0082516Y0083887D01*
X0082580Y0083916D01*
X0082643Y0083949D01*
X0082703Y0083985D01*
X0082762Y0084024D01*
X0082818Y0084066D01*
X0082872Y0084112D01*
X0082923Y0084160D01*
X0085180Y0080096D02*
X0088433Y0083349D01*
X0083002Y0074937D02*
X0082954Y0074983D01*
X0082902Y0075026D01*
X0082849Y0075066D01*
X0082793Y0075103D01*
X0082735Y0075136D01*
X0082675Y0075166D01*
X0082614Y0075193D01*
X0082551Y0075216D01*
X0082487Y0075235D01*
X0082422Y0075250D01*
X0082356Y0075262D01*
X0082289Y0075270D01*
X0082222Y0075274D01*
X0082156Y0075274D01*
X0082089Y0075270D01*
X0082022Y0075262D01*
X0081956Y0075250D01*
X0081891Y0075235D01*
X0081827Y0075216D01*
X0081764Y0075193D01*
X0081703Y0075166D01*
X0081643Y0075136D01*
X0081585Y0075103D01*
X0081529Y0075066D01*
X0081476Y0075026D01*
X0081424Y0074983D01*
X0081376Y0074937D01*
X0081014Y0074033D02*
X0080743Y0070690D01*
X0078936Y0072497D01*
X0077337Y0073373D02*
X0075892Y0074819D01*
X0075739Y0077141D02*
X0073931Y0078948D01*
X0075196Y0079128D02*
X0073751Y0077683D01*
X0075739Y0077141D02*
X0077546Y0080393D01*
X0083001Y0074936D02*
X0083053Y0074883D01*
X0083101Y0074826D01*
X0083147Y0074768D01*
X0083189Y0074707D01*
X0083228Y0074644D01*
X0083265Y0074579D01*
X0083298Y0074512D01*
X0083327Y0074444D01*
X0083353Y0074374D01*
X0083376Y0074304D01*
X0083394Y0074232D01*
X0083410Y0074159D01*
X0083421Y0074086D01*
X0083429Y0074012D01*
X0083433Y0073938D01*
X0083434Y0073863D01*
X0083430Y0073789D01*
X0083423Y0073715D01*
X0083413Y0073642D01*
X0083398Y0073569D01*
X0083380Y0073497D01*
X0083358Y0073426D01*
X0083333Y0073356D01*
X0083304Y0073287D01*
X0083272Y0073220D01*
X0081014Y0074033D02*
X0081015Y0074100D01*
X0081018Y0074166D01*
X0081026Y0074232D01*
X0081037Y0074298D01*
X0081051Y0074363D01*
X0081069Y0074427D01*
X0081090Y0074491D01*
X0081115Y0074552D01*
X0081143Y0074613D01*
X0081174Y0074672D01*
X0081209Y0074729D01*
X0081246Y0074784D01*
X0081287Y0074837D01*
X0081330Y0074888D01*
X0081376Y0074936D01*
X0084196Y0070851D02*
X0083925Y0067508D01*
X0082118Y0069315D01*
X0086454Y0070038D02*
X0086486Y0070105D01*
X0086515Y0070174D01*
X0086540Y0070244D01*
X0086562Y0070315D01*
X0086580Y0070387D01*
X0086595Y0070460D01*
X0086605Y0070533D01*
X0086612Y0070607D01*
X0086616Y0070681D01*
X0086615Y0070756D01*
X0086611Y0070830D01*
X0086603Y0070904D01*
X0086592Y0070977D01*
X0086576Y0071050D01*
X0086558Y0071122D01*
X0086535Y0071192D01*
X0086509Y0071262D01*
X0086480Y0071330D01*
X0086447Y0071397D01*
X0086410Y0071462D01*
X0086371Y0071525D01*
X0086329Y0071586D01*
X0086283Y0071644D01*
X0086235Y0071701D01*
X0086183Y0071754D01*
X0086184Y0071755D02*
X0086136Y0071801D01*
X0086084Y0071844D01*
X0086031Y0071884D01*
X0085975Y0071921D01*
X0085917Y0071954D01*
X0085857Y0071984D01*
X0085796Y0072011D01*
X0085733Y0072034D01*
X0085669Y0072053D01*
X0085604Y0072068D01*
X0085538Y0072080D01*
X0085471Y0072088D01*
X0085404Y0072092D01*
X0085338Y0072092D01*
X0085271Y0072088D01*
X0085204Y0072080D01*
X0085138Y0072068D01*
X0085073Y0072053D01*
X0085009Y0072034D01*
X0084946Y0072011D01*
X0084885Y0071984D01*
X0084825Y0071954D01*
X0084767Y0071921D01*
X0084711Y0071884D01*
X0084658Y0071844D01*
X0084606Y0071801D01*
X0084558Y0071755D01*
X0084512Y0071707D01*
X0084469Y0071656D01*
X0084428Y0071603D01*
X0084391Y0071548D01*
X0084356Y0071491D01*
X0084325Y0071432D01*
X0084297Y0071371D01*
X0084272Y0071310D01*
X0084251Y0071246D01*
X0084233Y0071182D01*
X0084219Y0071117D01*
X0084208Y0071051D01*
X0084200Y0070985D01*
X0084197Y0070919D01*
X0084196Y0070852D01*
X0087830Y0067218D02*
X0088553Y0066495D01*
X0087830Y0067218D02*
X0087787Y0067264D01*
X0087747Y0067313D01*
X0087710Y0067363D01*
X0087676Y0067416D01*
X0087645Y0067471D01*
X0087618Y0067528D01*
X0087594Y0067587D01*
X0087574Y0067646D01*
X0087558Y0067707D01*
X0087546Y0067769D01*
X0087537Y0067831D01*
X0087532Y0067894D01*
X0087531Y0067957D01*
X0087534Y0068020D01*
X0087541Y0068082D01*
X0087551Y0068144D01*
X0087566Y0068206D01*
X0087584Y0068266D01*
X0087606Y0068325D01*
X0087631Y0068382D01*
X0087660Y0068438D01*
X0087692Y0068492D01*
X0087728Y0068544D01*
X0087767Y0068594D01*
X0087808Y0068641D01*
X0087853Y0068686D01*
X0087900Y0068727D01*
X0087950Y0068766D01*
X0088002Y0068802D01*
X0088056Y0068834D01*
X0088112Y0068863D01*
X0088169Y0068888D01*
X0088228Y0068910D01*
X0088288Y0068928D01*
X0088350Y0068943D01*
X0088412Y0068953D01*
X0088474Y0068960D01*
X0088537Y0068963D01*
X0088600Y0068962D01*
X0088663Y0068957D01*
X0088725Y0068948D01*
X0088787Y0068936D01*
X0088848Y0068920D01*
X0088907Y0068900D01*
X0088966Y0068876D01*
X0089023Y0068849D01*
X0089078Y0068818D01*
X0089131Y0068784D01*
X0089181Y0068747D01*
X0089230Y0068707D01*
X0089276Y0068664D01*
X0089276Y0068663D02*
X0090360Y0067579D01*
X0090831Y0065301D02*
X0089928Y0064397D01*
X0091012Y0063313D01*
X0089928Y0064397D02*
X0089866Y0064333D01*
X0089807Y0064266D01*
X0089751Y0064196D01*
X0089699Y0064124D01*
X0089649Y0064050D01*
X0089603Y0063974D01*
X0089560Y0063896D01*
X0089521Y0063816D01*
X0089485Y0063734D01*
X0089452Y0063651D01*
X0089424Y0063567D01*
X0089399Y0063481D01*
X0089377Y0063394D01*
X0089360Y0063307D01*
X0089346Y0063219D01*
X0089337Y0063130D01*
X0089331Y0063041D01*
X0089329Y0062952D01*
X0089331Y0062863D01*
X0089337Y0062774D01*
X0089346Y0062685D01*
X0089360Y0062597D01*
X0089377Y0062510D01*
X0089399Y0062423D01*
X0089424Y0062337D01*
X0089452Y0062253D01*
X0089485Y0062170D01*
X0089521Y0062088D01*
X0089560Y0062008D01*
X0089603Y0061930D01*
X0089649Y0061854D01*
X0089699Y0061780D01*
X0089751Y0061708D01*
X0089807Y0061638D01*
X0089866Y0061571D01*
X0089928Y0061507D01*
X0093652Y0058685D02*
X0093760Y0058724D01*
X0093866Y0058766D01*
X0093972Y0058811D01*
X0094075Y0058860D01*
X0094178Y0058912D01*
X0094278Y0058966D01*
X0094377Y0059024D01*
X0094475Y0059085D01*
X0094570Y0059149D01*
X0094663Y0059215D01*
X0094755Y0059284D01*
X0094844Y0059357D01*
X0094931Y0059431D01*
X0095015Y0059509D01*
X0095098Y0059588D01*
X0093290Y0061397D02*
X0093373Y0061476D01*
X0093457Y0061554D01*
X0093544Y0061628D01*
X0093633Y0061701D01*
X0093725Y0061770D01*
X0093818Y0061836D01*
X0093913Y0061900D01*
X0094011Y0061961D01*
X0094110Y0062019D01*
X0094210Y0062073D01*
X0094313Y0062125D01*
X0094416Y0062174D01*
X0094522Y0062219D01*
X0094628Y0062261D01*
X0094736Y0062300D01*
X0094375Y0062119D02*
X0094013Y0058866D01*
X0092567Y0058866D02*
X0092527Y0058909D01*
X0092489Y0058954D01*
X0092455Y0059001D01*
X0092423Y0059051D01*
X0092395Y0059102D01*
X0092370Y0059155D01*
X0092348Y0059210D01*
X0092329Y0059265D01*
X0092314Y0059322D01*
X0092303Y0059379D01*
X0092295Y0059438D01*
X0092291Y0059496D01*
X0092290Y0059555D01*
X0092293Y0059613D01*
X0092300Y0059672D01*
X0092310Y0059729D01*
X0092324Y0059786D01*
X0092341Y0059842D01*
X0092362Y0059897D01*
X0092386Y0059951D01*
X0092567Y0058866D02*
X0092610Y0058826D01*
X0092655Y0058788D01*
X0092702Y0058754D01*
X0092752Y0058722D01*
X0092803Y0058694D01*
X0092856Y0058669D01*
X0092911Y0058647D01*
X0092966Y0058628D01*
X0093023Y0058613D01*
X0093080Y0058602D01*
X0093139Y0058594D01*
X0093197Y0058590D01*
X0093256Y0058589D01*
X0093314Y0058592D01*
X0093373Y0058599D01*
X0093430Y0058609D01*
X0093487Y0058623D01*
X0093543Y0058640D01*
X0093598Y0058661D01*
X0093652Y0058685D01*
X0092387Y0059950D02*
X0092426Y0060058D01*
X0092468Y0060164D01*
X0092513Y0060270D01*
X0092562Y0060373D01*
X0092614Y0060476D01*
X0092668Y0060576D01*
X0092726Y0060675D01*
X0092787Y0060773D01*
X0092851Y0060868D01*
X0092917Y0060961D01*
X0092986Y0061053D01*
X0093059Y0061142D01*
X0093133Y0061229D01*
X0093211Y0061313D01*
X0093290Y0061396D01*
X0095098Y0059588D02*
X0095177Y0059671D01*
X0095255Y0059755D01*
X0095329Y0059842D01*
X0095402Y0059931D01*
X0095471Y0060023D01*
X0095537Y0060116D01*
X0095601Y0060211D01*
X0095662Y0060309D01*
X0095720Y0060408D01*
X0095774Y0060508D01*
X0095826Y0060611D01*
X0095875Y0060714D01*
X0095920Y0060820D01*
X0095962Y0060926D01*
X0096001Y0061034D01*
X0095821Y0062119D02*
X0095778Y0062159D01*
X0095733Y0062197D01*
X0095686Y0062231D01*
X0095636Y0062263D01*
X0095585Y0062291D01*
X0095532Y0062316D01*
X0095477Y0062338D01*
X0095422Y0062357D01*
X0095365Y0062372D01*
X0095308Y0062383D01*
X0095249Y0062391D01*
X0095191Y0062395D01*
X0095132Y0062396D01*
X0095074Y0062393D01*
X0095015Y0062386D01*
X0094958Y0062376D01*
X0094901Y0062362D01*
X0094845Y0062345D01*
X0094790Y0062324D01*
X0094736Y0062300D01*
X0095821Y0062119D02*
X0095861Y0062076D01*
X0095899Y0062031D01*
X0095933Y0061984D01*
X0095965Y0061934D01*
X0095993Y0061883D01*
X0096018Y0061830D01*
X0096040Y0061775D01*
X0096059Y0061720D01*
X0096074Y0061663D01*
X0096085Y0061606D01*
X0096093Y0061547D01*
X0096097Y0061489D01*
X0096098Y0061430D01*
X0096095Y0061372D01*
X0096088Y0061313D01*
X0096078Y0061256D01*
X0096064Y0061199D01*
X0096047Y0061143D01*
X0096026Y0061088D01*
X0096002Y0061034D01*
X0096142Y0057821D02*
X0098311Y0055653D01*
X0100648Y0053677D02*
X0101552Y0052773D01*
X0100648Y0053676D02*
X0100600Y0053727D01*
X0100554Y0053781D01*
X0100512Y0053837D01*
X0100473Y0053896D01*
X0100437Y0053956D01*
X0100404Y0054019D01*
X0100375Y0054083D01*
X0100349Y0054148D01*
X0100327Y0054215D01*
X0100309Y0054283D01*
X0100294Y0054352D01*
X0100284Y0054422D01*
X0100277Y0054492D01*
X0100274Y0054562D01*
X0100275Y0054633D01*
X0100280Y0054703D01*
X0100289Y0054773D01*
X0100301Y0054842D01*
X0100318Y0054911D01*
X0100338Y0054978D01*
X0100361Y0055045D01*
X0100389Y0055109D01*
X0100420Y0055173D01*
X0100454Y0055234D01*
X0100492Y0055294D01*
X0100533Y0055351D01*
X0100577Y0055406D01*
X0100624Y0055458D01*
X0100674Y0055508D01*
X0100726Y0055555D01*
X0100781Y0055599D01*
X0100838Y0055640D01*
X0100898Y0055678D01*
X0100959Y0055712D01*
X0101023Y0055743D01*
X0101087Y0055771D01*
X0101154Y0055794D01*
X0101221Y0055814D01*
X0101290Y0055831D01*
X0101359Y0055843D01*
X0101429Y0055852D01*
X0101499Y0055857D01*
X0101570Y0055858D01*
X0101640Y0055855D01*
X0101710Y0055848D01*
X0101780Y0055838D01*
X0101849Y0055823D01*
X0101917Y0055805D01*
X0101984Y0055783D01*
X0102049Y0055757D01*
X0102113Y0055728D01*
X0102176Y0055695D01*
X0102236Y0055659D01*
X0102295Y0055620D01*
X0102351Y0055578D01*
X0102405Y0055532D01*
X0102456Y0055484D01*
X0102455Y0055484D02*
X0103359Y0054580D01*
X0100106Y0051328D01*
X0092458Y0063313D02*
X0092638Y0063494D01*
X0092458Y0063313D02*
X0092413Y0063271D01*
X0092365Y0063231D01*
X0092316Y0063195D01*
X0092264Y0063161D01*
X0092210Y0063131D01*
X0092154Y0063104D01*
X0092097Y0063080D01*
X0092039Y0063060D01*
X0091980Y0063044D01*
X0091919Y0063031D01*
X0091858Y0063021D01*
X0091797Y0063016D01*
X0091735Y0063014D01*
X0091673Y0063016D01*
X0091612Y0063021D01*
X0091551Y0063031D01*
X0091490Y0063044D01*
X0091431Y0063060D01*
X0091373Y0063080D01*
X0091316Y0063104D01*
X0091260Y0063131D01*
X0091206Y0063161D01*
X0091154Y0063195D01*
X0091105Y0063231D01*
X0091057Y0063271D01*
X0091012Y0063313D01*
X0092639Y0063493D02*
X0092687Y0063544D01*
X0092733Y0063598D01*
X0092775Y0063654D01*
X0092814Y0063713D01*
X0092850Y0063773D01*
X0092883Y0063836D01*
X0092912Y0063900D01*
X0092938Y0063965D01*
X0092960Y0064032D01*
X0092978Y0064100D01*
X0092993Y0064169D01*
X0093003Y0064239D01*
X0093010Y0064309D01*
X0093013Y0064379D01*
X0093012Y0064450D01*
X0093007Y0064520D01*
X0092998Y0064590D01*
X0092986Y0064659D01*
X0092969Y0064728D01*
X0092949Y0064795D01*
X0092926Y0064862D01*
X0092898Y0064926D01*
X0092867Y0064990D01*
X0092833Y0065051D01*
X0092795Y0065111D01*
X0092754Y0065168D01*
X0092710Y0065223D01*
X0092663Y0065275D01*
X0092613Y0065325D01*
X0092561Y0065372D01*
X0092506Y0065416D01*
X0092449Y0065457D01*
X0092389Y0065495D01*
X0092328Y0065529D01*
X0092264Y0065560D01*
X0092200Y0065588D01*
X0092133Y0065611D01*
X0092066Y0065631D01*
X0091997Y0065648D01*
X0091928Y0065660D01*
X0091858Y0065669D01*
X0091788Y0065674D01*
X0091717Y0065675D01*
X0091647Y0065672D01*
X0091577Y0065665D01*
X0091507Y0065655D01*
X0091438Y0065640D01*
X0091370Y0065622D01*
X0091303Y0065600D01*
X0091238Y0065574D01*
X0091174Y0065545D01*
X0091111Y0065512D01*
X0091051Y0065476D01*
X0090992Y0065437D01*
X0090936Y0065395D01*
X0090882Y0065349D01*
X0090831Y0065301D01*
X0088011Y0067037D02*
X0087960Y0067085D01*
X0087906Y0067131D01*
X0087850Y0067173D01*
X0087791Y0067212D01*
X0087731Y0067248D01*
X0087668Y0067281D01*
X0087604Y0067310D01*
X0087539Y0067336D01*
X0087472Y0067358D01*
X0087404Y0067376D01*
X0087335Y0067391D01*
X0087265Y0067401D01*
X0087195Y0067408D01*
X0087125Y0067411D01*
X0087054Y0067410D01*
X0086984Y0067405D01*
X0086914Y0067396D01*
X0086845Y0067384D01*
X0086776Y0067367D01*
X0086709Y0067347D01*
X0086642Y0067324D01*
X0086578Y0067296D01*
X0086514Y0067265D01*
X0086453Y0067231D01*
X0086393Y0067193D01*
X0086336Y0067152D01*
X0086281Y0067108D01*
X0086229Y0067061D01*
X0086179Y0067011D01*
X0086132Y0066959D01*
X0086088Y0066904D01*
X0086047Y0066847D01*
X0086009Y0066787D01*
X0085975Y0066726D01*
X0085944Y0066662D01*
X0085916Y0066598D01*
X0085893Y0066531D01*
X0085873Y0066464D01*
X0085856Y0066395D01*
X0085844Y0066326D01*
X0085835Y0066256D01*
X0085830Y0066186D01*
X0085829Y0066115D01*
X0085832Y0066045D01*
X0085839Y0065975D01*
X0085849Y0065905D01*
X0085864Y0065836D01*
X0085882Y0065768D01*
X0085904Y0065701D01*
X0085930Y0065636D01*
X0085959Y0065572D01*
X0085992Y0065509D01*
X0086028Y0065449D01*
X0086067Y0065390D01*
X0086109Y0065334D01*
X0086155Y0065280D01*
X0086203Y0065229D01*
X0086204Y0065230D02*
X0087107Y0064326D01*
X0092442Y0263239D02*
X0093225Y0263896D01*
X0093271Y0263937D01*
X0093315Y0263981D01*
X0093355Y0264027D01*
X0093393Y0264076D01*
X0093428Y0264127D01*
X0093460Y0264180D01*
X0093488Y0264235D01*
X0093514Y0264291D01*
X0093535Y0264349D01*
X0093553Y0264408D01*
X0093568Y0264468D01*
X0093579Y0264529D01*
X0093586Y0264590D01*
X0093590Y0264652D01*
X0093589Y0264713D01*
X0093585Y0264775D01*
X0093578Y0264836D01*
X0093567Y0264897D01*
X0093552Y0264957D01*
X0093533Y0265016D01*
X0093511Y0265073D01*
X0093485Y0265129D01*
X0093456Y0265184D01*
X0093424Y0265237D01*
X0093389Y0265287D01*
X0093351Y0265336D01*
X0091708Y0267294D01*
X0091667Y0267340D01*
X0091623Y0267384D01*
X0091577Y0267424D01*
X0091528Y0267462D01*
X0091477Y0267497D01*
X0091424Y0267529D01*
X0091369Y0267557D01*
X0091313Y0267583D01*
X0091255Y0267604D01*
X0091196Y0267622D01*
X0091136Y0267637D01*
X0091075Y0267648D01*
X0091014Y0267655D01*
X0090952Y0267659D01*
X0090891Y0267658D01*
X0090829Y0267654D01*
X0090768Y0267647D01*
X0090707Y0267636D01*
X0090647Y0267621D01*
X0090588Y0267602D01*
X0090531Y0267580D01*
X0090475Y0267554D01*
X0090420Y0267525D01*
X0090367Y0267493D01*
X0090317Y0267458D01*
X0090268Y0267420D01*
X0089485Y0266763D01*
X0093467Y0268436D02*
X0094781Y0266870D01*
X0094827Y0266818D01*
X0094876Y0266768D01*
X0094927Y0266722D01*
X0094980Y0266678D01*
X0095036Y0266638D01*
X0095095Y0266600D01*
X0095155Y0266565D01*
X0095216Y0266534D01*
X0095280Y0266507D01*
X0095345Y0266482D01*
X0095411Y0266462D01*
X0095478Y0266445D01*
X0095546Y0266431D01*
X0095614Y0266421D01*
X0095683Y0266415D01*
X0095752Y0266413D01*
X0095822Y0266414D01*
X0095891Y0266420D01*
X0095959Y0266429D01*
X0096027Y0266441D01*
X0096095Y0266458D01*
X0096161Y0266477D01*
X0096226Y0266501D01*
X0096290Y0266528D01*
X0096352Y0266558D01*
X0096412Y0266592D01*
X0096471Y0266629D01*
X0096527Y0266669D01*
X0096582Y0266712D01*
X0096581Y0266712D02*
X0097560Y0267534D01*
X0094603Y0271057D01*
X0093625Y0270236D01*
X0093573Y0270190D01*
X0093523Y0270141D01*
X0093477Y0270090D01*
X0093433Y0270037D01*
X0093393Y0269981D01*
X0093355Y0269922D01*
X0093320Y0269862D01*
X0093289Y0269801D01*
X0093262Y0269737D01*
X0093237Y0269672D01*
X0093217Y0269606D01*
X0093200Y0269539D01*
X0093186Y0269471D01*
X0093176Y0269403D01*
X0093170Y0269334D01*
X0093168Y0269265D01*
X0093169Y0269195D01*
X0093175Y0269126D01*
X0093184Y0269058D01*
X0093196Y0268990D01*
X0093213Y0268923D01*
X0093232Y0268856D01*
X0093256Y0268791D01*
X0093283Y0268727D01*
X0093313Y0268665D01*
X0093347Y0268605D01*
X0093384Y0268546D01*
X0093424Y0268490D01*
X0093467Y0268436D01*
X0096035Y0272259D02*
X0096818Y0272916D01*
X0096867Y0272954D01*
X0096917Y0272989D01*
X0096970Y0273021D01*
X0097025Y0273050D01*
X0097081Y0273076D01*
X0097138Y0273098D01*
X0097197Y0273117D01*
X0097257Y0273132D01*
X0097318Y0273143D01*
X0097379Y0273150D01*
X0097441Y0273154D01*
X0097502Y0273155D01*
X0097564Y0273151D01*
X0097625Y0273144D01*
X0097686Y0273133D01*
X0097746Y0273118D01*
X0097805Y0273100D01*
X0097863Y0273079D01*
X0097919Y0273053D01*
X0097974Y0273025D01*
X0098027Y0272993D01*
X0098078Y0272958D01*
X0098127Y0272920D01*
X0098173Y0272880D01*
X0098217Y0272836D01*
X0098258Y0272790D01*
X0099901Y0270832D01*
X0099939Y0270783D01*
X0099974Y0270733D01*
X0100006Y0270680D01*
X0100035Y0270625D01*
X0100061Y0270569D01*
X0100083Y0270512D01*
X0100102Y0270453D01*
X0100117Y0270393D01*
X0100128Y0270332D01*
X0100135Y0270271D01*
X0100139Y0270209D01*
X0100140Y0270148D01*
X0100136Y0270086D01*
X0100129Y0270025D01*
X0100118Y0269964D01*
X0100103Y0269904D01*
X0100085Y0269845D01*
X0100064Y0269787D01*
X0100038Y0269731D01*
X0100010Y0269676D01*
X0099978Y0269623D01*
X0099943Y0269572D01*
X0099905Y0269523D01*
X0099865Y0269477D01*
X0099821Y0269433D01*
X0099775Y0269392D01*
X0098992Y0268735D01*
X0101331Y0272366D02*
X0100017Y0273932D01*
X0099974Y0273986D01*
X0099934Y0274042D01*
X0099897Y0274101D01*
X0099863Y0274161D01*
X0099833Y0274223D01*
X0099806Y0274287D01*
X0099782Y0274352D01*
X0099763Y0274419D01*
X0099746Y0274486D01*
X0099734Y0274554D01*
X0099725Y0274622D01*
X0099719Y0274691D01*
X0099718Y0274761D01*
X0099720Y0274830D01*
X0099726Y0274899D01*
X0099736Y0274967D01*
X0099750Y0275035D01*
X0099767Y0275102D01*
X0099787Y0275168D01*
X0099812Y0275233D01*
X0099839Y0275297D01*
X0099870Y0275358D01*
X0099905Y0275418D01*
X0099943Y0275477D01*
X0099983Y0275533D01*
X0100027Y0275586D01*
X0100073Y0275637D01*
X0100123Y0275686D01*
X0100175Y0275732D01*
X0100174Y0275732D02*
X0101153Y0276553D01*
X0104110Y0273030D01*
X0103131Y0272208D01*
X0103132Y0272208D02*
X0103077Y0272165D01*
X0103021Y0272125D01*
X0102962Y0272088D01*
X0102902Y0272054D01*
X0102840Y0272024D01*
X0102776Y0271997D01*
X0102711Y0271973D01*
X0102645Y0271954D01*
X0102577Y0271937D01*
X0102509Y0271925D01*
X0102441Y0271916D01*
X0102372Y0271910D01*
X0102302Y0271909D01*
X0102233Y0271911D01*
X0102164Y0271917D01*
X0102096Y0271927D01*
X0102028Y0271941D01*
X0101961Y0271958D01*
X0101895Y0271978D01*
X0101830Y0272003D01*
X0101766Y0272030D01*
X0101705Y0272061D01*
X0101645Y0272096D01*
X0101586Y0272134D01*
X0101530Y0272174D01*
X0101477Y0272218D01*
X0101426Y0272264D01*
X0101377Y0272314D01*
X0101331Y0272366D01*
M02*
