G75*
%MOIN*%
%OFA0B0*%
%FSLAX25Y25*%
%IPPOS*%
%LPD*%
%AMOC8*
5,1,8,0,0,1.08239X$1,22.5*
%
%ADD10C,0.00600*%
%ADD11C,0.00000*%
%ADD12R,0.03150X0.03150*%
%ADD13C,0.00500*%
D10*
X0005820Y0134404D02*
X0005822Y0134594D01*
X0005829Y0134784D01*
X0005841Y0134974D01*
X0005857Y0135164D01*
X0005877Y0135353D01*
X0005903Y0135542D01*
X0005932Y0135730D01*
X0005967Y0135917D01*
X0006006Y0136103D01*
X0006049Y0136288D01*
X0006097Y0136473D01*
X0006149Y0136656D01*
X0006205Y0136837D01*
X0006266Y0137017D01*
X0006332Y0137196D01*
X0006401Y0137373D01*
X0006475Y0137549D01*
X0006553Y0137722D01*
X0006636Y0137894D01*
X0006722Y0138063D01*
X0006812Y0138231D01*
X0006907Y0138396D01*
X0007005Y0138559D01*
X0007108Y0138719D01*
X0007214Y0138877D01*
X0007324Y0139032D01*
X0007437Y0139185D01*
X0007555Y0139335D01*
X0007676Y0139481D01*
X0007800Y0139625D01*
X0007928Y0139766D01*
X0008059Y0139904D01*
X0008194Y0140039D01*
X0008332Y0140170D01*
X0008473Y0140298D01*
X0008617Y0140422D01*
X0008763Y0140543D01*
X0008913Y0140661D01*
X0009066Y0140774D01*
X0009221Y0140884D01*
X0009379Y0140990D01*
X0009539Y0141093D01*
X0009702Y0141191D01*
X0009867Y0141286D01*
X0010035Y0141376D01*
X0010204Y0141462D01*
X0010376Y0141545D01*
X0010549Y0141623D01*
X0010725Y0141697D01*
X0010902Y0141766D01*
X0011081Y0141832D01*
X0011261Y0141893D01*
X0011442Y0141949D01*
X0011625Y0142001D01*
X0011810Y0142049D01*
X0011995Y0142092D01*
X0012181Y0142131D01*
X0012368Y0142166D01*
X0012556Y0142195D01*
X0012745Y0142221D01*
X0012934Y0142241D01*
X0013124Y0142257D01*
X0013314Y0142269D01*
X0013504Y0142276D01*
X0013694Y0142278D01*
X0033379Y0142278D01*
X0033379Y0142277D02*
X0033531Y0142279D01*
X0033683Y0142285D01*
X0033835Y0142295D01*
X0033986Y0142308D01*
X0034137Y0142326D01*
X0034288Y0142347D01*
X0034438Y0142373D01*
X0034587Y0142402D01*
X0034736Y0142435D01*
X0034883Y0142472D01*
X0035030Y0142512D01*
X0035175Y0142557D01*
X0035319Y0142605D01*
X0035462Y0142657D01*
X0035604Y0142712D01*
X0035744Y0142771D01*
X0035883Y0142834D01*
X0036020Y0142900D01*
X0036155Y0142970D01*
X0036288Y0143043D01*
X0036419Y0143120D01*
X0036549Y0143200D01*
X0036676Y0143283D01*
X0036801Y0143369D01*
X0036924Y0143459D01*
X0037044Y0143552D01*
X0037162Y0143648D01*
X0037278Y0143747D01*
X0037391Y0143849D01*
X0037501Y0143953D01*
X0037609Y0144061D01*
X0037713Y0144171D01*
X0037815Y0144284D01*
X0037914Y0144400D01*
X0038010Y0144518D01*
X0038103Y0144638D01*
X0038193Y0144761D01*
X0038279Y0144886D01*
X0038362Y0145013D01*
X0038442Y0145143D01*
X0038519Y0145274D01*
X0038592Y0145407D01*
X0038662Y0145542D01*
X0038728Y0145679D01*
X0038791Y0145818D01*
X0038850Y0145958D01*
X0038905Y0146100D01*
X0038957Y0146243D01*
X0039005Y0146387D01*
X0039050Y0146532D01*
X0039090Y0146679D01*
X0039127Y0146826D01*
X0039160Y0146975D01*
X0039189Y0147124D01*
X0039215Y0147274D01*
X0039236Y0147425D01*
X0039254Y0147576D01*
X0039267Y0147727D01*
X0039277Y0147879D01*
X0039283Y0148031D01*
X0039285Y0148183D01*
X0039284Y0148183D02*
X0039284Y0183617D01*
X0039285Y0183617D02*
X0039283Y0183769D01*
X0039277Y0183921D01*
X0039267Y0184073D01*
X0039254Y0184224D01*
X0039236Y0184375D01*
X0039215Y0184526D01*
X0039189Y0184676D01*
X0039160Y0184825D01*
X0039127Y0184974D01*
X0039090Y0185121D01*
X0039050Y0185268D01*
X0039005Y0185413D01*
X0038957Y0185557D01*
X0038905Y0185700D01*
X0038850Y0185842D01*
X0038791Y0185982D01*
X0038728Y0186121D01*
X0038662Y0186258D01*
X0038592Y0186393D01*
X0038519Y0186526D01*
X0038442Y0186657D01*
X0038362Y0186787D01*
X0038279Y0186914D01*
X0038193Y0187039D01*
X0038103Y0187162D01*
X0038010Y0187282D01*
X0037914Y0187400D01*
X0037815Y0187516D01*
X0037713Y0187629D01*
X0037609Y0187739D01*
X0037501Y0187847D01*
X0037391Y0187951D01*
X0037278Y0188053D01*
X0037162Y0188152D01*
X0037044Y0188248D01*
X0036924Y0188341D01*
X0036801Y0188431D01*
X0036676Y0188517D01*
X0036549Y0188600D01*
X0036419Y0188680D01*
X0036288Y0188757D01*
X0036155Y0188830D01*
X0036020Y0188900D01*
X0035883Y0188966D01*
X0035744Y0189029D01*
X0035604Y0189088D01*
X0035462Y0189143D01*
X0035319Y0189195D01*
X0035175Y0189243D01*
X0035030Y0189288D01*
X0034883Y0189328D01*
X0034736Y0189365D01*
X0034587Y0189398D01*
X0034438Y0189427D01*
X0034288Y0189453D01*
X0034137Y0189474D01*
X0033986Y0189492D01*
X0033835Y0189505D01*
X0033683Y0189515D01*
X0033531Y0189521D01*
X0033379Y0189523D01*
X0033379Y0189522D02*
X0013694Y0189522D01*
X0013504Y0189524D01*
X0013314Y0189531D01*
X0013124Y0189543D01*
X0012934Y0189559D01*
X0012745Y0189579D01*
X0012556Y0189605D01*
X0012368Y0189634D01*
X0012181Y0189669D01*
X0011995Y0189708D01*
X0011810Y0189751D01*
X0011625Y0189799D01*
X0011442Y0189851D01*
X0011261Y0189907D01*
X0011081Y0189968D01*
X0010902Y0190034D01*
X0010725Y0190103D01*
X0010549Y0190177D01*
X0010376Y0190255D01*
X0010204Y0190338D01*
X0010035Y0190424D01*
X0009867Y0190514D01*
X0009702Y0190609D01*
X0009539Y0190707D01*
X0009379Y0190810D01*
X0009221Y0190916D01*
X0009066Y0191026D01*
X0008913Y0191139D01*
X0008763Y0191257D01*
X0008617Y0191378D01*
X0008473Y0191502D01*
X0008332Y0191630D01*
X0008194Y0191761D01*
X0008059Y0191896D01*
X0007928Y0192034D01*
X0007800Y0192175D01*
X0007676Y0192319D01*
X0007555Y0192465D01*
X0007437Y0192615D01*
X0007324Y0192768D01*
X0007214Y0192923D01*
X0007108Y0193081D01*
X0007005Y0193241D01*
X0006907Y0193404D01*
X0006812Y0193569D01*
X0006722Y0193737D01*
X0006636Y0193906D01*
X0006553Y0194078D01*
X0006475Y0194251D01*
X0006401Y0194427D01*
X0006332Y0194604D01*
X0006266Y0194783D01*
X0006205Y0194963D01*
X0006149Y0195144D01*
X0006097Y0195327D01*
X0006049Y0195512D01*
X0006006Y0195697D01*
X0005967Y0195883D01*
X0005932Y0196070D01*
X0005903Y0196258D01*
X0005877Y0196447D01*
X0005857Y0196636D01*
X0005841Y0196826D01*
X0005829Y0197016D01*
X0005822Y0197206D01*
X0005820Y0197396D01*
X0006613Y0201230D01*
X0007501Y0205043D01*
X0008480Y0208833D01*
X0009553Y0212598D01*
X0010716Y0216336D01*
X0011971Y0220045D01*
X0013315Y0223722D01*
X0014749Y0227365D01*
X0016272Y0230971D01*
X0017882Y0234540D01*
X0019579Y0238068D01*
X0021361Y0241554D01*
X0023227Y0244995D01*
X0025178Y0248390D01*
X0027210Y0251736D01*
X0029323Y0255031D01*
X0031517Y0258274D01*
X0033788Y0261463D01*
X0036137Y0264595D01*
X0038562Y0267669D01*
X0041061Y0270682D01*
X0043632Y0273634D01*
X0046275Y0276522D01*
X0048988Y0279345D01*
X0051768Y0282101D01*
X0054615Y0284788D01*
X0057527Y0287405D01*
X0060502Y0289950D01*
X0063538Y0292422D01*
X0066633Y0294819D01*
X0069786Y0297140D01*
X0072995Y0299383D01*
X0076257Y0301547D01*
X0079572Y0303631D01*
X0082936Y0305633D01*
X0086348Y0307553D01*
X0089806Y0309388D01*
X0093307Y0311139D01*
X0096851Y0312804D01*
X0100433Y0314382D01*
X0104054Y0315872D01*
X0107709Y0317274D01*
X0111398Y0318585D01*
X0115117Y0319807D01*
X0118866Y0320937D01*
X0122640Y0321975D01*
X0126439Y0322921D01*
X0130260Y0323774D01*
X0134101Y0324533D01*
X0137959Y0325199D01*
X0141832Y0325770D01*
X0145718Y0326247D01*
X0149614Y0326628D01*
X0153518Y0326915D01*
X0157429Y0327106D01*
X0161343Y0327201D01*
X0165257Y0327201D01*
X0169171Y0327106D01*
X0173082Y0326915D01*
X0176986Y0326628D01*
X0180882Y0326247D01*
X0184768Y0325770D01*
X0188641Y0325199D01*
X0192499Y0324533D01*
X0196340Y0323774D01*
X0200161Y0322921D01*
X0203960Y0321975D01*
X0207734Y0320937D01*
X0211483Y0319807D01*
X0215202Y0318585D01*
X0218891Y0317274D01*
X0222546Y0315872D01*
X0226167Y0314382D01*
X0229749Y0312804D01*
X0233293Y0311139D01*
X0236794Y0309388D01*
X0240252Y0307553D01*
X0243664Y0305633D01*
X0247028Y0303631D01*
X0250343Y0301547D01*
X0253605Y0299383D01*
X0256814Y0297140D01*
X0259967Y0294819D01*
X0263062Y0292422D01*
X0266098Y0289950D01*
X0269073Y0287405D01*
X0271985Y0284788D01*
X0274832Y0282101D01*
X0277612Y0279345D01*
X0280325Y0276522D01*
X0282968Y0273634D01*
X0285539Y0270682D01*
X0288038Y0267669D01*
X0290463Y0264595D01*
X0292812Y0261463D01*
X0295083Y0258274D01*
X0297277Y0255031D01*
X0299390Y0251736D01*
X0301422Y0248390D01*
X0303373Y0244995D01*
X0305239Y0241554D01*
X0307021Y0238068D01*
X0308718Y0234540D01*
X0310328Y0230971D01*
X0311851Y0227365D01*
X0313285Y0223722D01*
X0314629Y0220045D01*
X0315884Y0216336D01*
X0317047Y0212598D01*
X0318120Y0208833D01*
X0319099Y0205043D01*
X0319987Y0201230D01*
X0320780Y0197396D01*
X0320778Y0197206D01*
X0320771Y0197016D01*
X0320759Y0196826D01*
X0320743Y0196636D01*
X0320723Y0196447D01*
X0320697Y0196258D01*
X0320668Y0196070D01*
X0320633Y0195883D01*
X0320594Y0195697D01*
X0320551Y0195512D01*
X0320503Y0195327D01*
X0320451Y0195144D01*
X0320395Y0194963D01*
X0320334Y0194783D01*
X0320268Y0194604D01*
X0320199Y0194427D01*
X0320125Y0194251D01*
X0320047Y0194078D01*
X0319964Y0193906D01*
X0319878Y0193737D01*
X0319788Y0193569D01*
X0319693Y0193404D01*
X0319595Y0193241D01*
X0319492Y0193081D01*
X0319386Y0192923D01*
X0319276Y0192768D01*
X0319163Y0192615D01*
X0319045Y0192465D01*
X0318924Y0192319D01*
X0318800Y0192175D01*
X0318672Y0192034D01*
X0318541Y0191896D01*
X0318406Y0191761D01*
X0318268Y0191630D01*
X0318127Y0191502D01*
X0317983Y0191378D01*
X0317837Y0191257D01*
X0317687Y0191139D01*
X0317534Y0191026D01*
X0317379Y0190916D01*
X0317221Y0190810D01*
X0317061Y0190707D01*
X0316898Y0190609D01*
X0316733Y0190514D01*
X0316565Y0190424D01*
X0316396Y0190338D01*
X0316224Y0190255D01*
X0316051Y0190177D01*
X0315875Y0190103D01*
X0315698Y0190034D01*
X0315519Y0189968D01*
X0315339Y0189907D01*
X0315158Y0189851D01*
X0314975Y0189799D01*
X0314790Y0189751D01*
X0314605Y0189708D01*
X0314419Y0189669D01*
X0314232Y0189634D01*
X0314044Y0189605D01*
X0313855Y0189579D01*
X0313666Y0189559D01*
X0313476Y0189543D01*
X0313286Y0189531D01*
X0313096Y0189524D01*
X0312906Y0189522D01*
X0293221Y0189522D01*
X0293221Y0189523D02*
X0293069Y0189521D01*
X0292917Y0189515D01*
X0292765Y0189505D01*
X0292614Y0189492D01*
X0292463Y0189474D01*
X0292312Y0189453D01*
X0292162Y0189427D01*
X0292013Y0189398D01*
X0291864Y0189365D01*
X0291717Y0189328D01*
X0291570Y0189288D01*
X0291425Y0189243D01*
X0291281Y0189195D01*
X0291138Y0189143D01*
X0290996Y0189088D01*
X0290856Y0189029D01*
X0290717Y0188966D01*
X0290580Y0188900D01*
X0290445Y0188830D01*
X0290312Y0188757D01*
X0290181Y0188680D01*
X0290051Y0188600D01*
X0289924Y0188517D01*
X0289799Y0188431D01*
X0289676Y0188341D01*
X0289556Y0188248D01*
X0289438Y0188152D01*
X0289322Y0188053D01*
X0289209Y0187951D01*
X0289099Y0187847D01*
X0288991Y0187739D01*
X0288887Y0187629D01*
X0288785Y0187516D01*
X0288686Y0187400D01*
X0288590Y0187282D01*
X0288497Y0187162D01*
X0288407Y0187039D01*
X0288321Y0186914D01*
X0288238Y0186787D01*
X0288158Y0186657D01*
X0288081Y0186526D01*
X0288008Y0186393D01*
X0287938Y0186258D01*
X0287872Y0186121D01*
X0287809Y0185982D01*
X0287750Y0185842D01*
X0287695Y0185700D01*
X0287643Y0185557D01*
X0287595Y0185413D01*
X0287550Y0185268D01*
X0287510Y0185121D01*
X0287473Y0184974D01*
X0287440Y0184825D01*
X0287411Y0184676D01*
X0287385Y0184526D01*
X0287364Y0184375D01*
X0287346Y0184224D01*
X0287333Y0184073D01*
X0287323Y0183921D01*
X0287317Y0183769D01*
X0287315Y0183617D01*
X0287316Y0183617D02*
X0287316Y0148183D01*
X0287315Y0148183D02*
X0287317Y0148031D01*
X0287323Y0147879D01*
X0287333Y0147727D01*
X0287346Y0147576D01*
X0287364Y0147425D01*
X0287385Y0147274D01*
X0287411Y0147124D01*
X0287440Y0146975D01*
X0287473Y0146826D01*
X0287510Y0146679D01*
X0287550Y0146532D01*
X0287595Y0146387D01*
X0287643Y0146243D01*
X0287695Y0146100D01*
X0287750Y0145958D01*
X0287809Y0145818D01*
X0287872Y0145679D01*
X0287938Y0145542D01*
X0288008Y0145407D01*
X0288081Y0145274D01*
X0288158Y0145143D01*
X0288238Y0145013D01*
X0288321Y0144886D01*
X0288407Y0144761D01*
X0288497Y0144638D01*
X0288590Y0144518D01*
X0288686Y0144400D01*
X0288785Y0144284D01*
X0288887Y0144171D01*
X0288991Y0144061D01*
X0289099Y0143953D01*
X0289209Y0143849D01*
X0289322Y0143747D01*
X0289438Y0143648D01*
X0289556Y0143552D01*
X0289676Y0143459D01*
X0289799Y0143369D01*
X0289924Y0143283D01*
X0290051Y0143200D01*
X0290181Y0143120D01*
X0290312Y0143043D01*
X0290445Y0142970D01*
X0290580Y0142900D01*
X0290717Y0142834D01*
X0290856Y0142771D01*
X0290996Y0142712D01*
X0291138Y0142657D01*
X0291281Y0142605D01*
X0291425Y0142557D01*
X0291570Y0142512D01*
X0291717Y0142472D01*
X0291864Y0142435D01*
X0292013Y0142402D01*
X0292162Y0142373D01*
X0292312Y0142347D01*
X0292463Y0142326D01*
X0292614Y0142308D01*
X0292765Y0142295D01*
X0292917Y0142285D01*
X0293069Y0142279D01*
X0293221Y0142277D01*
X0293221Y0142278D02*
X0312906Y0142278D01*
X0313096Y0142276D01*
X0313286Y0142269D01*
X0313476Y0142257D01*
X0313666Y0142241D01*
X0313855Y0142221D01*
X0314044Y0142195D01*
X0314232Y0142166D01*
X0314419Y0142131D01*
X0314605Y0142092D01*
X0314790Y0142049D01*
X0314975Y0142001D01*
X0315158Y0141949D01*
X0315339Y0141893D01*
X0315519Y0141832D01*
X0315698Y0141766D01*
X0315875Y0141697D01*
X0316051Y0141623D01*
X0316224Y0141545D01*
X0316396Y0141462D01*
X0316565Y0141376D01*
X0316733Y0141286D01*
X0316898Y0141191D01*
X0317061Y0141093D01*
X0317221Y0140990D01*
X0317379Y0140884D01*
X0317534Y0140774D01*
X0317687Y0140661D01*
X0317837Y0140543D01*
X0317983Y0140422D01*
X0318127Y0140298D01*
X0318268Y0140170D01*
X0318406Y0140039D01*
X0318541Y0139904D01*
X0318672Y0139766D01*
X0318800Y0139625D01*
X0318924Y0139481D01*
X0319045Y0139335D01*
X0319163Y0139185D01*
X0319276Y0139032D01*
X0319386Y0138877D01*
X0319492Y0138719D01*
X0319595Y0138559D01*
X0319693Y0138396D01*
X0319788Y0138231D01*
X0319878Y0138063D01*
X0319964Y0137894D01*
X0320047Y0137722D01*
X0320125Y0137549D01*
X0320199Y0137373D01*
X0320268Y0137196D01*
X0320334Y0137017D01*
X0320395Y0136837D01*
X0320451Y0136656D01*
X0320503Y0136473D01*
X0320551Y0136288D01*
X0320594Y0136103D01*
X0320633Y0135917D01*
X0320668Y0135730D01*
X0320697Y0135542D01*
X0320723Y0135353D01*
X0320743Y0135164D01*
X0320759Y0134974D01*
X0320771Y0134784D01*
X0320778Y0134594D01*
X0320780Y0134404D01*
X0319987Y0130570D01*
X0319099Y0126757D01*
X0318120Y0122967D01*
X0317047Y0119202D01*
X0315884Y0115464D01*
X0314629Y0111755D01*
X0313285Y0108078D01*
X0311851Y0104435D01*
X0310328Y0100829D01*
X0308718Y0097260D01*
X0307021Y0093732D01*
X0305239Y0090246D01*
X0303373Y0086805D01*
X0301422Y0083410D01*
X0299390Y0080064D01*
X0297277Y0076769D01*
X0295083Y0073526D01*
X0292812Y0070337D01*
X0290463Y0067205D01*
X0288038Y0064131D01*
X0285539Y0061118D01*
X0282968Y0058166D01*
X0280325Y0055278D01*
X0277612Y0052455D01*
X0274832Y0049699D01*
X0271985Y0047012D01*
X0269073Y0044395D01*
X0266098Y0041850D01*
X0263062Y0039378D01*
X0259967Y0036981D01*
X0256814Y0034660D01*
X0253605Y0032417D01*
X0250343Y0030253D01*
X0247028Y0028169D01*
X0243664Y0026167D01*
X0240252Y0024247D01*
X0236794Y0022412D01*
X0233293Y0020661D01*
X0229749Y0018996D01*
X0226167Y0017418D01*
X0222546Y0015928D01*
X0218891Y0014526D01*
X0215202Y0013215D01*
X0211483Y0011993D01*
X0207734Y0010863D01*
X0203960Y0009825D01*
X0200161Y0008879D01*
X0196340Y0008026D01*
X0192499Y0007267D01*
X0188641Y0006601D01*
X0184768Y0006030D01*
X0180882Y0005553D01*
X0176986Y0005172D01*
X0173082Y0004885D01*
X0169171Y0004694D01*
X0165257Y0004599D01*
X0161343Y0004599D01*
X0157429Y0004694D01*
X0153518Y0004885D01*
X0149614Y0005172D01*
X0145718Y0005553D01*
X0141832Y0006030D01*
X0137959Y0006601D01*
X0134101Y0007267D01*
X0130260Y0008026D01*
X0126439Y0008879D01*
X0122640Y0009825D01*
X0118866Y0010863D01*
X0115117Y0011993D01*
X0111398Y0013215D01*
X0107709Y0014526D01*
X0104054Y0015928D01*
X0100433Y0017418D01*
X0096851Y0018996D01*
X0093307Y0020661D01*
X0089806Y0022412D01*
X0086348Y0024247D01*
X0082936Y0026167D01*
X0079572Y0028169D01*
X0076257Y0030253D01*
X0072995Y0032417D01*
X0069786Y0034660D01*
X0066633Y0036981D01*
X0063538Y0039378D01*
X0060502Y0041850D01*
X0057527Y0044395D01*
X0054615Y0047012D01*
X0051768Y0049699D01*
X0048988Y0052455D01*
X0046275Y0055278D01*
X0043632Y0058166D01*
X0041061Y0061118D01*
X0038562Y0064131D01*
X0036137Y0067205D01*
X0033788Y0070337D01*
X0031517Y0073526D01*
X0029323Y0076769D01*
X0027210Y0080064D01*
X0025178Y0083410D01*
X0023227Y0086805D01*
X0021361Y0090246D01*
X0019579Y0093732D01*
X0017882Y0097260D01*
X0016272Y0100829D01*
X0014749Y0104435D01*
X0013315Y0108078D01*
X0011971Y0111755D01*
X0010716Y0115464D01*
X0009553Y0119202D01*
X0008480Y0122967D01*
X0007501Y0126757D01*
X0006613Y0130570D01*
X0005820Y0134404D01*
D11*
X0077195Y0115796D02*
X0077197Y0115865D01*
X0077203Y0115933D01*
X0077213Y0116001D01*
X0077227Y0116068D01*
X0077245Y0116135D01*
X0077266Y0116200D01*
X0077292Y0116264D01*
X0077321Y0116326D01*
X0077353Y0116386D01*
X0077389Y0116445D01*
X0077429Y0116501D01*
X0077471Y0116555D01*
X0077517Y0116606D01*
X0077566Y0116655D01*
X0077617Y0116701D01*
X0077671Y0116743D01*
X0077727Y0116783D01*
X0077785Y0116819D01*
X0077846Y0116851D01*
X0077908Y0116880D01*
X0077972Y0116906D01*
X0078037Y0116927D01*
X0078104Y0116945D01*
X0078171Y0116959D01*
X0078239Y0116969D01*
X0078307Y0116975D01*
X0078376Y0116977D01*
X0078445Y0116975D01*
X0078513Y0116969D01*
X0078581Y0116959D01*
X0078648Y0116945D01*
X0078715Y0116927D01*
X0078780Y0116906D01*
X0078844Y0116880D01*
X0078906Y0116851D01*
X0078966Y0116819D01*
X0079025Y0116783D01*
X0079081Y0116743D01*
X0079135Y0116701D01*
X0079186Y0116655D01*
X0079235Y0116606D01*
X0079281Y0116555D01*
X0079323Y0116501D01*
X0079363Y0116445D01*
X0079399Y0116386D01*
X0079431Y0116326D01*
X0079460Y0116264D01*
X0079486Y0116200D01*
X0079507Y0116135D01*
X0079525Y0116068D01*
X0079539Y0116001D01*
X0079549Y0115933D01*
X0079555Y0115865D01*
X0079557Y0115796D01*
X0079555Y0115727D01*
X0079549Y0115659D01*
X0079539Y0115591D01*
X0079525Y0115524D01*
X0079507Y0115457D01*
X0079486Y0115392D01*
X0079460Y0115328D01*
X0079431Y0115266D01*
X0079399Y0115205D01*
X0079363Y0115147D01*
X0079323Y0115091D01*
X0079281Y0115037D01*
X0079235Y0114986D01*
X0079186Y0114937D01*
X0079135Y0114891D01*
X0079081Y0114849D01*
X0079025Y0114809D01*
X0078967Y0114773D01*
X0078906Y0114741D01*
X0078844Y0114712D01*
X0078780Y0114686D01*
X0078715Y0114665D01*
X0078648Y0114647D01*
X0078581Y0114633D01*
X0078513Y0114623D01*
X0078445Y0114617D01*
X0078376Y0114615D01*
X0078307Y0114617D01*
X0078239Y0114623D01*
X0078171Y0114633D01*
X0078104Y0114647D01*
X0078037Y0114665D01*
X0077972Y0114686D01*
X0077908Y0114712D01*
X0077846Y0114741D01*
X0077785Y0114773D01*
X0077727Y0114809D01*
X0077671Y0114849D01*
X0077617Y0114891D01*
X0077566Y0114937D01*
X0077517Y0114986D01*
X0077471Y0115037D01*
X0077429Y0115091D01*
X0077389Y0115147D01*
X0077353Y0115205D01*
X0077321Y0115266D01*
X0077292Y0115328D01*
X0077266Y0115392D01*
X0077245Y0115457D01*
X0077227Y0115524D01*
X0077213Y0115591D01*
X0077203Y0115659D01*
X0077197Y0115727D01*
X0077195Y0115796D01*
X0083623Y0123457D02*
X0083625Y0123526D01*
X0083631Y0123594D01*
X0083641Y0123662D01*
X0083655Y0123729D01*
X0083673Y0123796D01*
X0083694Y0123861D01*
X0083720Y0123925D01*
X0083749Y0123987D01*
X0083781Y0124047D01*
X0083817Y0124106D01*
X0083857Y0124162D01*
X0083899Y0124216D01*
X0083945Y0124267D01*
X0083994Y0124316D01*
X0084045Y0124362D01*
X0084099Y0124404D01*
X0084155Y0124444D01*
X0084213Y0124480D01*
X0084274Y0124512D01*
X0084336Y0124541D01*
X0084400Y0124567D01*
X0084465Y0124588D01*
X0084532Y0124606D01*
X0084599Y0124620D01*
X0084667Y0124630D01*
X0084735Y0124636D01*
X0084804Y0124638D01*
X0084873Y0124636D01*
X0084941Y0124630D01*
X0085009Y0124620D01*
X0085076Y0124606D01*
X0085143Y0124588D01*
X0085208Y0124567D01*
X0085272Y0124541D01*
X0085334Y0124512D01*
X0085394Y0124480D01*
X0085453Y0124444D01*
X0085509Y0124404D01*
X0085563Y0124362D01*
X0085614Y0124316D01*
X0085663Y0124267D01*
X0085709Y0124216D01*
X0085751Y0124162D01*
X0085791Y0124106D01*
X0085827Y0124047D01*
X0085859Y0123987D01*
X0085888Y0123925D01*
X0085914Y0123861D01*
X0085935Y0123796D01*
X0085953Y0123729D01*
X0085967Y0123662D01*
X0085977Y0123594D01*
X0085983Y0123526D01*
X0085985Y0123457D01*
X0085983Y0123388D01*
X0085977Y0123320D01*
X0085967Y0123252D01*
X0085953Y0123185D01*
X0085935Y0123118D01*
X0085914Y0123053D01*
X0085888Y0122989D01*
X0085859Y0122927D01*
X0085827Y0122866D01*
X0085791Y0122808D01*
X0085751Y0122752D01*
X0085709Y0122698D01*
X0085663Y0122647D01*
X0085614Y0122598D01*
X0085563Y0122552D01*
X0085509Y0122510D01*
X0085453Y0122470D01*
X0085395Y0122434D01*
X0085334Y0122402D01*
X0085272Y0122373D01*
X0085208Y0122347D01*
X0085143Y0122326D01*
X0085076Y0122308D01*
X0085009Y0122294D01*
X0084941Y0122284D01*
X0084873Y0122278D01*
X0084804Y0122276D01*
X0084735Y0122278D01*
X0084667Y0122284D01*
X0084599Y0122294D01*
X0084532Y0122308D01*
X0084465Y0122326D01*
X0084400Y0122347D01*
X0084336Y0122373D01*
X0084274Y0122402D01*
X0084213Y0122434D01*
X0084155Y0122470D01*
X0084099Y0122510D01*
X0084045Y0122552D01*
X0083994Y0122598D01*
X0083945Y0122647D01*
X0083899Y0122698D01*
X0083857Y0122752D01*
X0083817Y0122808D01*
X0083781Y0122866D01*
X0083749Y0122927D01*
X0083720Y0122989D01*
X0083694Y0123053D01*
X0083673Y0123118D01*
X0083655Y0123185D01*
X0083641Y0123252D01*
X0083631Y0123320D01*
X0083625Y0123388D01*
X0083623Y0123457D01*
X0047158Y0165900D02*
X0047160Y0166053D01*
X0047166Y0166207D01*
X0047176Y0166360D01*
X0047190Y0166512D01*
X0047208Y0166665D01*
X0047230Y0166816D01*
X0047255Y0166967D01*
X0047285Y0167118D01*
X0047319Y0167268D01*
X0047356Y0167416D01*
X0047397Y0167564D01*
X0047442Y0167710D01*
X0047491Y0167856D01*
X0047544Y0168000D01*
X0047600Y0168142D01*
X0047660Y0168283D01*
X0047724Y0168423D01*
X0047791Y0168561D01*
X0047862Y0168697D01*
X0047937Y0168831D01*
X0048014Y0168963D01*
X0048096Y0169093D01*
X0048180Y0169221D01*
X0048268Y0169347D01*
X0048359Y0169470D01*
X0048453Y0169591D01*
X0048551Y0169709D01*
X0048651Y0169825D01*
X0048755Y0169938D01*
X0048861Y0170049D01*
X0048970Y0170157D01*
X0049082Y0170262D01*
X0049196Y0170363D01*
X0049314Y0170462D01*
X0049433Y0170558D01*
X0049555Y0170651D01*
X0049680Y0170740D01*
X0049807Y0170827D01*
X0049936Y0170909D01*
X0050067Y0170989D01*
X0050200Y0171065D01*
X0050335Y0171138D01*
X0050472Y0171207D01*
X0050611Y0171272D01*
X0050751Y0171334D01*
X0050893Y0171392D01*
X0051036Y0171447D01*
X0051181Y0171498D01*
X0051327Y0171545D01*
X0051474Y0171588D01*
X0051622Y0171627D01*
X0051771Y0171663D01*
X0051921Y0171694D01*
X0052072Y0171722D01*
X0052223Y0171746D01*
X0052376Y0171766D01*
X0052528Y0171782D01*
X0052681Y0171794D01*
X0052834Y0171802D01*
X0052987Y0171806D01*
X0053141Y0171806D01*
X0053294Y0171802D01*
X0053447Y0171794D01*
X0053600Y0171782D01*
X0053752Y0171766D01*
X0053905Y0171746D01*
X0054056Y0171722D01*
X0054207Y0171694D01*
X0054357Y0171663D01*
X0054506Y0171627D01*
X0054654Y0171588D01*
X0054801Y0171545D01*
X0054947Y0171498D01*
X0055092Y0171447D01*
X0055235Y0171392D01*
X0055377Y0171334D01*
X0055517Y0171272D01*
X0055656Y0171207D01*
X0055793Y0171138D01*
X0055928Y0171065D01*
X0056061Y0170989D01*
X0056192Y0170909D01*
X0056321Y0170827D01*
X0056448Y0170740D01*
X0056573Y0170651D01*
X0056695Y0170558D01*
X0056814Y0170462D01*
X0056932Y0170363D01*
X0057046Y0170262D01*
X0057158Y0170157D01*
X0057267Y0170049D01*
X0057373Y0169938D01*
X0057477Y0169825D01*
X0057577Y0169709D01*
X0057675Y0169591D01*
X0057769Y0169470D01*
X0057860Y0169347D01*
X0057948Y0169221D01*
X0058032Y0169093D01*
X0058114Y0168963D01*
X0058191Y0168831D01*
X0058266Y0168697D01*
X0058337Y0168561D01*
X0058404Y0168423D01*
X0058468Y0168283D01*
X0058528Y0168142D01*
X0058584Y0168000D01*
X0058637Y0167856D01*
X0058686Y0167710D01*
X0058731Y0167564D01*
X0058772Y0167416D01*
X0058809Y0167268D01*
X0058843Y0167118D01*
X0058873Y0166967D01*
X0058898Y0166816D01*
X0058920Y0166665D01*
X0058938Y0166512D01*
X0058952Y0166360D01*
X0058962Y0166207D01*
X0058968Y0166053D01*
X0058970Y0165900D01*
X0058968Y0165747D01*
X0058962Y0165593D01*
X0058952Y0165440D01*
X0058938Y0165288D01*
X0058920Y0165135D01*
X0058898Y0164984D01*
X0058873Y0164833D01*
X0058843Y0164682D01*
X0058809Y0164532D01*
X0058772Y0164384D01*
X0058731Y0164236D01*
X0058686Y0164090D01*
X0058637Y0163944D01*
X0058584Y0163800D01*
X0058528Y0163658D01*
X0058468Y0163517D01*
X0058404Y0163377D01*
X0058337Y0163239D01*
X0058266Y0163103D01*
X0058191Y0162969D01*
X0058114Y0162837D01*
X0058032Y0162707D01*
X0057948Y0162579D01*
X0057860Y0162453D01*
X0057769Y0162330D01*
X0057675Y0162209D01*
X0057577Y0162091D01*
X0057477Y0161975D01*
X0057373Y0161862D01*
X0057267Y0161751D01*
X0057158Y0161643D01*
X0057046Y0161538D01*
X0056932Y0161437D01*
X0056814Y0161338D01*
X0056695Y0161242D01*
X0056573Y0161149D01*
X0056448Y0161060D01*
X0056321Y0160973D01*
X0056192Y0160891D01*
X0056061Y0160811D01*
X0055928Y0160735D01*
X0055793Y0160662D01*
X0055656Y0160593D01*
X0055517Y0160528D01*
X0055377Y0160466D01*
X0055235Y0160408D01*
X0055092Y0160353D01*
X0054947Y0160302D01*
X0054801Y0160255D01*
X0054654Y0160212D01*
X0054506Y0160173D01*
X0054357Y0160137D01*
X0054207Y0160106D01*
X0054056Y0160078D01*
X0053905Y0160054D01*
X0053752Y0160034D01*
X0053600Y0160018D01*
X0053447Y0160006D01*
X0053294Y0159998D01*
X0053141Y0159994D01*
X0052987Y0159994D01*
X0052834Y0159998D01*
X0052681Y0160006D01*
X0052528Y0160018D01*
X0052376Y0160034D01*
X0052223Y0160054D01*
X0052072Y0160078D01*
X0051921Y0160106D01*
X0051771Y0160137D01*
X0051622Y0160173D01*
X0051474Y0160212D01*
X0051327Y0160255D01*
X0051181Y0160302D01*
X0051036Y0160353D01*
X0050893Y0160408D01*
X0050751Y0160466D01*
X0050611Y0160528D01*
X0050472Y0160593D01*
X0050335Y0160662D01*
X0050200Y0160735D01*
X0050067Y0160811D01*
X0049936Y0160891D01*
X0049807Y0160973D01*
X0049680Y0161060D01*
X0049555Y0161149D01*
X0049433Y0161242D01*
X0049314Y0161338D01*
X0049196Y0161437D01*
X0049082Y0161538D01*
X0048970Y0161643D01*
X0048861Y0161751D01*
X0048755Y0161862D01*
X0048651Y0161975D01*
X0048551Y0162091D01*
X0048453Y0162209D01*
X0048359Y0162330D01*
X0048268Y0162453D01*
X0048180Y0162579D01*
X0048096Y0162707D01*
X0048014Y0162837D01*
X0047937Y0162969D01*
X0047862Y0163103D01*
X0047791Y0163239D01*
X0047724Y0163377D01*
X0047660Y0163517D01*
X0047600Y0163658D01*
X0047544Y0163800D01*
X0047491Y0163944D01*
X0047442Y0164090D01*
X0047397Y0164236D01*
X0047356Y0164384D01*
X0047319Y0164532D01*
X0047285Y0164682D01*
X0047255Y0164833D01*
X0047230Y0164984D01*
X0047208Y0165135D01*
X0047190Y0165288D01*
X0047176Y0165440D01*
X0047166Y0165593D01*
X0047160Y0165747D01*
X0047158Y0165900D01*
X0055434Y0193355D02*
X0055436Y0193508D01*
X0055442Y0193662D01*
X0055452Y0193815D01*
X0055466Y0193967D01*
X0055484Y0194120D01*
X0055506Y0194271D01*
X0055531Y0194422D01*
X0055561Y0194573D01*
X0055595Y0194723D01*
X0055632Y0194871D01*
X0055673Y0195019D01*
X0055718Y0195165D01*
X0055767Y0195311D01*
X0055820Y0195455D01*
X0055876Y0195597D01*
X0055936Y0195738D01*
X0056000Y0195878D01*
X0056067Y0196016D01*
X0056138Y0196152D01*
X0056213Y0196286D01*
X0056290Y0196418D01*
X0056372Y0196548D01*
X0056456Y0196676D01*
X0056544Y0196802D01*
X0056635Y0196925D01*
X0056729Y0197046D01*
X0056827Y0197164D01*
X0056927Y0197280D01*
X0057031Y0197393D01*
X0057137Y0197504D01*
X0057246Y0197612D01*
X0057358Y0197717D01*
X0057472Y0197818D01*
X0057590Y0197917D01*
X0057709Y0198013D01*
X0057831Y0198106D01*
X0057956Y0198195D01*
X0058083Y0198282D01*
X0058212Y0198364D01*
X0058343Y0198444D01*
X0058476Y0198520D01*
X0058611Y0198593D01*
X0058748Y0198662D01*
X0058887Y0198727D01*
X0059027Y0198789D01*
X0059169Y0198847D01*
X0059312Y0198902D01*
X0059457Y0198953D01*
X0059603Y0199000D01*
X0059750Y0199043D01*
X0059898Y0199082D01*
X0060047Y0199118D01*
X0060197Y0199149D01*
X0060348Y0199177D01*
X0060499Y0199201D01*
X0060652Y0199221D01*
X0060804Y0199237D01*
X0060957Y0199249D01*
X0061110Y0199257D01*
X0061263Y0199261D01*
X0061417Y0199261D01*
X0061570Y0199257D01*
X0061723Y0199249D01*
X0061876Y0199237D01*
X0062028Y0199221D01*
X0062181Y0199201D01*
X0062332Y0199177D01*
X0062483Y0199149D01*
X0062633Y0199118D01*
X0062782Y0199082D01*
X0062930Y0199043D01*
X0063077Y0199000D01*
X0063223Y0198953D01*
X0063368Y0198902D01*
X0063511Y0198847D01*
X0063653Y0198789D01*
X0063793Y0198727D01*
X0063932Y0198662D01*
X0064069Y0198593D01*
X0064204Y0198520D01*
X0064337Y0198444D01*
X0064468Y0198364D01*
X0064597Y0198282D01*
X0064724Y0198195D01*
X0064849Y0198106D01*
X0064971Y0198013D01*
X0065090Y0197917D01*
X0065208Y0197818D01*
X0065322Y0197717D01*
X0065434Y0197612D01*
X0065543Y0197504D01*
X0065649Y0197393D01*
X0065753Y0197280D01*
X0065853Y0197164D01*
X0065951Y0197046D01*
X0066045Y0196925D01*
X0066136Y0196802D01*
X0066224Y0196676D01*
X0066308Y0196548D01*
X0066390Y0196418D01*
X0066467Y0196286D01*
X0066542Y0196152D01*
X0066613Y0196016D01*
X0066680Y0195878D01*
X0066744Y0195738D01*
X0066804Y0195597D01*
X0066860Y0195455D01*
X0066913Y0195311D01*
X0066962Y0195165D01*
X0067007Y0195019D01*
X0067048Y0194871D01*
X0067085Y0194723D01*
X0067119Y0194573D01*
X0067149Y0194422D01*
X0067174Y0194271D01*
X0067196Y0194120D01*
X0067214Y0193967D01*
X0067228Y0193815D01*
X0067238Y0193662D01*
X0067244Y0193508D01*
X0067246Y0193355D01*
X0067244Y0193202D01*
X0067238Y0193048D01*
X0067228Y0192895D01*
X0067214Y0192743D01*
X0067196Y0192590D01*
X0067174Y0192439D01*
X0067149Y0192288D01*
X0067119Y0192137D01*
X0067085Y0191987D01*
X0067048Y0191839D01*
X0067007Y0191691D01*
X0066962Y0191545D01*
X0066913Y0191399D01*
X0066860Y0191255D01*
X0066804Y0191113D01*
X0066744Y0190972D01*
X0066680Y0190832D01*
X0066613Y0190694D01*
X0066542Y0190558D01*
X0066467Y0190424D01*
X0066390Y0190292D01*
X0066308Y0190162D01*
X0066224Y0190034D01*
X0066136Y0189908D01*
X0066045Y0189785D01*
X0065951Y0189664D01*
X0065853Y0189546D01*
X0065753Y0189430D01*
X0065649Y0189317D01*
X0065543Y0189206D01*
X0065434Y0189098D01*
X0065322Y0188993D01*
X0065208Y0188892D01*
X0065090Y0188793D01*
X0064971Y0188697D01*
X0064849Y0188604D01*
X0064724Y0188515D01*
X0064597Y0188428D01*
X0064468Y0188346D01*
X0064337Y0188266D01*
X0064204Y0188190D01*
X0064069Y0188117D01*
X0063932Y0188048D01*
X0063793Y0187983D01*
X0063653Y0187921D01*
X0063511Y0187863D01*
X0063368Y0187808D01*
X0063223Y0187757D01*
X0063077Y0187710D01*
X0062930Y0187667D01*
X0062782Y0187628D01*
X0062633Y0187592D01*
X0062483Y0187561D01*
X0062332Y0187533D01*
X0062181Y0187509D01*
X0062028Y0187489D01*
X0061876Y0187473D01*
X0061723Y0187461D01*
X0061570Y0187453D01*
X0061417Y0187449D01*
X0061263Y0187449D01*
X0061110Y0187453D01*
X0060957Y0187461D01*
X0060804Y0187473D01*
X0060652Y0187489D01*
X0060499Y0187509D01*
X0060348Y0187533D01*
X0060197Y0187561D01*
X0060047Y0187592D01*
X0059898Y0187628D01*
X0059750Y0187667D01*
X0059603Y0187710D01*
X0059457Y0187757D01*
X0059312Y0187808D01*
X0059169Y0187863D01*
X0059027Y0187921D01*
X0058887Y0187983D01*
X0058748Y0188048D01*
X0058611Y0188117D01*
X0058476Y0188190D01*
X0058343Y0188266D01*
X0058212Y0188346D01*
X0058083Y0188428D01*
X0057956Y0188515D01*
X0057831Y0188604D01*
X0057709Y0188697D01*
X0057590Y0188793D01*
X0057472Y0188892D01*
X0057358Y0188993D01*
X0057246Y0189098D01*
X0057137Y0189206D01*
X0057031Y0189317D01*
X0056927Y0189430D01*
X0056827Y0189546D01*
X0056729Y0189664D01*
X0056635Y0189785D01*
X0056544Y0189908D01*
X0056456Y0190034D01*
X0056372Y0190162D01*
X0056290Y0190292D01*
X0056213Y0190424D01*
X0056138Y0190558D01*
X0056067Y0190694D01*
X0056000Y0190832D01*
X0055936Y0190972D01*
X0055876Y0191113D01*
X0055820Y0191255D01*
X0055767Y0191399D01*
X0055718Y0191545D01*
X0055673Y0191691D01*
X0055632Y0191839D01*
X0055595Y0191987D01*
X0055561Y0192137D01*
X0055531Y0192288D01*
X0055506Y0192439D01*
X0055484Y0192590D01*
X0055466Y0192743D01*
X0055452Y0192895D01*
X0055442Y0193048D01*
X0055436Y0193202D01*
X0055434Y0193355D01*
X0083602Y0246332D02*
X0083604Y0246485D01*
X0083610Y0246639D01*
X0083620Y0246792D01*
X0083634Y0246944D01*
X0083652Y0247097D01*
X0083674Y0247248D01*
X0083699Y0247399D01*
X0083729Y0247550D01*
X0083763Y0247700D01*
X0083800Y0247848D01*
X0083841Y0247996D01*
X0083886Y0248142D01*
X0083935Y0248288D01*
X0083988Y0248432D01*
X0084044Y0248574D01*
X0084104Y0248715D01*
X0084168Y0248855D01*
X0084235Y0248993D01*
X0084306Y0249129D01*
X0084381Y0249263D01*
X0084458Y0249395D01*
X0084540Y0249525D01*
X0084624Y0249653D01*
X0084712Y0249779D01*
X0084803Y0249902D01*
X0084897Y0250023D01*
X0084995Y0250141D01*
X0085095Y0250257D01*
X0085199Y0250370D01*
X0085305Y0250481D01*
X0085414Y0250589D01*
X0085526Y0250694D01*
X0085640Y0250795D01*
X0085758Y0250894D01*
X0085877Y0250990D01*
X0085999Y0251083D01*
X0086124Y0251172D01*
X0086251Y0251259D01*
X0086380Y0251341D01*
X0086511Y0251421D01*
X0086644Y0251497D01*
X0086779Y0251570D01*
X0086916Y0251639D01*
X0087055Y0251704D01*
X0087195Y0251766D01*
X0087337Y0251824D01*
X0087480Y0251879D01*
X0087625Y0251930D01*
X0087771Y0251977D01*
X0087918Y0252020D01*
X0088066Y0252059D01*
X0088215Y0252095D01*
X0088365Y0252126D01*
X0088516Y0252154D01*
X0088667Y0252178D01*
X0088820Y0252198D01*
X0088972Y0252214D01*
X0089125Y0252226D01*
X0089278Y0252234D01*
X0089431Y0252238D01*
X0089585Y0252238D01*
X0089738Y0252234D01*
X0089891Y0252226D01*
X0090044Y0252214D01*
X0090196Y0252198D01*
X0090349Y0252178D01*
X0090500Y0252154D01*
X0090651Y0252126D01*
X0090801Y0252095D01*
X0090950Y0252059D01*
X0091098Y0252020D01*
X0091245Y0251977D01*
X0091391Y0251930D01*
X0091536Y0251879D01*
X0091679Y0251824D01*
X0091821Y0251766D01*
X0091961Y0251704D01*
X0092100Y0251639D01*
X0092237Y0251570D01*
X0092372Y0251497D01*
X0092505Y0251421D01*
X0092636Y0251341D01*
X0092765Y0251259D01*
X0092892Y0251172D01*
X0093017Y0251083D01*
X0093139Y0250990D01*
X0093258Y0250894D01*
X0093376Y0250795D01*
X0093490Y0250694D01*
X0093602Y0250589D01*
X0093711Y0250481D01*
X0093817Y0250370D01*
X0093921Y0250257D01*
X0094021Y0250141D01*
X0094119Y0250023D01*
X0094213Y0249902D01*
X0094304Y0249779D01*
X0094392Y0249653D01*
X0094476Y0249525D01*
X0094558Y0249395D01*
X0094635Y0249263D01*
X0094710Y0249129D01*
X0094781Y0248993D01*
X0094848Y0248855D01*
X0094912Y0248715D01*
X0094972Y0248574D01*
X0095028Y0248432D01*
X0095081Y0248288D01*
X0095130Y0248142D01*
X0095175Y0247996D01*
X0095216Y0247848D01*
X0095253Y0247700D01*
X0095287Y0247550D01*
X0095317Y0247399D01*
X0095342Y0247248D01*
X0095364Y0247097D01*
X0095382Y0246944D01*
X0095396Y0246792D01*
X0095406Y0246639D01*
X0095412Y0246485D01*
X0095414Y0246332D01*
X0095412Y0246179D01*
X0095406Y0246025D01*
X0095396Y0245872D01*
X0095382Y0245720D01*
X0095364Y0245567D01*
X0095342Y0245416D01*
X0095317Y0245265D01*
X0095287Y0245114D01*
X0095253Y0244964D01*
X0095216Y0244816D01*
X0095175Y0244668D01*
X0095130Y0244522D01*
X0095081Y0244376D01*
X0095028Y0244232D01*
X0094972Y0244090D01*
X0094912Y0243949D01*
X0094848Y0243809D01*
X0094781Y0243671D01*
X0094710Y0243535D01*
X0094635Y0243401D01*
X0094558Y0243269D01*
X0094476Y0243139D01*
X0094392Y0243011D01*
X0094304Y0242885D01*
X0094213Y0242762D01*
X0094119Y0242641D01*
X0094021Y0242523D01*
X0093921Y0242407D01*
X0093817Y0242294D01*
X0093711Y0242183D01*
X0093602Y0242075D01*
X0093490Y0241970D01*
X0093376Y0241869D01*
X0093258Y0241770D01*
X0093139Y0241674D01*
X0093017Y0241581D01*
X0092892Y0241492D01*
X0092765Y0241405D01*
X0092636Y0241323D01*
X0092505Y0241243D01*
X0092372Y0241167D01*
X0092237Y0241094D01*
X0092100Y0241025D01*
X0091961Y0240960D01*
X0091821Y0240898D01*
X0091679Y0240840D01*
X0091536Y0240785D01*
X0091391Y0240734D01*
X0091245Y0240687D01*
X0091098Y0240644D01*
X0090950Y0240605D01*
X0090801Y0240569D01*
X0090651Y0240538D01*
X0090500Y0240510D01*
X0090349Y0240486D01*
X0090196Y0240466D01*
X0090044Y0240450D01*
X0089891Y0240438D01*
X0089738Y0240430D01*
X0089585Y0240426D01*
X0089431Y0240426D01*
X0089278Y0240430D01*
X0089125Y0240438D01*
X0088972Y0240450D01*
X0088820Y0240466D01*
X0088667Y0240486D01*
X0088516Y0240510D01*
X0088365Y0240538D01*
X0088215Y0240569D01*
X0088066Y0240605D01*
X0087918Y0240644D01*
X0087771Y0240687D01*
X0087625Y0240734D01*
X0087480Y0240785D01*
X0087337Y0240840D01*
X0087195Y0240898D01*
X0087055Y0240960D01*
X0086916Y0241025D01*
X0086779Y0241094D01*
X0086644Y0241167D01*
X0086511Y0241243D01*
X0086380Y0241323D01*
X0086251Y0241405D01*
X0086124Y0241492D01*
X0085999Y0241581D01*
X0085877Y0241674D01*
X0085758Y0241770D01*
X0085640Y0241869D01*
X0085526Y0241970D01*
X0085414Y0242075D01*
X0085305Y0242183D01*
X0085199Y0242294D01*
X0085095Y0242407D01*
X0084995Y0242523D01*
X0084897Y0242641D01*
X0084803Y0242762D01*
X0084712Y0242885D01*
X0084624Y0243011D01*
X0084540Y0243139D01*
X0084458Y0243269D01*
X0084381Y0243401D01*
X0084306Y0243535D01*
X0084235Y0243671D01*
X0084168Y0243809D01*
X0084104Y0243949D01*
X0084044Y0244090D01*
X0083988Y0244232D01*
X0083935Y0244376D01*
X0083886Y0244522D01*
X0083841Y0244668D01*
X0083800Y0244816D01*
X0083763Y0244964D01*
X0083729Y0245114D01*
X0083699Y0245265D01*
X0083674Y0245416D01*
X0083652Y0245567D01*
X0083634Y0245720D01*
X0083620Y0245872D01*
X0083610Y0246025D01*
X0083604Y0246179D01*
X0083602Y0246332D01*
X0157394Y0276136D02*
X0157396Y0276289D01*
X0157402Y0276443D01*
X0157412Y0276596D01*
X0157426Y0276748D01*
X0157444Y0276901D01*
X0157466Y0277052D01*
X0157491Y0277203D01*
X0157521Y0277354D01*
X0157555Y0277504D01*
X0157592Y0277652D01*
X0157633Y0277800D01*
X0157678Y0277946D01*
X0157727Y0278092D01*
X0157780Y0278236D01*
X0157836Y0278378D01*
X0157896Y0278519D01*
X0157960Y0278659D01*
X0158027Y0278797D01*
X0158098Y0278933D01*
X0158173Y0279067D01*
X0158250Y0279199D01*
X0158332Y0279329D01*
X0158416Y0279457D01*
X0158504Y0279583D01*
X0158595Y0279706D01*
X0158689Y0279827D01*
X0158787Y0279945D01*
X0158887Y0280061D01*
X0158991Y0280174D01*
X0159097Y0280285D01*
X0159206Y0280393D01*
X0159318Y0280498D01*
X0159432Y0280599D01*
X0159550Y0280698D01*
X0159669Y0280794D01*
X0159791Y0280887D01*
X0159916Y0280976D01*
X0160043Y0281063D01*
X0160172Y0281145D01*
X0160303Y0281225D01*
X0160436Y0281301D01*
X0160571Y0281374D01*
X0160708Y0281443D01*
X0160847Y0281508D01*
X0160987Y0281570D01*
X0161129Y0281628D01*
X0161272Y0281683D01*
X0161417Y0281734D01*
X0161563Y0281781D01*
X0161710Y0281824D01*
X0161858Y0281863D01*
X0162007Y0281899D01*
X0162157Y0281930D01*
X0162308Y0281958D01*
X0162459Y0281982D01*
X0162612Y0282002D01*
X0162764Y0282018D01*
X0162917Y0282030D01*
X0163070Y0282038D01*
X0163223Y0282042D01*
X0163377Y0282042D01*
X0163530Y0282038D01*
X0163683Y0282030D01*
X0163836Y0282018D01*
X0163988Y0282002D01*
X0164141Y0281982D01*
X0164292Y0281958D01*
X0164443Y0281930D01*
X0164593Y0281899D01*
X0164742Y0281863D01*
X0164890Y0281824D01*
X0165037Y0281781D01*
X0165183Y0281734D01*
X0165328Y0281683D01*
X0165471Y0281628D01*
X0165613Y0281570D01*
X0165753Y0281508D01*
X0165892Y0281443D01*
X0166029Y0281374D01*
X0166164Y0281301D01*
X0166297Y0281225D01*
X0166428Y0281145D01*
X0166557Y0281063D01*
X0166684Y0280976D01*
X0166809Y0280887D01*
X0166931Y0280794D01*
X0167050Y0280698D01*
X0167168Y0280599D01*
X0167282Y0280498D01*
X0167394Y0280393D01*
X0167503Y0280285D01*
X0167609Y0280174D01*
X0167713Y0280061D01*
X0167813Y0279945D01*
X0167911Y0279827D01*
X0168005Y0279706D01*
X0168096Y0279583D01*
X0168184Y0279457D01*
X0168268Y0279329D01*
X0168350Y0279199D01*
X0168427Y0279067D01*
X0168502Y0278933D01*
X0168573Y0278797D01*
X0168640Y0278659D01*
X0168704Y0278519D01*
X0168764Y0278378D01*
X0168820Y0278236D01*
X0168873Y0278092D01*
X0168922Y0277946D01*
X0168967Y0277800D01*
X0169008Y0277652D01*
X0169045Y0277504D01*
X0169079Y0277354D01*
X0169109Y0277203D01*
X0169134Y0277052D01*
X0169156Y0276901D01*
X0169174Y0276748D01*
X0169188Y0276596D01*
X0169198Y0276443D01*
X0169204Y0276289D01*
X0169206Y0276136D01*
X0169204Y0275983D01*
X0169198Y0275829D01*
X0169188Y0275676D01*
X0169174Y0275524D01*
X0169156Y0275371D01*
X0169134Y0275220D01*
X0169109Y0275069D01*
X0169079Y0274918D01*
X0169045Y0274768D01*
X0169008Y0274620D01*
X0168967Y0274472D01*
X0168922Y0274326D01*
X0168873Y0274180D01*
X0168820Y0274036D01*
X0168764Y0273894D01*
X0168704Y0273753D01*
X0168640Y0273613D01*
X0168573Y0273475D01*
X0168502Y0273339D01*
X0168427Y0273205D01*
X0168350Y0273073D01*
X0168268Y0272943D01*
X0168184Y0272815D01*
X0168096Y0272689D01*
X0168005Y0272566D01*
X0167911Y0272445D01*
X0167813Y0272327D01*
X0167713Y0272211D01*
X0167609Y0272098D01*
X0167503Y0271987D01*
X0167394Y0271879D01*
X0167282Y0271774D01*
X0167168Y0271673D01*
X0167050Y0271574D01*
X0166931Y0271478D01*
X0166809Y0271385D01*
X0166684Y0271296D01*
X0166557Y0271209D01*
X0166428Y0271127D01*
X0166297Y0271047D01*
X0166164Y0270971D01*
X0166029Y0270898D01*
X0165892Y0270829D01*
X0165753Y0270764D01*
X0165613Y0270702D01*
X0165471Y0270644D01*
X0165328Y0270589D01*
X0165183Y0270538D01*
X0165037Y0270491D01*
X0164890Y0270448D01*
X0164742Y0270409D01*
X0164593Y0270373D01*
X0164443Y0270342D01*
X0164292Y0270314D01*
X0164141Y0270290D01*
X0163988Y0270270D01*
X0163836Y0270254D01*
X0163683Y0270242D01*
X0163530Y0270234D01*
X0163377Y0270230D01*
X0163223Y0270230D01*
X0163070Y0270234D01*
X0162917Y0270242D01*
X0162764Y0270254D01*
X0162612Y0270270D01*
X0162459Y0270290D01*
X0162308Y0270314D01*
X0162157Y0270342D01*
X0162007Y0270373D01*
X0161858Y0270409D01*
X0161710Y0270448D01*
X0161563Y0270491D01*
X0161417Y0270538D01*
X0161272Y0270589D01*
X0161129Y0270644D01*
X0160987Y0270702D01*
X0160847Y0270764D01*
X0160708Y0270829D01*
X0160571Y0270898D01*
X0160436Y0270971D01*
X0160303Y0271047D01*
X0160172Y0271127D01*
X0160043Y0271209D01*
X0159916Y0271296D01*
X0159791Y0271385D01*
X0159669Y0271478D01*
X0159550Y0271574D01*
X0159432Y0271673D01*
X0159318Y0271774D01*
X0159206Y0271879D01*
X0159097Y0271987D01*
X0158991Y0272098D01*
X0158887Y0272211D01*
X0158787Y0272327D01*
X0158689Y0272445D01*
X0158595Y0272566D01*
X0158504Y0272689D01*
X0158416Y0272815D01*
X0158332Y0272943D01*
X0158250Y0273073D01*
X0158173Y0273205D01*
X0158098Y0273339D01*
X0158027Y0273475D01*
X0157960Y0273613D01*
X0157896Y0273753D01*
X0157836Y0273894D01*
X0157780Y0274036D01*
X0157727Y0274180D01*
X0157678Y0274326D01*
X0157633Y0274472D01*
X0157592Y0274620D01*
X0157555Y0274768D01*
X0157521Y0274918D01*
X0157491Y0275069D01*
X0157466Y0275220D01*
X0157444Y0275371D01*
X0157426Y0275524D01*
X0157412Y0275676D01*
X0157402Y0275829D01*
X0157396Y0275983D01*
X0157394Y0276136D01*
X0267630Y0165900D02*
X0267632Y0166053D01*
X0267638Y0166207D01*
X0267648Y0166360D01*
X0267662Y0166512D01*
X0267680Y0166665D01*
X0267702Y0166816D01*
X0267727Y0166967D01*
X0267757Y0167118D01*
X0267791Y0167268D01*
X0267828Y0167416D01*
X0267869Y0167564D01*
X0267914Y0167710D01*
X0267963Y0167856D01*
X0268016Y0168000D01*
X0268072Y0168142D01*
X0268132Y0168283D01*
X0268196Y0168423D01*
X0268263Y0168561D01*
X0268334Y0168697D01*
X0268409Y0168831D01*
X0268486Y0168963D01*
X0268568Y0169093D01*
X0268652Y0169221D01*
X0268740Y0169347D01*
X0268831Y0169470D01*
X0268925Y0169591D01*
X0269023Y0169709D01*
X0269123Y0169825D01*
X0269227Y0169938D01*
X0269333Y0170049D01*
X0269442Y0170157D01*
X0269554Y0170262D01*
X0269668Y0170363D01*
X0269786Y0170462D01*
X0269905Y0170558D01*
X0270027Y0170651D01*
X0270152Y0170740D01*
X0270279Y0170827D01*
X0270408Y0170909D01*
X0270539Y0170989D01*
X0270672Y0171065D01*
X0270807Y0171138D01*
X0270944Y0171207D01*
X0271083Y0171272D01*
X0271223Y0171334D01*
X0271365Y0171392D01*
X0271508Y0171447D01*
X0271653Y0171498D01*
X0271799Y0171545D01*
X0271946Y0171588D01*
X0272094Y0171627D01*
X0272243Y0171663D01*
X0272393Y0171694D01*
X0272544Y0171722D01*
X0272695Y0171746D01*
X0272848Y0171766D01*
X0273000Y0171782D01*
X0273153Y0171794D01*
X0273306Y0171802D01*
X0273459Y0171806D01*
X0273613Y0171806D01*
X0273766Y0171802D01*
X0273919Y0171794D01*
X0274072Y0171782D01*
X0274224Y0171766D01*
X0274377Y0171746D01*
X0274528Y0171722D01*
X0274679Y0171694D01*
X0274829Y0171663D01*
X0274978Y0171627D01*
X0275126Y0171588D01*
X0275273Y0171545D01*
X0275419Y0171498D01*
X0275564Y0171447D01*
X0275707Y0171392D01*
X0275849Y0171334D01*
X0275989Y0171272D01*
X0276128Y0171207D01*
X0276265Y0171138D01*
X0276400Y0171065D01*
X0276533Y0170989D01*
X0276664Y0170909D01*
X0276793Y0170827D01*
X0276920Y0170740D01*
X0277045Y0170651D01*
X0277167Y0170558D01*
X0277286Y0170462D01*
X0277404Y0170363D01*
X0277518Y0170262D01*
X0277630Y0170157D01*
X0277739Y0170049D01*
X0277845Y0169938D01*
X0277949Y0169825D01*
X0278049Y0169709D01*
X0278147Y0169591D01*
X0278241Y0169470D01*
X0278332Y0169347D01*
X0278420Y0169221D01*
X0278504Y0169093D01*
X0278586Y0168963D01*
X0278663Y0168831D01*
X0278738Y0168697D01*
X0278809Y0168561D01*
X0278876Y0168423D01*
X0278940Y0168283D01*
X0279000Y0168142D01*
X0279056Y0168000D01*
X0279109Y0167856D01*
X0279158Y0167710D01*
X0279203Y0167564D01*
X0279244Y0167416D01*
X0279281Y0167268D01*
X0279315Y0167118D01*
X0279345Y0166967D01*
X0279370Y0166816D01*
X0279392Y0166665D01*
X0279410Y0166512D01*
X0279424Y0166360D01*
X0279434Y0166207D01*
X0279440Y0166053D01*
X0279442Y0165900D01*
X0279440Y0165747D01*
X0279434Y0165593D01*
X0279424Y0165440D01*
X0279410Y0165288D01*
X0279392Y0165135D01*
X0279370Y0164984D01*
X0279345Y0164833D01*
X0279315Y0164682D01*
X0279281Y0164532D01*
X0279244Y0164384D01*
X0279203Y0164236D01*
X0279158Y0164090D01*
X0279109Y0163944D01*
X0279056Y0163800D01*
X0279000Y0163658D01*
X0278940Y0163517D01*
X0278876Y0163377D01*
X0278809Y0163239D01*
X0278738Y0163103D01*
X0278663Y0162969D01*
X0278586Y0162837D01*
X0278504Y0162707D01*
X0278420Y0162579D01*
X0278332Y0162453D01*
X0278241Y0162330D01*
X0278147Y0162209D01*
X0278049Y0162091D01*
X0277949Y0161975D01*
X0277845Y0161862D01*
X0277739Y0161751D01*
X0277630Y0161643D01*
X0277518Y0161538D01*
X0277404Y0161437D01*
X0277286Y0161338D01*
X0277167Y0161242D01*
X0277045Y0161149D01*
X0276920Y0161060D01*
X0276793Y0160973D01*
X0276664Y0160891D01*
X0276533Y0160811D01*
X0276400Y0160735D01*
X0276265Y0160662D01*
X0276128Y0160593D01*
X0275989Y0160528D01*
X0275849Y0160466D01*
X0275707Y0160408D01*
X0275564Y0160353D01*
X0275419Y0160302D01*
X0275273Y0160255D01*
X0275126Y0160212D01*
X0274978Y0160173D01*
X0274829Y0160137D01*
X0274679Y0160106D01*
X0274528Y0160078D01*
X0274377Y0160054D01*
X0274224Y0160034D01*
X0274072Y0160018D01*
X0273919Y0160006D01*
X0273766Y0159998D01*
X0273613Y0159994D01*
X0273459Y0159994D01*
X0273306Y0159998D01*
X0273153Y0160006D01*
X0273000Y0160018D01*
X0272848Y0160034D01*
X0272695Y0160054D01*
X0272544Y0160078D01*
X0272393Y0160106D01*
X0272243Y0160137D01*
X0272094Y0160173D01*
X0271946Y0160212D01*
X0271799Y0160255D01*
X0271653Y0160302D01*
X0271508Y0160353D01*
X0271365Y0160408D01*
X0271223Y0160466D01*
X0271083Y0160528D01*
X0270944Y0160593D01*
X0270807Y0160662D01*
X0270672Y0160735D01*
X0270539Y0160811D01*
X0270408Y0160891D01*
X0270279Y0160973D01*
X0270152Y0161060D01*
X0270027Y0161149D01*
X0269905Y0161242D01*
X0269786Y0161338D01*
X0269668Y0161437D01*
X0269554Y0161538D01*
X0269442Y0161643D01*
X0269333Y0161751D01*
X0269227Y0161862D01*
X0269123Y0161975D01*
X0269023Y0162091D01*
X0268925Y0162209D01*
X0268831Y0162330D01*
X0268740Y0162453D01*
X0268652Y0162579D01*
X0268568Y0162707D01*
X0268486Y0162837D01*
X0268409Y0162969D01*
X0268334Y0163103D01*
X0268263Y0163239D01*
X0268196Y0163377D01*
X0268132Y0163517D01*
X0268072Y0163658D01*
X0268016Y0163800D01*
X0267963Y0163944D01*
X0267914Y0164090D01*
X0267869Y0164236D01*
X0267828Y0164384D01*
X0267791Y0164532D01*
X0267757Y0164682D01*
X0267727Y0164833D01*
X0267702Y0164984D01*
X0267680Y0165135D01*
X0267662Y0165288D01*
X0267648Y0165440D01*
X0267638Y0165593D01*
X0267632Y0165747D01*
X0267630Y0165900D01*
X0157394Y0055664D02*
X0157396Y0055817D01*
X0157402Y0055971D01*
X0157412Y0056124D01*
X0157426Y0056276D01*
X0157444Y0056429D01*
X0157466Y0056580D01*
X0157491Y0056731D01*
X0157521Y0056882D01*
X0157555Y0057032D01*
X0157592Y0057180D01*
X0157633Y0057328D01*
X0157678Y0057474D01*
X0157727Y0057620D01*
X0157780Y0057764D01*
X0157836Y0057906D01*
X0157896Y0058047D01*
X0157960Y0058187D01*
X0158027Y0058325D01*
X0158098Y0058461D01*
X0158173Y0058595D01*
X0158250Y0058727D01*
X0158332Y0058857D01*
X0158416Y0058985D01*
X0158504Y0059111D01*
X0158595Y0059234D01*
X0158689Y0059355D01*
X0158787Y0059473D01*
X0158887Y0059589D01*
X0158991Y0059702D01*
X0159097Y0059813D01*
X0159206Y0059921D01*
X0159318Y0060026D01*
X0159432Y0060127D01*
X0159550Y0060226D01*
X0159669Y0060322D01*
X0159791Y0060415D01*
X0159916Y0060504D01*
X0160043Y0060591D01*
X0160172Y0060673D01*
X0160303Y0060753D01*
X0160436Y0060829D01*
X0160571Y0060902D01*
X0160708Y0060971D01*
X0160847Y0061036D01*
X0160987Y0061098D01*
X0161129Y0061156D01*
X0161272Y0061211D01*
X0161417Y0061262D01*
X0161563Y0061309D01*
X0161710Y0061352D01*
X0161858Y0061391D01*
X0162007Y0061427D01*
X0162157Y0061458D01*
X0162308Y0061486D01*
X0162459Y0061510D01*
X0162612Y0061530D01*
X0162764Y0061546D01*
X0162917Y0061558D01*
X0163070Y0061566D01*
X0163223Y0061570D01*
X0163377Y0061570D01*
X0163530Y0061566D01*
X0163683Y0061558D01*
X0163836Y0061546D01*
X0163988Y0061530D01*
X0164141Y0061510D01*
X0164292Y0061486D01*
X0164443Y0061458D01*
X0164593Y0061427D01*
X0164742Y0061391D01*
X0164890Y0061352D01*
X0165037Y0061309D01*
X0165183Y0061262D01*
X0165328Y0061211D01*
X0165471Y0061156D01*
X0165613Y0061098D01*
X0165753Y0061036D01*
X0165892Y0060971D01*
X0166029Y0060902D01*
X0166164Y0060829D01*
X0166297Y0060753D01*
X0166428Y0060673D01*
X0166557Y0060591D01*
X0166684Y0060504D01*
X0166809Y0060415D01*
X0166931Y0060322D01*
X0167050Y0060226D01*
X0167168Y0060127D01*
X0167282Y0060026D01*
X0167394Y0059921D01*
X0167503Y0059813D01*
X0167609Y0059702D01*
X0167713Y0059589D01*
X0167813Y0059473D01*
X0167911Y0059355D01*
X0168005Y0059234D01*
X0168096Y0059111D01*
X0168184Y0058985D01*
X0168268Y0058857D01*
X0168350Y0058727D01*
X0168427Y0058595D01*
X0168502Y0058461D01*
X0168573Y0058325D01*
X0168640Y0058187D01*
X0168704Y0058047D01*
X0168764Y0057906D01*
X0168820Y0057764D01*
X0168873Y0057620D01*
X0168922Y0057474D01*
X0168967Y0057328D01*
X0169008Y0057180D01*
X0169045Y0057032D01*
X0169079Y0056882D01*
X0169109Y0056731D01*
X0169134Y0056580D01*
X0169156Y0056429D01*
X0169174Y0056276D01*
X0169188Y0056124D01*
X0169198Y0055971D01*
X0169204Y0055817D01*
X0169206Y0055664D01*
X0169204Y0055511D01*
X0169198Y0055357D01*
X0169188Y0055204D01*
X0169174Y0055052D01*
X0169156Y0054899D01*
X0169134Y0054748D01*
X0169109Y0054597D01*
X0169079Y0054446D01*
X0169045Y0054296D01*
X0169008Y0054148D01*
X0168967Y0054000D01*
X0168922Y0053854D01*
X0168873Y0053708D01*
X0168820Y0053564D01*
X0168764Y0053422D01*
X0168704Y0053281D01*
X0168640Y0053141D01*
X0168573Y0053003D01*
X0168502Y0052867D01*
X0168427Y0052733D01*
X0168350Y0052601D01*
X0168268Y0052471D01*
X0168184Y0052343D01*
X0168096Y0052217D01*
X0168005Y0052094D01*
X0167911Y0051973D01*
X0167813Y0051855D01*
X0167713Y0051739D01*
X0167609Y0051626D01*
X0167503Y0051515D01*
X0167394Y0051407D01*
X0167282Y0051302D01*
X0167168Y0051201D01*
X0167050Y0051102D01*
X0166931Y0051006D01*
X0166809Y0050913D01*
X0166684Y0050824D01*
X0166557Y0050737D01*
X0166428Y0050655D01*
X0166297Y0050575D01*
X0166164Y0050499D01*
X0166029Y0050426D01*
X0165892Y0050357D01*
X0165753Y0050292D01*
X0165613Y0050230D01*
X0165471Y0050172D01*
X0165328Y0050117D01*
X0165183Y0050066D01*
X0165037Y0050019D01*
X0164890Y0049976D01*
X0164742Y0049937D01*
X0164593Y0049901D01*
X0164443Y0049870D01*
X0164292Y0049842D01*
X0164141Y0049818D01*
X0163988Y0049798D01*
X0163836Y0049782D01*
X0163683Y0049770D01*
X0163530Y0049762D01*
X0163377Y0049758D01*
X0163223Y0049758D01*
X0163070Y0049762D01*
X0162917Y0049770D01*
X0162764Y0049782D01*
X0162612Y0049798D01*
X0162459Y0049818D01*
X0162308Y0049842D01*
X0162157Y0049870D01*
X0162007Y0049901D01*
X0161858Y0049937D01*
X0161710Y0049976D01*
X0161563Y0050019D01*
X0161417Y0050066D01*
X0161272Y0050117D01*
X0161129Y0050172D01*
X0160987Y0050230D01*
X0160847Y0050292D01*
X0160708Y0050357D01*
X0160571Y0050426D01*
X0160436Y0050499D01*
X0160303Y0050575D01*
X0160172Y0050655D01*
X0160043Y0050737D01*
X0159916Y0050824D01*
X0159791Y0050913D01*
X0159669Y0051006D01*
X0159550Y0051102D01*
X0159432Y0051201D01*
X0159318Y0051302D01*
X0159206Y0051407D01*
X0159097Y0051515D01*
X0158991Y0051626D01*
X0158887Y0051739D01*
X0158787Y0051855D01*
X0158689Y0051973D01*
X0158595Y0052094D01*
X0158504Y0052217D01*
X0158416Y0052343D01*
X0158332Y0052471D01*
X0158250Y0052601D01*
X0158173Y0052733D01*
X0158098Y0052867D01*
X0158027Y0053003D01*
X0157960Y0053141D01*
X0157896Y0053281D01*
X0157836Y0053422D01*
X0157780Y0053564D01*
X0157727Y0053708D01*
X0157678Y0053854D01*
X0157633Y0054000D01*
X0157592Y0054148D01*
X0157555Y0054296D01*
X0157521Y0054446D01*
X0157491Y0054597D01*
X0157466Y0054748D01*
X0157444Y0054899D01*
X0157426Y0055052D01*
X0157412Y0055204D01*
X0157402Y0055357D01*
X0157396Y0055511D01*
X0157394Y0055664D01*
X0137246Y0078461D02*
X0137248Y0078530D01*
X0137254Y0078598D01*
X0137264Y0078666D01*
X0137278Y0078733D01*
X0137296Y0078800D01*
X0137317Y0078865D01*
X0137343Y0078929D01*
X0137372Y0078991D01*
X0137404Y0079051D01*
X0137440Y0079110D01*
X0137480Y0079166D01*
X0137522Y0079220D01*
X0137568Y0079271D01*
X0137617Y0079320D01*
X0137668Y0079366D01*
X0137722Y0079408D01*
X0137778Y0079448D01*
X0137836Y0079484D01*
X0137897Y0079516D01*
X0137959Y0079545D01*
X0138023Y0079571D01*
X0138088Y0079592D01*
X0138155Y0079610D01*
X0138222Y0079624D01*
X0138290Y0079634D01*
X0138358Y0079640D01*
X0138427Y0079642D01*
X0138496Y0079640D01*
X0138564Y0079634D01*
X0138632Y0079624D01*
X0138699Y0079610D01*
X0138766Y0079592D01*
X0138831Y0079571D01*
X0138895Y0079545D01*
X0138957Y0079516D01*
X0139017Y0079484D01*
X0139076Y0079448D01*
X0139132Y0079408D01*
X0139186Y0079366D01*
X0139237Y0079320D01*
X0139286Y0079271D01*
X0139332Y0079220D01*
X0139374Y0079166D01*
X0139414Y0079110D01*
X0139450Y0079051D01*
X0139482Y0078991D01*
X0139511Y0078929D01*
X0139537Y0078865D01*
X0139558Y0078800D01*
X0139576Y0078733D01*
X0139590Y0078666D01*
X0139600Y0078598D01*
X0139606Y0078530D01*
X0139608Y0078461D01*
X0139606Y0078392D01*
X0139600Y0078324D01*
X0139590Y0078256D01*
X0139576Y0078189D01*
X0139558Y0078122D01*
X0139537Y0078057D01*
X0139511Y0077993D01*
X0139482Y0077931D01*
X0139450Y0077870D01*
X0139414Y0077812D01*
X0139374Y0077756D01*
X0139332Y0077702D01*
X0139286Y0077651D01*
X0139237Y0077602D01*
X0139186Y0077556D01*
X0139132Y0077514D01*
X0139076Y0077474D01*
X0139018Y0077438D01*
X0138957Y0077406D01*
X0138895Y0077377D01*
X0138831Y0077351D01*
X0138766Y0077330D01*
X0138699Y0077312D01*
X0138632Y0077298D01*
X0138564Y0077288D01*
X0138496Y0077282D01*
X0138427Y0077280D01*
X0138358Y0077282D01*
X0138290Y0077288D01*
X0138222Y0077298D01*
X0138155Y0077312D01*
X0138088Y0077330D01*
X0138023Y0077351D01*
X0137959Y0077377D01*
X0137897Y0077406D01*
X0137836Y0077438D01*
X0137778Y0077474D01*
X0137722Y0077514D01*
X0137668Y0077556D01*
X0137617Y0077602D01*
X0137568Y0077651D01*
X0137522Y0077702D01*
X0137480Y0077756D01*
X0137440Y0077812D01*
X0137404Y0077870D01*
X0137372Y0077931D01*
X0137343Y0077993D01*
X0137317Y0078057D01*
X0137296Y0078122D01*
X0137278Y0078189D01*
X0137264Y0078256D01*
X0137254Y0078324D01*
X0137248Y0078392D01*
X0137246Y0078461D01*
X0130819Y0070801D02*
X0130821Y0070870D01*
X0130827Y0070938D01*
X0130837Y0071006D01*
X0130851Y0071073D01*
X0130869Y0071140D01*
X0130890Y0071205D01*
X0130916Y0071269D01*
X0130945Y0071331D01*
X0130977Y0071391D01*
X0131013Y0071450D01*
X0131053Y0071506D01*
X0131095Y0071560D01*
X0131141Y0071611D01*
X0131190Y0071660D01*
X0131241Y0071706D01*
X0131295Y0071748D01*
X0131351Y0071788D01*
X0131409Y0071824D01*
X0131470Y0071856D01*
X0131532Y0071885D01*
X0131596Y0071911D01*
X0131661Y0071932D01*
X0131728Y0071950D01*
X0131795Y0071964D01*
X0131863Y0071974D01*
X0131931Y0071980D01*
X0132000Y0071982D01*
X0132069Y0071980D01*
X0132137Y0071974D01*
X0132205Y0071964D01*
X0132272Y0071950D01*
X0132339Y0071932D01*
X0132404Y0071911D01*
X0132468Y0071885D01*
X0132530Y0071856D01*
X0132590Y0071824D01*
X0132649Y0071788D01*
X0132705Y0071748D01*
X0132759Y0071706D01*
X0132810Y0071660D01*
X0132859Y0071611D01*
X0132905Y0071560D01*
X0132947Y0071506D01*
X0132987Y0071450D01*
X0133023Y0071391D01*
X0133055Y0071331D01*
X0133084Y0071269D01*
X0133110Y0071205D01*
X0133131Y0071140D01*
X0133149Y0071073D01*
X0133163Y0071006D01*
X0133173Y0070938D01*
X0133179Y0070870D01*
X0133181Y0070801D01*
X0133179Y0070732D01*
X0133173Y0070664D01*
X0133163Y0070596D01*
X0133149Y0070529D01*
X0133131Y0070462D01*
X0133110Y0070397D01*
X0133084Y0070333D01*
X0133055Y0070271D01*
X0133023Y0070210D01*
X0132987Y0070152D01*
X0132947Y0070096D01*
X0132905Y0070042D01*
X0132859Y0069991D01*
X0132810Y0069942D01*
X0132759Y0069896D01*
X0132705Y0069854D01*
X0132649Y0069814D01*
X0132591Y0069778D01*
X0132530Y0069746D01*
X0132468Y0069717D01*
X0132404Y0069691D01*
X0132339Y0069670D01*
X0132272Y0069652D01*
X0132205Y0069638D01*
X0132137Y0069628D01*
X0132069Y0069622D01*
X0132000Y0069620D01*
X0131931Y0069622D01*
X0131863Y0069628D01*
X0131795Y0069638D01*
X0131728Y0069652D01*
X0131661Y0069670D01*
X0131596Y0069691D01*
X0131532Y0069717D01*
X0131470Y0069746D01*
X0131409Y0069778D01*
X0131351Y0069814D01*
X0131295Y0069854D01*
X0131241Y0069896D01*
X0131190Y0069942D01*
X0131141Y0069991D01*
X0131095Y0070042D01*
X0131053Y0070096D01*
X0131013Y0070152D01*
X0130977Y0070210D01*
X0130945Y0070271D01*
X0130916Y0070333D01*
X0130890Y0070397D01*
X0130869Y0070462D01*
X0130851Y0070529D01*
X0130837Y0070596D01*
X0130827Y0070664D01*
X0130821Y0070732D01*
X0130819Y0070801D01*
D12*
G36*
X0091070Y0185228D02*
X0089495Y0187955D01*
X0092222Y0189530D01*
X0093797Y0186803D01*
X0091070Y0185228D01*
G37*
G36*
X0096184Y0188181D02*
X0094609Y0190908D01*
X0097336Y0192483D01*
X0098911Y0189756D01*
X0096184Y0188181D01*
G37*
D13*
X0293295Y0232761D02*
X0293297Y0232850D01*
X0293303Y0232939D01*
X0293313Y0233028D01*
X0293327Y0233116D01*
X0293344Y0233203D01*
X0293366Y0233289D01*
X0293392Y0233375D01*
X0293421Y0233459D01*
X0293454Y0233542D01*
X0293490Y0233623D01*
X0293531Y0233703D01*
X0293574Y0233780D01*
X0293621Y0233856D01*
X0293672Y0233929D01*
X0293725Y0234000D01*
X0293782Y0234069D01*
X0293842Y0234135D01*
X0293905Y0234199D01*
X0293970Y0234259D01*
X0294038Y0234317D01*
X0294109Y0234371D01*
X0294182Y0234422D01*
X0294257Y0234470D01*
X0294334Y0234515D01*
X0294413Y0234556D01*
X0294494Y0234593D01*
X0294576Y0234627D01*
X0294660Y0234658D01*
X0294745Y0234684D01*
X0294831Y0234707D01*
X0294918Y0234725D01*
X0295006Y0234740D01*
X0295095Y0234751D01*
X0295184Y0234758D01*
X0295273Y0234761D01*
X0295362Y0234760D01*
X0295451Y0234755D01*
X0295539Y0234746D01*
X0295628Y0234733D01*
X0295715Y0234716D01*
X0295802Y0234696D01*
X0295888Y0234671D01*
X0295972Y0234643D01*
X0296055Y0234611D01*
X0296137Y0234575D01*
X0296217Y0234536D01*
X0296295Y0234493D01*
X0296371Y0234447D01*
X0296445Y0234397D01*
X0296517Y0234344D01*
X0296586Y0234288D01*
X0296653Y0234229D01*
X0296717Y0234167D01*
X0296778Y0234103D01*
X0296837Y0234035D01*
X0296892Y0233965D01*
X0296944Y0233893D01*
X0296993Y0233818D01*
X0297038Y0233742D01*
X0297080Y0233663D01*
X0297118Y0233583D01*
X0297153Y0233501D01*
X0297184Y0233417D01*
X0297212Y0233332D01*
X0297235Y0233246D01*
X0297255Y0233159D01*
X0297271Y0233072D01*
X0297283Y0232983D01*
X0297291Y0232895D01*
X0297295Y0232806D01*
X0297295Y0232716D01*
X0297291Y0232627D01*
X0297283Y0232539D01*
X0297271Y0232450D01*
X0297255Y0232363D01*
X0297235Y0232276D01*
X0297212Y0232190D01*
X0297184Y0232105D01*
X0297153Y0232021D01*
X0297118Y0231939D01*
X0297080Y0231859D01*
X0297038Y0231780D01*
X0296993Y0231704D01*
X0296944Y0231629D01*
X0296892Y0231557D01*
X0296837Y0231487D01*
X0296778Y0231419D01*
X0296717Y0231355D01*
X0296653Y0231293D01*
X0296586Y0231234D01*
X0296517Y0231178D01*
X0296445Y0231125D01*
X0296371Y0231075D01*
X0296295Y0231029D01*
X0296217Y0230986D01*
X0296137Y0230947D01*
X0296055Y0230911D01*
X0295972Y0230879D01*
X0295888Y0230851D01*
X0295802Y0230826D01*
X0295715Y0230806D01*
X0295628Y0230789D01*
X0295539Y0230776D01*
X0295451Y0230767D01*
X0295362Y0230762D01*
X0295273Y0230761D01*
X0295184Y0230764D01*
X0295095Y0230771D01*
X0295006Y0230782D01*
X0294918Y0230797D01*
X0294831Y0230815D01*
X0294745Y0230838D01*
X0294660Y0230864D01*
X0294576Y0230895D01*
X0294494Y0230929D01*
X0294413Y0230966D01*
X0294334Y0231007D01*
X0294257Y0231052D01*
X0294182Y0231100D01*
X0294109Y0231151D01*
X0294038Y0231205D01*
X0293970Y0231263D01*
X0293905Y0231323D01*
X0293842Y0231387D01*
X0293782Y0231453D01*
X0293725Y0231522D01*
X0293672Y0231593D01*
X0293621Y0231666D01*
X0293574Y0231742D01*
X0293531Y0231819D01*
X0293490Y0231899D01*
X0293454Y0231980D01*
X0293421Y0232063D01*
X0293392Y0232147D01*
X0293366Y0232233D01*
X0293344Y0232319D01*
X0293327Y0232406D01*
X0293313Y0232494D01*
X0293303Y0232583D01*
X0293297Y0232672D01*
X0293295Y0232761D01*
X0306976Y0195173D02*
X0306978Y0195262D01*
X0306984Y0195351D01*
X0306994Y0195440D01*
X0307008Y0195528D01*
X0307025Y0195615D01*
X0307047Y0195701D01*
X0307073Y0195787D01*
X0307102Y0195871D01*
X0307135Y0195954D01*
X0307171Y0196035D01*
X0307212Y0196115D01*
X0307255Y0196192D01*
X0307302Y0196268D01*
X0307353Y0196341D01*
X0307406Y0196412D01*
X0307463Y0196481D01*
X0307523Y0196547D01*
X0307586Y0196611D01*
X0307651Y0196671D01*
X0307719Y0196729D01*
X0307790Y0196783D01*
X0307863Y0196834D01*
X0307938Y0196882D01*
X0308015Y0196927D01*
X0308094Y0196968D01*
X0308175Y0197005D01*
X0308257Y0197039D01*
X0308341Y0197070D01*
X0308426Y0197096D01*
X0308512Y0197119D01*
X0308599Y0197137D01*
X0308687Y0197152D01*
X0308776Y0197163D01*
X0308865Y0197170D01*
X0308954Y0197173D01*
X0309043Y0197172D01*
X0309132Y0197167D01*
X0309220Y0197158D01*
X0309309Y0197145D01*
X0309396Y0197128D01*
X0309483Y0197108D01*
X0309569Y0197083D01*
X0309653Y0197055D01*
X0309736Y0197023D01*
X0309818Y0196987D01*
X0309898Y0196948D01*
X0309976Y0196905D01*
X0310052Y0196859D01*
X0310126Y0196809D01*
X0310198Y0196756D01*
X0310267Y0196700D01*
X0310334Y0196641D01*
X0310398Y0196579D01*
X0310459Y0196515D01*
X0310518Y0196447D01*
X0310573Y0196377D01*
X0310625Y0196305D01*
X0310674Y0196230D01*
X0310719Y0196154D01*
X0310761Y0196075D01*
X0310799Y0195995D01*
X0310834Y0195913D01*
X0310865Y0195829D01*
X0310893Y0195744D01*
X0310916Y0195658D01*
X0310936Y0195571D01*
X0310952Y0195484D01*
X0310964Y0195395D01*
X0310972Y0195307D01*
X0310976Y0195218D01*
X0310976Y0195128D01*
X0310972Y0195039D01*
X0310964Y0194951D01*
X0310952Y0194862D01*
X0310936Y0194775D01*
X0310916Y0194688D01*
X0310893Y0194602D01*
X0310865Y0194517D01*
X0310834Y0194433D01*
X0310799Y0194351D01*
X0310761Y0194271D01*
X0310719Y0194192D01*
X0310674Y0194116D01*
X0310625Y0194041D01*
X0310573Y0193969D01*
X0310518Y0193899D01*
X0310459Y0193831D01*
X0310398Y0193767D01*
X0310334Y0193705D01*
X0310267Y0193646D01*
X0310198Y0193590D01*
X0310126Y0193537D01*
X0310052Y0193487D01*
X0309976Y0193441D01*
X0309898Y0193398D01*
X0309818Y0193359D01*
X0309736Y0193323D01*
X0309653Y0193291D01*
X0309569Y0193263D01*
X0309483Y0193238D01*
X0309396Y0193218D01*
X0309309Y0193201D01*
X0309220Y0193188D01*
X0309132Y0193179D01*
X0309043Y0193174D01*
X0308954Y0193173D01*
X0308865Y0193176D01*
X0308776Y0193183D01*
X0308687Y0193194D01*
X0308599Y0193209D01*
X0308512Y0193227D01*
X0308426Y0193250D01*
X0308341Y0193276D01*
X0308257Y0193307D01*
X0308175Y0193341D01*
X0308094Y0193378D01*
X0308015Y0193419D01*
X0307938Y0193464D01*
X0307863Y0193512D01*
X0307790Y0193563D01*
X0307719Y0193617D01*
X0307651Y0193675D01*
X0307586Y0193735D01*
X0307523Y0193799D01*
X0307463Y0193865D01*
X0307406Y0193934D01*
X0307353Y0194005D01*
X0307302Y0194078D01*
X0307255Y0194154D01*
X0307212Y0194231D01*
X0307171Y0194311D01*
X0307135Y0194392D01*
X0307102Y0194475D01*
X0307073Y0194559D01*
X0307047Y0194645D01*
X0307025Y0194731D01*
X0307008Y0194818D01*
X0306994Y0194906D01*
X0306984Y0194995D01*
X0306978Y0195084D01*
X0306976Y0195173D01*
M02*
